SplineFontDB: 3.0
FontName: MiriamCLM-Bold
FullName: Miriam CLM Bold
FamilyName: Miriam CLM
Weight: Bold
Copyright: Copyright 2004-2010 by Maxim Iorsh (iorsh@users.sourceforge.net). Distributed under the terms of GNU General Public License version 2(http://www.gnu.org/licenses/gpl.html). \nAll rights reserved.
UComments: "distorted bitmap stretch 133.3333% 100%+AAoACgAA-stretch bitmap 114.3%" 
Version: 0.120
ItalicAngle: 0
UnderlinePosition: -100
UnderlineWidth: 50
Ascent: 872
Descent: 218
LayerCount: 2
Layer: 0 0 "Back"  1
Layer: 1 0 "Fore"  0
NeedsXUIDChange: 1
FSType: 0
OS2Version: 0
OS2_WeightWidthSlopeOnly: 0
OS2_UseTypoMetrics: 0
CreationTime: 1163025780
ModificationTime: 1289933799
PfmFamily: 33
TTFWeight: 700
TTFWidth: 5
LineGap: 90
VLineGap: 0
Panose: 2 0 6 3 0 0 0 0 0 0
OS2TypoAscent: 0
OS2TypoAOffset: 1
OS2TypoDescent: 0
OS2TypoDOffset: 1
OS2TypoLinegap: 0
OS2WinAscent: 0
OS2WinAOffset: 1
OS2WinDescent: 0
OS2WinDOffset: 1
HheadAscent: 0
HheadAOffset: 1
HheadDescent: 0
HheadDOffset: 1
OS2Vendor: 'PfEd'
Lookup: 6 1 0 "ccmpAltAyin"  {"ccmpAltAyin subtable"  } ['ccmp' ('hebr' <'dflt' > ) ]
Lookup: 1 1 0 "Single Substitution lookup 11"  {"Single Substitution lookup 11 subtable"  } []
Lookup: 6 1 0 "ccmpVavHolam"  {"ccmpVavHolam subtable"  } ['ccmp' ('hebr' <'dflt' > ) ]
Lookup: 1 1 0 "salt MiscSAlt"  {"MiscSAlt"  } ['salt' ('hebr' <'dflt' > ) ]
Lookup: 4 1 0 "ccmp AlephLamed2"  {"AlephLamed2"  } ['ccmp' ('hebr' <'JUD ' > ) ]
Lookup: 4 1 0 "dlig AlephLamed"  {"AlephLamed"  } ['dlig' ('hebr' <'dflt' > ) ]
Lookup: 4 1 0 "ccmp CustomPrecomp"  {"CustomPrecomp"  } ['ccmp' ('hebr' <'dflt' > ) ]
Lookup: 1 1 0 "jalt WideLetters"  {"WideLetters"  } ['jalt' ('hebr' <'dflt' > ) ]
Lookup: 1 1 0 "ccmp Yiddish2"  {"Yiddish2"  } ['ccmp' ('hebr' <'JII ' > ) ]
Lookup: 4 1 0 "ccmp Yiddish_dflt"  {"Yiddish_dflt"  } ['ccmp' ('hebr' <'dflt' > ) ]
Lookup: 4 1 0 "ccmp Yiddish"  {"Yiddish"  } ['ccmp' ('hebr' <'JII ' > ) ]

StartChar: exclam
Encoding: 33 33 1
Width: 292
VWidth: 1000
Flags: HW
HStem: -11 173<91.3014 189.676>
VStem: 80 122<-0.27829 151.278> 89 105<271.282 640.718>
LayerCount: 2
Back
SplineSet
140.014 53 m 0
 140.014 32.667 138.779 20.4805 133.806 10.502 c 0
 125.527 -6.10645 110.951 -11.002 95.0068 -11.002 c 0
 78.1895 -11.001 64.3477 -5.8291 56.208 10.502 c 0
 51.2344 20.4805 50 32.667 50 53 c 0
 50 73.7568 51.2344 85.5195 56.208 95.498 c 0
 64.3477 111.829 78.1895 117.001 95.0068 117.002 c 0
 110.951 117.002 125.527 112.106 133.806 95.498 c 0
 138.779 85.5195 140.014 74.1035 140.014 53 c 0
130 219 m 6
 130 208 128 203 124 199 c 4
 120 195 115 193 104 193 c 6
 86 193 l 6
 75 193 70 195 66 199 c 4
 62 203 60 208 60 219 c 6
 60 624 l 6
 60 635 62 640 66 644 c 4
 70 648 75 650 86 650 c 6
 104 650 l 6
 115 650 120 648 124 644 c 4
 128 640 130 635 130 624 c 6
 130 219 l 6
EndSplineSet
Fore
SplineSet
194 301 m 2xa0
 194 284 191 277 185 271 c 0
 179 265 171 262 155 262 c 2
 128 262 l 2
 111 262 104 265 98 271 c 0
 92 277 89 284 89 301 c 2
 89 611 l 2
 89 628 92 635 98 641 c 0
 104 647 111 650 128 650 c 2
 155 650 l 2
 171 650 179 647 185 641 c 0
 191 635 194 628 194 611 c 2
 194 301 l 2xa0
202 75 m 0xc0
 202 48 200 32 193 18 c 0
 182 -4 162 -11 141 -11 c 0
 118 -11 99 -4 88 18 c 0
 82 32 80 48 80 75 c 0
 80 103 82 119 88 133 c 0
 99 155 118 162 141 162 c 0
 162 162 182 155 193 133 c 0
 200 119 202 104 202 75 c 0xc0
EndSplineSet
EndChar

StartChar: quotedbl
Encoding: 34 34 2
Width: 503
VWidth: 1000
Flags: W
HStem: 380 266<134.406 150.674 260.363 267.613 354.406 370.674>
LayerCount: 2
Back
SplineSet
343.613 602.5 m 2
 357.168 633.75 372.863 646 405.113 646 c 2
 454.613 646 l 2
 487.613 646 497.227 630.248 478.613 596.5 c 2
 376.613 413.75 l 2
 362.146 387.517 351.113 380 329.363 380 c 2
 286.613 380 l 2
 260.363 380 253.998 395.683 264.113 419 c 2
 343.613 602.5 l 2
123.613 602.5 m 2
 137.168 633.75 152.863 646 185.113 646 c 2
 234.613 646 l 2
 267.613 646 277.227 630.248 258.613 596.5 c 2
 156.613 413.75 l 2
 142.146 387.517 131.113 380 109.363 380 c 2
 66.6123 380 l 2
 40.3623 380 33.998 395.683 44.1123 419 c 2
 123.613 602.5 l 2
EndSplineSet
Fore
SplineSet
343.613 602.5 m 2
 357.168 633.75 372.863 646 405.113 646 c 2
 454.613 646 l 2
 487.613 646 497.227 630.248 478.613 596.5 c 2
 376.613 413.75 l 2
 362.146 387.517 351.113 380 329.363 380 c 2
 286.613 380 l 2
 260.363 380 253.998 395.683 264.113 419 c 2
 343.613 602.5 l 2
123.613 602.5 m 2
 137.168 633.75 152.863 646 185.113 646 c 2
 234.613 646 l 2
 267.613 646 277.227 630.248 258.613 596.5 c 2
 156.613 413.75 l 2
 142.146 387.517 131.113 380 109.363 380 c 2
 66.6123 380 l 2
 40.3623 380 33.998 395.683 44.1123 419 c 2
 123.613 602.5 l 2
EndSplineSet
EndChar

StartChar: numbersign
Encoding: 35 35 3
Width: 631
VWidth: 1000
Flags: HW
HStem: 0 21G<134.689 181.189 344.689 391.189> 146 105<35.056 123.986 259.025 333.986 469.025 547.321> 355 105<73.3227 162.354 297.346 372.354 507.346 574.656> 580 20G<239.689 286.189 449.689 496.189>
LayerCount: 2
Back
SplineSet
359.439 266 m 6
 373.939 340 l 6
 375.439 352 373.939 355 361.939 355 c 6
 288.439 355 l 2
 276.439 355 273.439 352 271.939 340 c 2
 257.439 266 l 2
 255.939 254 257.439 251 269.439 251 c 2
 341.439 251 l 6
 353.439 251 357.939 254 359.439 266 c 6
443.439 131 m 6
 427.939 39 l 6
 424.939 22.5 421.939 15 414.439 9 c 4
 406.939 3 399.439 0 382.939 0 c 6
 352.939 0 l 6
 336.439 0 328.939 3 324.439 9 c 4
 319.939 15 316.939 22.5 319.939 39 c 6
 335.439 131 l 6
 338.439 143 333.939 146 321.939 146 c 6
 249.939 146 l 2
 237.939 146 234.939 143 233.439 131 c 2
 217.939 39 l 2
 214.939 22.5 211.939 15 204.439 9 c 0
 196.939 3 189.439 0 172.939 0 c 2
 142.939 0 l 2
 126.439 0 118.939 3 114.439 9 c 0
 109.939 15 106.939 22.5 109.939 39 c 2
 125.439 131 l 2
 126.939 143 123.939 146 111.939 146 c 2
 57.9375 146 l 2
 41.4375 146 35.4375 149 29.4375 155 c 0
 24.9375 161 23.4375 168.5 26.4375 185 c 2
 30.9375 212 l 2
 33.9375 228.5 38.4375 236 45.9375 242 c 0
 51.9375 248 60.9375 251 77.4375 251 c 2
 131.439 251 l 2
 143.439 251 147.939 254 149.439 266 c 2
 163.939 340 l 2
 165.439 352 162.439 355 150.439 355 c 2
 96.4395 355 l 2
 79.9375 355 73.9375 358 67.9375 364 c 0
 63.4375 370 61.9375 379 64.9375 394 c 2
 69.4375 421 l 2
 72.4375 439 76.9375 445 84.4375 451 c 0
 90.4385 457 99.4395 460 115.939 460 c 2
 169.939 460 l 2
 181.939 460 184.939 463 187.939 475 c 2
 202.939 561 l 2
 204.439 577.5 208.939 585 216.439 591 c 0
 223.939 597 231.439 600 247.939 600 c 2
 277.939 600 l 2
 294.439 600 301.939 597 306.439 591 c 0
 310.939 585 312.439 577.5 310.939 561 c 2
 295.939 475 l 2
 292.939 463 295.939 460 307.939 460 c 2
 379.939 460 l 6
 391.939 460 394.939 463 397.939 475 c 6
 412.939 561 l 6
 414.439 577.5 418.939 585 426.439 591 c 4
 433.939 597 441.439 600 457.939 600 c 6
 487.939 600 l 6
 504.439 600 511.939 597 516.439 591 c 4
 520.939 585 522.439 577.5 520.939 561 c 6
 505.939 475 l 6
 502.939 463 505.939 460 517.939 460 c 6
 562.939 460 l 2
 579.439 460 585.439 457 591.439 451 c 0
 595.939 445 597.439 439 594.439 421 c 2
 589.939 394 l 2
 586.939 379 582.439 370 574.939 364 c 0
 568.939 358 559.939 355 543.439 355 c 2
 499.939 355 l 6
 487.939 355 483.439 352 481.939 340 c 6
 467.439 266 l 6
 465.939 254 467.439 251 479.439 251 c 6
 524.439 251 l 2
 540.939 251 546.939 248 552.939 242 c 0
 557.439 236 558.939 228.5 555.939 212 c 2
 551.439 185 l 2
 548.439 168.5 543.939 161 536.439 155 c 0
 530.439 149 521.439 146 504.939 146 c 2
 459.939 146 l 6
 447.939 146 446.439 143 443.439 131 c 6
EndSplineSet
Fore
SplineSet
360.439 246 m 2
 382.939 360 l 2
 385.281 371.864 382.939 375 370.939 375 c 2
 287.439 375 l 6
 275.439 375 273.281 371.864 270.939 360 c 6
 248.439 246 l 6
 246.1 234.135 248.439 231 260.439 231 c 6
 342.439 231 l 2
 354.439 231 358.1 234.135 360.439 246 c 2
440.439 116 m 2
 427.939 39 l 2
 425.252 22.4463 421.939 15 414.439 9 c 0
 406.939 3 399.439 0 382.939 0 c 2
 357.939 0 l 2
 341.439 0 333.939 3 329.439 9 c 0
 324.939 15 322.252 22.4463 324.939 39 c 2
 337.439 116 l 2
 340.439 128 335.939 131 323.939 131 c 2
 241.939 131 l 6
 229.939 131 226.939 128 225.439 116 c 6
 212.939 39 l 6
 210.252 22.4463 206.939 15 199.439 9 c 4
 191.939 3 184.439 0 167.939 0 c 6
 142.939 0 l 2
 126.439 0 118.939 3 114.439 9 c 0
 109.939 15 107.252 22.4463 109.939 39 c 2
 122.439 116 l 2
 123.939 128 120.939 131 108.939 131 c 2
 54.9375 131 l 2
 38.4375 131 32.4375 134 26.4375 140 c 0
 21.9375 146 20.8027 153.438 23.4375 170 c 2
 26.9375 192 l 2
 29.9375 208.5 34.4375 216 41.9375 222 c 0
 47.9375 228 56.9375 231 73.4375 231 c 2
 127.439 231 l 2
 139.439 231 143.1 234.135 145.439 246 c 2
 167.939 360 l 2
 170.281 371.864 166.439 375 154.439 375 c 2
 100.439 375 l 2
 83.9375 375 77.9375 378 71.9375 384 c 0
 67.4375 390 65.9375 399 68.9375 414 c 2
 72.4375 436 l 2
 75.3047 454.021 79.9375 460 87.4375 466 c 0
 93.4385 472 102.439 475 118.939 475 c 2
 172.939 475 l 2
 184.939 475 187.939 478 190.939 490 c 2
 202.939 561 l 2
 205.7 577.336 208.939 585 216.439 591 c 0
 223.939 597 231.439 600 247.939 600 c 2
 272.939 600 l 6
 289.439 600 296.939 597 301.439 591 c 4
 305.939 585 308.7 577.336 305.939 561 c 6
 293.939 490 l 6
 290.939 478 293.939 475 305.939 475 c 6
 387.939 475 l 2
 399.939 475 402.939 478 405.939 490 c 2
 417.939 561 l 2
 420.7 577.336 423.939 585 431.439 591 c 0
 438.939 597 446.439 600 462.939 600 c 2
 487.939 600 l 2
 504.439 600 511.939 597 516.439 591 c 0
 520.939 585 523.7 577.336 520.939 561 c 2
 508.939 490 l 2
 505.939 478 508.939 475 520.939 475 c 2
 565.939 475 l 2
 582.439 475 588.439 472 594.439 466 c 0
 598.939 460 600.307 454.021 597.439 436 c 2
 593.939 414 l 2
 590.939 399 586.439 390 578.939 384 c 0
 572.939 378 563.939 375 547.439 375 c 2
 503.939 375 l 2
 491.939 375 488.281 371.864 485.939 360 c 2
 463.439 246 l 2
 461.1 234.135 463.439 231 475.439 231 c 2
 520.439 231 l 2
 536.939 231 542.939 228 548.939 222 c 0
 553.439 216 554.939 208.5 551.939 192 c 2
 548.439 170 l 2
 545.805 153.438 540.939 146 533.439 140 c 0
 527.439 134 518.439 131 501.939 131 c 2
 456.939 131 l 2
 444.939 131 443.439 128 440.439 116 c 2
EndSplineSet
EndChar

StartChar: percent
Encoding: 37 37 4
Width: 571
VWidth: 1000
Flags: HMW
HStem: 280.749 15.9686<147.731 148.376> 403.325 15.9686<147.731 148.376>
VStem: 114.669 11.2896<350.021 356.544> 169.504 11.2896<350.021 356.544>
LayerCount: 2
Back
SplineSet
393.125 147 m 4
 393.125 122.2 396.5 97.7998 404.75 80.5996 c 4
 413.75 61.7998 426.5 52.2002 443.75 52.2002 c 4
 461 52.2002 473.75 61.7998 482.75 80.5996 c 4
 491 97.7998 494.375 122.2 494.375 147 c 4
 494.375 171.8 491 196.2 482.75 213.4 c 4
 473.75 232.2 461 241.8 443.75 241.8 c 4
 426.5 241.8 413.75 232.2 404.75 213.4 c 4
 396.5 196.2 393.125 171.8 393.125 147 c 4
556.5 147 m 4
 556.5 106.5 548.8 67.5 531.2 40.5 c 4
 510.85 9.5 478.4 -7 443.75 -7 c 4
 409.1 -7 376.65 9.5 356.3 40.5 c 4
 338.7 67.5 331 106.5 331 147 c 4
 331 187.5 338.7 226.5 356.3 253.5 c 4
 376.65 284.5 409.1 301 443.75 301 c 4
 478.4 301 510.85 284.5 531.2 253.5 c 4
 548.8 226.5 556.5 187.5 556.5 147 c 4
117.125 454 m 4
 117.125 429.2 120.5 404.8 128.75 387.6 c 4
 137.75 368.8 150.5 359.2 167.75 359.2 c 4
 185 359.2 197.75 368.8 206.75 387.6 c 4
 215 404.8 218.375 429.2 218.375 454 c 4
 218.375 478.8 215 503.2 206.75 520.4 c 4
 197.75 539.2 185 548.8 167.75 548.8 c 4
 150.5 548.8 137.75 539.2 128.75 520.4 c 4
 120.5 503.2 117.125 478.8 117.125 454 c 4
280.5 454 m 4
 280.5 413.5 272.8 374.5 255.2 347.5 c 4
 234.85 316.5 202.4 300 167.75 300 c 4
 133.1 300 100.65 316.5 80.2998 347.5 c 4
 62.7002 374.5 55 413.5 55 454 c 4
 55 494.5 62.7002 533.5 80.2998 560.5 c 4
 100.65 591.5 133.1 608 167.75 608 c 4
 202.4 608 234.85 591.5 255.2 560.5 c 4
 272.8 533.5 280.5 494.5 280.5 454 c 4
146.536 1.84473 m 6
 140.382 -7.27246 135.932 -10.3027 130.378 -11.3809 c 4
 124.826 -12.46 119.562 -11.3223 110.441 -5.17188 c 6
 95.5186 4.89453 l 6
 86.4014 11.0459 83.373 15.499 82.2939 21.0518 c 4
 81.2148 26.6045 82.3496 31.8711 88.5029 40.9893 c 6
 465.465 599.655 l 6
 471.617 608.772 476.069 611.804 481.622 612.881 c 4
 487.175 613.959 492.439 612.823 501.56 606.671 c 6
 516.483 596.606 l 6
 525.6 590.454 528.628 586 529.707 580.448 c 4
 530.787 574.895 529.65 569.631 523.498 560.511 c 6
 146.536 1.84473 l 6
EndSplineSet
Fore
SplineSet
411.1 147 m 0
 411.1 129.64 413.26 112.56 418.54 100.52 c 0
 424.3 87.3604 432.46 80.6406 443.5 80.6406 c 0
 454.54 80.6406 462.7 87.3604 468.46 100.52 c 0
 473.74 112.56 475.9 129.64 475.9 147 c 0
 475.9 164.36 473.74 181.44 468.46 193.48 c 0
 462.7 206.64 454.54 213.36 443.5 213.36 c 0
 432.46 213.36 424.3 206.64 418.54 193.48 c 0
 413.26 181.44 411.1 164.36 411.1 147 c 0
556.25 147 m 0
 556.25 106.5 548.55 67.5 530.95 40.5 c 0
 510.6 9.5 478.15 -7 443.5 -7 c 0
 408.85 -7 376.4 9.5 356.05 40.5 c 0
 338.45 67.5 330.75 106.5 330.75 147 c 0
 330.75 187.5 338.45 226.5 356.05 253.5 c 0
 376.4 284.5 408.85 301 443.5 301 c 0
 478.15 301 510.6 284.5 530.95 253.5 c 0
 548.55 226.5 556.25 187.5 556.25 147 c 0
105.1 454 m 0
 105.1 436.64 107.26 419.56 112.54 407.52 c 0
 118.3 394.36 126.46 387.64 137.5 387.64 c 0
 148.54 387.64 156.7 394.36 162.46 407.52 c 0
 167.74 419.56 169.9 436.64 169.9 454 c 0
 169.9 471.36 167.74 488.44 162.46 500.48 c 0
 156.7 513.64 148.54 520.36 137.5 520.36 c 0
 126.46 520.36 118.3 513.64 112.54 500.48 c 0
 107.26 488.44 105.1 471.36 105.1 454 c 0
250.25 454 m 0
 250.25 413.5 242.55 374.5 224.95 347.5 c 0
 204.6 316.5 172.15 300 137.5 300 c 0
 102.85 300 70.4004 316.5 50.0498 347.5 c 0
 32.4502 374.5 24.75 413.5 24.75 454 c 0
 24.75 494.5 32.4502 533.5 50.0498 560.5 c 0
 70.4004 591.5 102.85 608 137.5 608 c 0
 172.15 608 204.6 591.5 224.95 560.5 c 0
 242.55 533.5 250.25 494.5 250.25 454 c 0
155.642 8.52539 m 2
 146.399 -5.14453 139.734 -9.69531 131.404 -11.3135 c 0
 123.075 -12.9316 115.182 -11.2256 101.5 -2 c 2
 79.1152 13.1006 l 2
 65.4395 22.3271 60.8975 29.0078 59.2793 37.3359 c 0
 57.6611 45.665 59.3506 53.5723 68.5928 67.2422 c 2
 425.475 593.074 l 2
 434.74 606.727 441.38 611.297 449.71 612.914 c 0
 458.039 614.531 465.937 612.826 479.615 603.598 c 2
 502 588.5 l 2
 515.677 579.272 520.219 572.591 521.838 564.264 c 0
 523.456 555.933 521.789 548.013 512.522 534.358 c 2
 155.642 8.52539 l 2
EndSplineSet
EndChar

StartChar: quotesingle
Encoding: 39 39 5
Width: 282
VWidth: 1000
Flags: W
HStem: 380 266<134.406 150.674>
LayerCount: 2
Back
SplineSet
118.541 617 m 2
 127.578 637.833 138.041 646 159.541 646 c 2
 192.541 646 l 2
 214.541 646 220.949 635.499 208.541 613 c 2
 125.541 462.5 l 2
 115.896 445.011 108.541 440 94.041 440 c 2
 68.041 440 l 2
 50.541 440 46.2979 450.455 53.041 466 c 2
 118.541 617 l 2
EndSplineSet
Fore
SplineSet
123.613 602.5 m 2
 137.168 633.75 152.863 646 185.113 646 c 2
 234.613 646 l 2
 267.613 646 277.226 630.248 258.613 596.5 c 2
 156.613 413.75 l 2
 142.146 387.517 131.113 380 109.363 380 c 2
 66.6123 380 l 2
 40.3623 380 33.998 395.683 44.1123 419 c 2
 123.613 602.5 l 2
EndSplineSet
EndChar

StartChar: parenleft
Encoding: 40 40 6
Width: 307
VWidth: 1000
Flags: HW
VStem: 40.291 113.5<147.222 452.778>
LayerCount: 2
Back
SplineSet
50 300 m 0
 50 416.5 91 554 190 659 c 8
 196.359 665.745 202.73 668 212 668 c 2
 243 668 l 2
 255 668 257.5 661 248 649 c 0
 171.273 552.081 125 435.5 125 300 c 0
 125 164.5 171.273 47.9189 248 -49 c 0
 257.5 -61 255 -68 243 -68 c 2
 212 -68 l 2
 202.73 -68 196.232 -65.8623 190 -59 c 16
 91 50 50 183.5 50 300 c 0
EndSplineSet
Fore
SplineSet
43.291 300 m 0
 43.291 416.5 83.291 554 176.291 655 c 8
 185.71 665.229 195.386 668.5 209.291 668.5 c 2
 265.791 668.5 l 2
 283.791 668.5 287.541 658 273.291 640 c 0
 200.755 544.891 156.791 431.332 156.791 300 c 0
 156.791 168.668 200.755 55.1094 273.291 -40 c 0
 287.541 -58 283.791 -68.5 265.791 -68.5 c 2
 209.291 -68.5 l 2
 195.386 -68.5 185.71 -65.2295 176.291 -55 c 16
 83.291 46 43.291 183.5 43.291 300 c 0
EndSplineSet
EndChar

StartChar: parenright
Encoding: 41 41 7
Width: 307
VWidth: 1000
Flags: HW
VStem: 160.5 113.5<147.222 452.778>
LayerCount: 2
Back
SplineSet
248.806 300 m 0
 248.806 183.5 207.807 50 108.806 -59 c 8
 102.573 -65.8623 96.0752 -68 86.8057 -68 c 2
 60.8057 -68 l 6
 48.8057 -68 46.3057 -61 55.8057 -49 c 4
 132.533 47.9189 178.807 164.5 178.806 300 c 0
 178.806 435.5 132.533 552.081 55.8057 649 c 4
 46.3057 661 48.8057 668 60.8057 668 c 6
 86.8057 668 l 2
 96.0752 668 102.446 665.745 108.806 659 c 16
 207.806 554 248.807 416.5 248.806 300 c 0
EndSplineSet
Fore
SplineSet
274 300 m 0
 274 183.5 234 46 141 -55 c 8
 131.581 -65.2295 121.905 -68.5 108 -68.5 c 2
 51.5 -68.5 l 2
 33.5 -68.5 29.75 -58 44 -40 c 0
 116.536 55.1094 160.5 168.668 160.5 300 c 0
 160.5 431.332 116.536 544.891 44 640 c 0
 29.75 658 33.5 668.5 51.5 668.5 c 2
 108 668.5 l 2
 121.905 668.5 131.581 665.229 141 655 c 16
 234 554 274 416.5 274 300 c 0
EndSplineSet
EndChar

StartChar: asterisk
Encoding: 42 42 8
Width: 538
VWidth: 1000
Flags: W
VStem: 223.234 100.8<402.46 529.689>
LayerCount: 2
Back
SplineSet
206.909 503.909 m 2
 197.21 517.258 190.375 521.562 181.994 522.89 c 0
 173.613 524.217 165.782 522.235 152.434 512.537 c 2
 130.59 496.667 l 2
 117.241 486.968 112.937 480.133 111.609 471.752 c 0
 110.282 463.371 112.264 455.54 121.962 442.191 c 2
 337.091 146.091 l 2
 346.79 132.742 353.625 128.438 362.006 127.11 c 0
 370.387 125.783 378.218 127.765 391.566 137.463 c 2
 413.41 153.333 l 2
 426.759 163.032 431.063 169.867 432.391 178.248 c 0
 433.718 186.629 431.736 194.46 422.038 207.809 c 2
 206.909 503.909 l 2
422.038 442.191 m 2
 431.736 455.54 433.718 463.371 432.391 471.752 c 0
 431.063 480.133 426.759 486.968 413.41 496.667 c 2
 391.566 512.537 l 2
 378.218 522.235 370.387 524.217 362.006 522.89 c 0
 353.625 521.562 346.79 517.258 337.091 503.909 c 2
 121.962 207.809 l 2
 112.264 194.46 110.282 186.629 111.609 178.248 c 0
 112.937 169.867 117.241 163.032 130.59 153.333 c 2
 152.434 137.463 l 2
 165.782 127.765 173.613 125.783 181.994 127.11 c 0
 190.375 128.438 197.21 132.742 206.909 146.091 c 2
 422.038 442.191 l 2
81.7334 318.381 m 2
 66.041 313.281 59.835 308.11 55.9824 300.551 c 0
 52.1309 292.99 51.5947 284.93 56.6934 269.237 c 2
 65.0371 243.559 l 2
 70.1357 227.866 75.3066 221.661 82.8672 217.809 c 0
 90.4277 213.956 98.4873 213.421 114.18 218.52 c 2
 462.267 331.619 l 2
 477.959 336.719 484.165 341.89 488.018 349.449 c 0
 491.869 357.01 492.405 365.07 487.307 380.763 c 2
 478.963 406.441 l 2
 473.864 422.134 468.693 428.34 461.133 432.191 c 0
 453.572 436.044 445.513 436.579 429.82 431.48 c 2
 81.7334 318.381 l 2
429.82 218.52 m 2
 445.513 213.421 453.572 213.956 461.133 217.809 c 0
 468.693 221.661 473.864 227.866 478.963 243.559 c 2
 487.307 269.237 l 2
 492.405 284.93 491.869 292.99 488.018 300.551 c 0
 484.165 308.11 477.959 313.281 462.267 318.381 c 2
 114.18 431.48 l 2
 98.4873 436.579 90.4277 436.044 82.8672 432.191 c 0
 75.3066 428.34 70.1357 422.134 65.0371 406.441 c 2
 56.6934 380.763 l 2
 51.5947 365.07 52.1309 357.01 55.9824 349.449 c 0
 59.835 341.89 66.041 336.719 81.7334 331.619 c 2
 429.82 218.52 l 2
219.5 142 m 2
 219.5 125.5 222.5 118 228.5 112 c 0
 234.5 106 242 103 258.5 103 c 2
 285.5 103 l 2
 302 103 309.5 106 315.5 112 c 0
 321.5 118 324.5 125.5 324.5 142 c 2
 324.5 508 l 2
 324.5 524.5 321.5 532 315.5 538 c 0
 309.5 544 302 547 285.5 547 c 2
 258.5 547 l 2
 242 547 234.5 544 228.5 538 c 0
 222.5 532 219.5 524.5 219.5 508 c 2
 219.5 142 l 2
EndSplineSet
Fore
SplineSet
206.914 400.36 m 2
 217.475 396.52 223.234 400.36 223.234 411.88 c 2
 223.234 501.16 l 2
 222.274 516.52 226.114 524.2 231.874 529.96 c 0
 237.634 535.72 245.314 538.6 260.674 538.6 c 2
 287.555 538.6 l 2
 302.914 538.6 310.594 535.72 316.354 529.96 c 0
 322.114 524.2 324.034 516.52 324.034 501.16 c 2
 324.034 410.92 l 2
 324.034 401.32 329.794 396.52 340.354 400.36 c 2
 425.794 427.24 l 2
 441.154 433 448.834 432.04 455.555 428.2 c 0
 463.234 424.36 468.034 418.6 472.834 403.24 c 2
 480.515 379.24 l 2
 485.314 363.88 485.314 356.2 481.475 348.52 c 0
 477.634 341.8 471.874 337 456.515 332.2 c 2
 371.074 304.36 l 2
 361.475 300.52 358.594 294.76 365.314 285.16 c 2
 418.114 213.16 l 2
 427.714 199.72 429.634 193 427.714 184.36 c 0
 426.754 176.68 422.914 169.96 409.475 160.36 c 2
 389.314 145 l 2
 375.874 136.36 368.194 134.44 360.515 135.4 c 0
 352.834 136.36 346.114 141.16 336.515 153.64 c 2
 283.714 226.6 l 2
 277.954 235.24 270.274 235.24 264.515 226.6 c 2
 211.714 153.64 l 2
 202.114 141.16 195.395 136.36 187.714 135.4 c 0
 180.034 134.44 172.354 136.36 158.914 145 c 2
 138.754 160.36 l 2
 125.314 169.96 121.475 176.68 120.515 184.36 c 0
 118.595 193 120.515 199.72 130.114 213.16 c 2
 182.914 286.12 l 2
 188.674 293.8 186.754 300.52 176.194 304.36 c 2
 91.7139 332.2 l 2
 76.3545 337 70.5947 341.8 66.7539 348.52 c 0
 62.9141 356.2 62.9141 363.88 67.7139 379.24 c 2
 75.3945 403.24 l 2
 80.1943 418.6 84.9941 424.36 92.6738 428.2 c 0
 99.3945 432.04 107.074 433 122.435 427.24 c 2
 206.914 400.36 l 2
EndSplineSet
EndChar

StartChar: plus
Encoding: 43 43 9
Width: 492
VWidth: 1000
Flags: W
HStem: 250 105<64.2824 198.998 304.002 437.718>
VStem: 199 105<116.282 249.998 355.002 489.718>
LayerCount: 2
Back
SplineSet
174 337 m 2
 182 337 184 339 184 347 c 2
 184 445 l 2
 184 456 186 461 190 465 c 0
 194 469 199 471 210 471 c 2
 228 471 l 2
 239 471 244 469 248 465 c 0
 252 461 254 456 254 445 c 2
 254 347 l 2
 254 339 256 337 264 337 c 2
 361 337 l 2
 372 337 377 335 381 331 c 0
 385 327 387 322 387 311 c 2
 387 293 l 2
 387 282 385 277 381 273 c 0
 377 269 372 267 361 267 c 2
 264 267 l 2
 256 267 254 265 254 257 c 2
 254 160 l 2
 254 149 252 144 248 140 c 0
 244 136 239 134 228 134 c 2
 210 134 l 2
 199 134 194 136 190 140 c 0
 186 144 184 149 184 160 c 2
 184 257 l 2
 184 265 182 267 174 267 c 2
 76 267 l 2
 65 267 60 269 56 273 c 0
 52 277 50 282 50 293 c 2
 50 311 l 2
 50 322 52 327 56 331 c 0
 60 335 65 337 76 337 c 2
 174 337 l 2
EndSplineSet
Fore
SplineSet
184 355 m 2
 196 355 199 358 199 370 c 2
 199 460 l 2
 199 476.5 202 484 208 490 c 0
 214 496 221.5 499 238 499 c 2
 265 499 l 2
 281.5 499 289 496 295 490 c 0
 301 484 304 476.5 304 460 c 2
 304 370 l 2
 304 358 307 355 319 355 c 2
 408 355 l 2
 424.5 355 432 352 438 346 c 0
 444 340 447 332.5 447 316 c 2
 447 289 l 2
 447 272.5 444 265 438 259 c 0
 432 253 424.5 250 408 250 c 2
 319 250 l 2
 307 250 304 247 304 235 c 2
 304 146 l 2
 304 129.5 301 122 295 116 c 0
 289 110 281.5 107 265 107 c 2
 238 107 l 2
 221.5 107 214 110 208 116 c 0
 202 122 199 129.5 199 146 c 2
 199 235 l 2
 199 247 196 250 184 250 c 2
 94 250 l 2
 77.5 250 70 253 64 259 c 0
 58 265 55 272.5 55 289 c 2
 55 316 l 2
 55 332.5 58 340 64 346 c 0
 70 352 77.5 355 94 355 c 2
 184 355 l 2
EndSplineSet
Substitution2: "MiscSAlt" uniFB29
EndChar

StartChar: comma
Encoding: 44 44 10
Width: 313
VWidth: 1000
Flags: W
HStem: -96 266
LayerCount: 2
Back
SplineSet
100 81 m 2
 109.037 101.833 119.5 110 141 110 c 2
 174 110 l 2
 196 110 202.408 99.499 190 77 c 2
 107 -73.5 l 2
 97.3545 -90.9893 90 -96 75.5 -96 c 2
 49.5 -96 l 2
 32 -96 27.7568 -85.5449 34.5 -70 c 2
 100 81 l 2
EndSplineSet
Fore
SplineSet
123.613 126.5 m 2
 137.168 157.75 152.863 170 185.113 170 c 2
 229.613 170 l 6
 262.613 170 272.227 154.248 253.613 120.5 c 6
 151.613 -62.25 l 6
 137.146 -88.4834 126.113 -96 104.363 -96 c 6
 66.6123 -96 l 2
 40.3623 -96 33.998 -80.3174 44.1123 -57 c 2
 123.613 126.5 l 2
EndSplineSet
EndChar

StartChar: hyphen
Encoding: 45 45 11
Width: 470
VWidth: 1000
Flags: HW
HStem: 265 105<64.2824 415.718>
LayerCount: 2
Back
SplineSet
291 282 m 2
 76 282 l 2
 65 282 60 284 56 288 c 0
 52 292 50 297 50 308 c 2
 50 326 l 2
 50 337 52 342 56 346 c 0
 60 350 65 352 76 352 c 2
 291 352 l 2
 302 352 307 350 311 346 c 0
 315 342 317 337 317 326 c 2
 317 308 l 2
 317 297 315 292 311 288 c 0
 307 284 302 282 291 282 c 2
EndSplineSet
Fore
SplineSet
386 265 m 2
 94 265 l 2
 77.5 265 70 268 64 274 c 0
 58 280 55 287.5 55 304 c 2
 55 331 l 2
 55 347.5 58 355 64 361 c 0
 70 367 77.5 370 94 370 c 2
 386 370 l 2
 402.5 370 410 367 416 361 c 0
 422 355 425 347.5 425 331 c 2
 425 304 l 2
 425 287.5 422 280 416 274 c 0
 410 268 402.5 265 386 265 c 2
EndSplineSet
EndChar

StartChar: period
Encoding: 46 46 12
Width: 239
VWidth: 1000
Flags: HW
HStem: -10.999 172.805<50.2675 159.273>
VStem: 37.2998 135.021<1.52905 149.278>
LayerCount: 2
Back
SplineSet
140.014 53 m 0
 140.014 32.667 138.779 20.4805 133.806 10.502 c 0
 125.527 -6.10645 110.951 -11.002 95.0068 -11.002 c 0
 78.1895 -11.001 64.3477 -5.8291 56.208 10.502 c 0
 51.2344 20.4805 50 32.667 50 53 c 0
 50 73.7568 51.2344 85.5195 56.208 95.498 c 0
 64.3477 111.829 78.1895 117.001 95.0068 117.002 c 0
 110.951 117.002 125.527 112.106 133.806 95.498 c 0
 138.779 85.5195 140.014 74.1035 140.014 53 c 0
EndSplineSet
Fore
SplineSet
169.621 75.4033 m 0
 169.621 47.9541 167.843 31.502 160.681 18.0312 c 0
 148.759 -4.39062 127.77 -10.999 104.81 -10.999 c 0
 80.5928 -10.998 60.6611 -4.01562 48.9395 18.0312 c 0
 41.7773 31.502 40 47.9541 40 75.4033 c 0
 40 103.425 41.7773 119.305 48.9395 132.775 c 0
 60.6611 154.822 80.5928 161.805 104.81 161.806 c 0
 127.77 161.806 148.759 155.196 160.681 132.775 c 0
 167.843 119.305 169.621 103.893 169.621 75.4033 c 0
EndSplineSet
EndChar

StartChar: slash
Encoding: 47 47 13
Width: 370
VWidth: 1000
Flags: W
VStem: 27.8115 324.4
LayerCount: 2
Back
SplineSet
98.8828 -51.043 m 2
 95.3018 -61.4434 91.7832 -65.5205 86.6982 -68 c 0
 81.6143 -70.4795 76.2363 -70.7432 65.835 -67.1621 c 2
 48.8154 -61.3018 l 2
 38.415 -57.7197 34.3379 -54.2012 31.8584 -49.1172 c 0
 29.3789 -44.0322 29.1152 -38.6543 32.6963 -28.2529 c 2
 266.514 651.043 l 2
 270.095 661.443 273.613 665.521 278.698 668 c 0
 283.782 670.479 289.162 670.743 299.562 667.162 c 2
 316.581 661.302 l 2
 326.981 657.72 331.059 654.201 333.538 649.117 c 0
 336.018 644.032 336.281 638.654 332.7 628.253 c 2
 98.8828 -51.043 l 2
EndSplineSet
Fore
SplineSet
128.348 -41.8213 m 2
 122.977 -57.4219 117.699 -63.5371 110.071 -67.2568 c 0
 102.445 -70.9766 94.3779 -71.3721 78.7764 -66 c 2
 53.2471 -57.21 l 2
 37.6465 -51.8359 31.5312 -46.5586 27.8115 -38.9326 c 0
 24.0928 -31.3047 23.6963 -23.2383 29.0684 -7.63574 c 2
 251.676 640.611 l 2
 257.047 656.211 262.324 662.328 269.954 666.047 c 0
 277.58 669.766 285.647 670.161 301.25 664.79 c 2
 326.776 656 l 2
 342.378 650.627 348.495 645.349 352.212 637.723 c 0
 355.932 630.095 356.326 622.027 350.957 606.427 c 2
 128.348 -41.8213 l 2
EndSplineSet
EndChar

StartChar: zero
Encoding: 48 48 14
Width: 520
VWidth: 1000
Flags: W
HStem: -8 100.009<207.382 322.618> 507.991 100.009<207.382 322.618>
VStem: 50 105.007<158.959 441.041> 374.993 105.007<158.959 441.041>
LayerCount: 2
Back
SplineSet
155.006 300 m 0
 155.006 245.589 161.672 192.056 177.967 154.318 c 0
 195.744 113.071 220.928 92.0088 255 92.0088 c 0
 289.072 92.0088 314.256 113.071 332.033 154.318 c 0
 348.328 192.056 354.994 245.589 354.994 300 c 0
 354.994 354.411 348.328 407.944 332.033 445.682 c 0
 314.256 486.929 289.072 507.991 255 507.991 c 0
 220.928 507.991 195.744 486.929 177.967 445.682 c 0
 161.672 407.944 155.006 354.411 155.006 300 c 0
460 300 m 0
 460 219 446 141 414 87 c 0
 377 25 318 -8 255 -8 c 0
 192 -8 133 25 96 87 c 0
 64 141 50 219 50 300 c 0
 50 381 64 459 96 513 c 0
 133 575 192 608 255 608 c 0
 318 608 377 575 414 513 c 0
 446 459 460 381 460 300 c 0
EndSplineSet
Fore
SplineSet
155.007 300 m 0
 155.007 245.589 162.339 192.056 180.264 154.318 c 0
 199.818 113.071 227.521 92.0088 265 92.0088 c 0
 302.479 92.0088 330.182 113.071 349.736 154.318 c 0
 367.661 192.056 374.993 245.589 374.993 300 c 0
 374.993 354.411 367.661 407.944 349.736 445.682 c 0
 330.182 486.929 302.479 507.991 265 507.991 c 0
 227.521 507.991 199.818 486.929 180.264 445.682 c 0
 162.339 407.944 155.007 354.411 155.007 300 c 0
480 300 m 0
 480 219 465.317 141 431.756 87 c 0
 392.951 25 331.073 -8 265 -8 c 0
 198.927 -8 137.049 25 98.2441 87 c 0
 64.6826 141 50 219 50 300 c 0
 50 381 64.6826 459 98.2441 513 c 0
 137.049 575 198.927 608 265 608 c 0
 331.073 608 392.951 575 431.756 513 c 0
 465.317 459 480 381 480 300 c 0
EndSplineSet
EndChar

StartChar: one
Encoding: 49 49 15
Width: 378
VWidth: 1000
Flags: W
HStem: 0 21G<223.75 267.25> 580 20G<222.25 267.25>
VStem: 193 105<9.28238 417.623>
LayerCount: 2
Back
SplineSet
159 475 m 2
 110 424 l 2
 102 416 97 414 92 414 c 0
 86 414 81 416 73 423 c 2
 60 436 l 2
 52 444 50 448 50 454 c 0
 50 460 52 465 60 473 c 2
 173 590 l 2
 180 597 187 600 200 600 c 2
 218 600 l 2
 229 600 234 598 238 594 c 0
 242 590 244 585 244 574 c 2
 244 26 l 2
 244 15 242 10 238 6 c 0
 234 2 229 0 218 0 c 2
 200 0 l 2
 189 0 184 2 180 6 c 0
 176 10 174 15 174 26 c 2
 174 470 l 2
 174 475 172.244 477.667 169.182 478.454 c 0
 166 479.272 163 479 159 475 c 2
EndSplineSet
Fore
SplineSet
170.5 412.5 m 2
 120 360 l 2
 108 348 100.5 345 93 345 c 0
 84 345 76.5 348 64.5 358.5 c 2
 45 378 l 2
 33 390 30 396 30 405 c 0
 30 414 33 421.5 45 433.5 c 2
 191.5 585 l 2
 202 595.5 212.5 600 232 600 c 2
 259 600 l 2
 275.5 600 283 597 289 591 c 0
 295 585 298 577.5 298 561 c 2
 298 39 l 2
 298 22.5 295 15 289 9 c 0
 283 3 275.5 0 259 0 c 2
 232 0 l 2
 215.5 0 208 3 202 9 c 0
 196 15 193 22.5 193 39 c 2
 193 405 l 2
 193 412.5 190.366 416.5 185.773 417.681 c 0
 181 418.908 176.5 418.5 170.5 412.5 c 2
EndSplineSet
EndChar

StartChar: two
Encoding: 50 50 16
Width: 481
VWidth: 1000
Flags: W
HStem: 0 105<209.763 431.826> 502 104.995<182.215 311.999>
VStem: 334.489 104.619<351.92 478.278>
LayerCount: 2
Back
SplineSet
53.1094 467 m 0
 82.7764 554 143.815 606.995 249.857 606.995 c 0
 310.576 606.995 356.609 586.5 390.508 552.545 c 0
 421.287 521.715 439.109 478.401 439.109 430.998 c 0
 439.109 370.095 424.14 327.204 386.792 281 c 0
 355.22 241.941 313.109 209 272.109 176.5 c 0
 248.121 157.484 225.109 134 210.025 117.5 c 0
 203.507 110.37 206.859 105 213.325 105 c 2
 402.109 105 l 2
 418.609 105 426.109 102 432.109 96 c 0
 438.109 90 441.109 82.5 441.109 66 c 2
 441.109 39 l 2
 441.109 22.5 438.109 15 432.109 9 c 0
 426.109 3 418.609 0 402.109 0 c 2
 90.3223 0 l 2
 73.8223 0 66.3223 3 60.3223 9 c 0
 54.3223 15 51.3223 23 51.3223 39 c 0
 51.3223 58.5 56.1094 80.5 65.8711 98 c 0
 81.9473 126.82 102.73 153.93 125.586 180 c 8
 175.963 237.46 232.609 276 271.35 310.939 c 0
 309.47 345.319 334.49 371.855 334.49 422.325 c 0
 334.49 472.795 296.258 502 245.109 502 c 0
 199.619 502 169.859 475.25 155.359 439.561 c 0
 149.402 424.899 145.421 417.417 138.073 413.175 c 0
 130.725 408.934 122.704 407.978 106.767 412.247 c 2
 80.6865 419.235 l 2
 64.748 423.506 58.2803 428.346 54.0381 435.693 c 0
 49.7949 443.043 48.0156 452.063 53.1094 467 c 0
EndSplineSet
Fore
SplineSet
53.1094 467 m 4
 82.7764 554 143.814 606.995 249.856 606.995 c 4
 310.575 606.995 356.608 586.5 390.508 552.545 c 4
 421.287 521.715 439.108 478.401 439.108 430.998 c 4
 439.108 370.095 424.14 327.204 386.792 281 c 4
 355.22 241.941 310.043 211.672 270 178 c 4
 248 159.5 225 138 210.024 117.5 c 4
 204.326 109.699 206.858 105 213.324 105 c 6
 402.108 105 l 6
 418.608 105 426.108 102 432.108 96 c 4
 438.108 90 441.108 82.5 441.108 66 c 6
 441.108 39 l 6
 441.108 22.5 438.108 15 432.108 9 c 4
 426.108 3 418.608 0 402.108 0 c 6
 90.3223 0 l 6
 73.8223 0 66.3223 3 60.3223 9 c 4
 54.3223 15 51.3223 23 51.3223 39 c 4
 51.3223 58.5 56.4902 80.293 65.8711 98 c 4
 81.5 127.5 101.683 155.896 124.5 182 c 4
 183.5 249.5 232.608 276 271.35 310.939 c 4
 309.47 345.319 334.489 371.855 334.489 422.325 c 4
 334.489 472.795 296.258 502 245.108 502 c 4
 199.619 502 169.858 475.25 155.358 439.561 c 4
 149.401 424.899 145.421 417.417 138.072 413.175 c 4
 130.725 408.934 122.704 407.978 106.767 412.247 c 6
 80.6865 419.235 l 6
 64.748 423.506 58.2803 428.346 54.0381 435.693 c 4
 49.7949 443.043 48.0156 452.062 53.1094 467 c 4
EndSplineSet
EndChar

StartChar: three
Encoding: 51 51 17
Width: 534
VWidth: 1000
Flags: W
HStem: -7 101<164.344 337.718> 495 105<87.2375 277.353>
VStem: 390.312 104.239<144.784 280.511>
LayerCount: 2
Back
SplineSet
382.951 398.726 m 0
 450.455 360.5 499.551 308.524 499.551 218.75 c 0
 499.551 150.725 476.192 95.2275 438.125 58.2305 c 0
 390.455 11.8994 330.605 -7 256.055 -7 c 0
 176.818 -7 112.159 17.9219 64.8506 65.4492 c 0
 53.1816 77.1162 50 84.54 50 93.0264 c 0
 50.002 101.511 53.1836 108.935 64.8486 120.604 c 2
 83.9414 139.694 l 2
 95.6094 151.361 103.033 154.543 111.52 154.543 c 0
 120.005 154.543 126.766 150.658 139.097 139.696 c 0
 170.419 110.897 206.959 94 259.304 94 c 0
 330.789 94 395.313 137 395.313 217.12 c 0
 395.313 270 355.955 304 317.955 319.5 c 0
 307.378 323.814 299.351 321.436 291.455 310.5 c 2
 272.388 284.09 l 2
 262.923 270.575 256.164 266.151 247.808 264.679 c 0
 239.452 263.206 231.588 265.049 218.071 274.515 c 2
 195.955 290 l 2
 182.439 299.464 178.016 306.223 176.541 314.581 c 0
 175.069 322.938 176.913 330.8 186.377 344.316 c 2
 280.959 478.002 l 2
 284.065 482.438 284.186 487.024 282.458 490 c 0
 280.228 493.847 276.765 495 271.208 495 c 2
 121.954 495 l 2
 105.455 495 97.9551 498 91.9551 504 c 0
 85.9551 510 82.9551 517.5 82.9551 534 c 10
 82.9551 561 l 22
 82.9551 577.5 85.9551 585 91.9551 591 c 0
 97.9551 597 105.455 600 121.954 600 c 2
 425.955 600 l 2
 449.473 600 457.712 593.093 461.958 584.1 c 0
 467.06 573.3 464.792 557.499 455.059 543.599 c 2
 374.955 430 l 2
 365.804 417.115 369.325 406.441 382.951 398.726 c 0
EndSplineSet
Fore
SplineSet
420.955 600 m 2
 444.473 600 452.712 593.093 456.958 584.1 c 0
 462.06 573.3 459.829 557.473 450.059 543.599 c 2
 370.254 430.274 l 2
 361.103 417.39 364.507 406.505 378.25 399 c 0
 413.5 379.75 445 355.167 464.333 325.5 c 0
 485.538 292.961 494.551 260.667 494.551 216.667 c 0
 494.551 153 469.753 98.792 433.25 60.25 c 0
 388.5 13 325.605 -7 251.055 -7 c 0
 171.818 -7 107.159 17.9219 59.8506 65.4492 c 0
 48.1816 77.1162 45 84.54 45 93.0264 c 0
 45.002 101.511 48.1836 108.935 59.8486 120.604 c 2
 78.9414 139.694 l 2
 90.6094 151.361 98.0332 154.543 106.52 154.543 c 0
 115.005 154.543 121.766 150.658 134.097 139.696 c 0
 165.419 110.897 201.959 94 254.304 94 c 0
 325.789 94 390.312 137 390.312 217.12 c 0
 390.312 270 350.955 304 312.955 319.5 c 0
 302.378 323.814 294.351 321.436 286.455 310.5 c 2
 267.388 284.09 l 2
 257.923 270.575 251.164 266.151 242.808 264.679 c 0
 234.452 263.206 226.588 265.049 213.071 274.515 c 2
 190.955 290 l 2
 177.439 299.464 173.016 306.223 171.541 314.581 c 0
 170.069 322.938 171.913 330.8 181.377 344.316 c 2
 275.959 478.002 l 2
 279.065 482.438 279.186 487.024 277.458 490 c 0
 275.228 493.847 271.765 495 266.208 495 c 2
 116.954 495 l 2
 100.455 495 92.9551 498 86.9551 504 c 0
 80.9551 510 77.9551 517.5 77.9551 534 c 10
 77.9551 561 l 18
 77.9551 577.5 80.9551 585 86.9551 591 c 0
 92.9551 597 100.455 600 116.954 600 c 2
 420.955 600 l 2
EndSplineSet
EndChar

StartChar: four
Encoding: 52 52 18
Width: 530
VWidth: 1000
Flags: W
HStem: 0 21G<352.5 396> 152 100<185.925 321.994 427.002 500.718> 497.74 103.26<263.05 322.077>
VStem: 322.082 104.918<9.28201 151.997 252.003 497.257>
LayerCount: 2
Back
SplineSet
196 277 m 4
 190 264 196 256 208 256 c 6
 307 256 l 6
 319 256 322 260 322 272 c 6
 322 478 l 6
 322 490 316 494 306 493 c 4
 288 493 273 482 261 465 c 20
 243 436 232 394 222 352 c 4
 216 323 207 299 196 277 c 4
53 259 m 0
 67 270 82 288 92 310 c 16
 116 362 118 414 152 483 c 0
 168 515 190 546 223 570 c 0
 259 596 306 601 340 601 c 0
 367 601 406 601 418 590 c 0
 424 584 427 576 427 560 c 2
 427 272 l 2
 427 260 430 256 442 256 c 2
 471 256 l 2
 488 256 495 254 501 248 c 0
 507 242 510 234 510 218 c 2
 510 190 l 2
 510 174 507 166 501 160 c 0
 495 154 488 152 471 152 c 2
 442 152 l 2
 430 152 427 148 427 136 c 2
 427 39 l 2
 427 22 424 15 418 9 c 0
 412 3 404 0 388 0 c 2
 361 0 l 2
 344 0 337 3 331 9 c 0
 325 15 322 22 322 39 c 2
 322 136 l 2
 322 148 319 152 307 152 c 2
 69 152 l 2
 52 152 45 154 39 160 c 0
 33 166 30 174 30 190 c 2
 30 219 l 2
 30 236 40 247 53 259 c 0
EndSplineSet
Fore
SplineSet
258.031 469.18 m 16
 239.132 439.601 224.5 396.5 215.082 353.92 c 0
 208.847 325.73 197 296.5 184.781 273.42 c 0
 177.913 260.446 184.781 252 197.382 252 c 2
 306.332 252 l 2
 318.932 252 322.082 256.08 322.082 268.32 c 2
 322.082 482.44 l 2
 322.082 494.68 315.781 498.76 305.281 497.74 c 0
 286.382 497.74 269.624 487.325 258.031 469.18 c 16
53 259 m 0
 67 270 81.5068 287.266 92 310 c 16
 116 362 118 414 152 483 c 0
 168 515 190 546 223 570 c 0
 259 596 306 601 340 601 c 0
 367 601 406 601 418 590 c 0
 424 584 427 576 427 560 c 2
 427 268 l 2
 427 256 430 252 442 252 c 2
 471 252 l 2
 488 252 495 250 501 244 c 0
 507 238 510 230 510 214 c 2
 510 190 l 2
 510 174 507 166 501 160 c 0
 495 154 488 152 471 152 c 2
 442 152 l 2
 430 152 427 148 427 136 c 2
 427 39 l 2
 427 22 424 15 418 9 c 0
 412 3 404 0 388 0 c 2
 361 0 l 2
 344 0 337 3 331 9 c 0
 325 15 322 22 322 39 c 2
 322 136 l 2
 322 148 319 152 307 152 c 2
 69 152 l 2
 52 152 45 154 39 160 c 0
 33 166 30 174 30 190 c 2
 30 219 l 2
 30 236 40 247 53 259 c 0
EndSplineSet
EndChar

StartChar: five
Encoding: 53 53 19
Width: 503
VWidth: 1000
Flags: W
HStem: -7.39941 102.871<171.394 322.362> 312.5 102.2<197.953 325.935> 495 105<205.969 437.848>
VStem: 361.034 102.684<135.382 276.234>
LayerCount: 2
Back
SplineSet
115.442 259 m 2
 104.004 261.517 l 2
 85.6758 265.079 79.4824 271.669 83.4434 292 c 2
 139.692 580.5 l 2
 143.08 597.87 151.71 600 165.442 600 c 2
 378.442 600 l 2
 398.131 600 404.442 592.417 404.442 574 c 2
 404.442 556 l 2
 404.442 536.312 396.859 530 378.442 530 c 2
 223.441 530 l 2
 207.733 530 201.032 525.357 198.442 515 c 1
 174.442 392 l 2
 173.011 384.784 179.35 381.596 183.942 383.5 c 16
 204.442 392 226.442 395 255.442 395 c 0
 297.123 395 331.964 385.259 359.942 367.724 c 0
 416.942 332 445.442 281.816 445.442 192.5 c 0
 445.442 82.376 367.442 -7 239.442 -7 c 0
 155.442 -7 97.5059 32.6064 57.4434 81 c 8
 48.2988 92.0459 45.6748 105.065 60.6475 117.63 c 2
 74.4355 129.2 l 2
 90.582 142.747 101.846 136.979 111.065 125.995 c 16
 140.442 91 184.442 63 245.442 63 c 0
 331.086 63 375.609 126.883 375.609 203.697 c 0
 375.609 280.729 324.648 329 254.942 329 c 0
 206.442 329 168.775 314.667 153.111 281.666 c 0
 144.992 264.562 136.274 254.417 115.442 259 c 2
EndSplineSet
Fore
SplineSet
210.568 411.25 m 0
 227.818 413.5 245.318 414.7 264.218 414.7 c 0
 307.982 414.7 344.565 404.473 373.942 386.061 c 0
 433.793 348.551 463.718 295.857 463.718 202.075 c 0
 463.718 86.4453 381.817 -7.39941 247.418 -7.39941 c 0
 162.688 -7.39941 103.162 30.9336 61.3203 79 c 8
 47.1973 95.2246 43.666 115.099 66.126 133.945 c 2
 86.8076 151.3 l 2
 111.024 171.622 123.621 162.216 137.318 148 c 16
 163.818 120.5 197.318 95.4717 253.318 95.4717 c 0
 318.318 95.4717 361.034 143.5 361.034 210.28 c 0
 361.034 270.956 316.818 312.5 254.818 312.5 c 0
 218.229 312.5 189.318 304 163.318 275.5 c 0
 150.221 261.142 138.964 250.076 114.316 255.5 c 2
 97.1602 259.275 l 2
 69.668 264.618 60.3779 274.504 66.3193 305 c 2
 117.694 570.75 l 2
 122.776 596.805 135.723 600 156.319 600 c 2
 400.318 600 l 2
 429.853 600 439.318 588.625 439.318 561 c 2
 439.318 534 l 2
 439.318 504.468 427.943 495 400.318 495 c 2
 243.317 495 l 2
 219.757 495 208.897 488.215 205.819 472.5 c 2
 196.318 424 l 2
 194.213 413.168 198.225 409.64 210.568 411.25 c 0
EndSplineSet
EndChar

StartChar: six
Encoding: 54 54 20
Width: 519
VWidth: 1000
Flags: W
HStem: -1.04883 95.5752<192.963 338.565> 307.917 98.466<193.972 335.128> 501 104.733<268.902 418.895>
VStem: 50 105.939<131.394 269.752> 374.762 104.62<130.292 270.034>
LayerCount: 2
Back
SplineSet
211.584 403.49 m 0
 230.676 409.637 250.645 412.683 271.407 412.683 c 0
 399.394 412.683 479.382 333.061 479.382 202.667 c 0
 479.382 68.0107 385.352 -7.34961 261.957 -7.34961 c 0
 198.043 -7.34961 139.199 21.4355 103.933 65.625 c 0
 60.3574 120.225 50 176.937 50 266.187 c 0
 52.2207 364.906 80.8975 467.86 163.357 534.5 c 0
 224.035 583.536 294.344 602.324 378.856 605.733 c 0
 407.358 606.884 418.699 597.802 421.107 570.282 c 2
 423.461 543.384 l 2
 426.035 513.966 413.412 502.697 382.857 501 c 0
 328.857 498 272.777 488.199 236.377 459.399 c 0
 220.769 447.05 208.601 433.126 199.434 418.363 c 0
 192.039 406.454 198.163 399.17 211.584 403.49 c 0
158.953 202.419 m 0
 158.953 138.929 199.627 94.5244 266.857 94.5244 c 0
 330.353 94.5244 374.762 136.972 374.762 202.419 c 0
 374.762 230.645 367.568 258.416 349.983 277.991 c 0
 330.801 299.388 303.625 314.464 266.857 314.464 c 0
 230.09 314.464 202.914 299.388 183.731 277.991 c 0
 166.146 258.416 158.953 230.645 158.953 202.419 c 0
EndSplineSet
Fore
SplineSet
199.337 391.337 m 4
 221.187 400.913 246 406.383 271.407 406.383 c 4
 399.394 406.383 479.382 329.149 479.382 202.667 c 0
 479.382 72.0508 385.352 -1.04883 261.957 -1.04883 c 0
 198.043 -1.04883 139.199 26.8721 103.933 69.7363 c 0
 60.3574 122.698 50 177.709 50 264.281 c 0
 52.2207 360.039 80.8975 467.86 163.357 534.5 c 0
 224.035 583.536 294.344 602.324 378.856 605.733 c 0
 407.358 606.884 418.699 597.802 421.107 570.282 c 2
 423.461 543.384 l 2
 426.035 513.966 413.428 502.382 382.857 501 c 0
 316.5 498 266.5 483.5 226.943 454.036 c 4
 210.982 442.147 194.333 423.667 185.5 404 c 4
 179.756 391.212 186.487 385.705 199.337 391.337 c 4
266.001 307.917 m 0
 228.499 307.917 200.779 293.29 181.213 272.53 c 0
 163.276 253.538 155.939 226.594 155.939 199.208 c 0
 155.939 137.608 197.427 94.5264 266.001 94.5264 c 0
 330.768 94.5264 374.762 135.71 374.762 199.208 c 0
 374.762 226.594 367.568 253.538 349.983 272.53 c 0
 330.801 293.29 303.505 307.917 266.001 307.917 c 0
EndSplineSet
EndChar

StartChar: seven
Encoding: 55 55 21
Width: 465
VWidth: 1000
Flags: W
HStem: 0 21G<172.419 214.044> 495 105<39.2824 315.017>
VStem: 141.672 94.1221<9.28553 98.8739>
LayerCount: 2
Back
SplineSet
339.5 502 m 4
 349.079 518.681 339.5 530 325 530 c 2
 76 530 l 2
 65 530 60 532 56 536 c 0
 52 540 50 545 50 556 c 2
 50 574 l 2
 50 585 52 590 56 594 c 0
 60 598 65 600 76 600 c 2
 404 600 l 2
 415 600 420 598 424 594 c 0
 428 590 430 585 430 574 c 2
 430 556 l 2
 430 545 423.68 518.724 413 497.5 c 20
 363.747 399.617 308.368 314.885 268.573 218 c 4
 239 146 220 91.5 212 26 c 12
 210.994 17.7646 208.75 10 204.75 6 c 0
 200.75 2 195.75 0 184.75 0 c 2
 168 0 l 2
 157 0 152 2 148 6 c 0
 144 10 141.277 17.8887 142 26 c 20
 155 172 239 327 339.5 502 c 4
EndSplineSet
Fore
SplineSet
419.5 446.25 m 16
 377.889 369 334.792 297.657 302.072 218 c 0
 274.474 150.805 255.503 98.8779 246.668 39.001 c 8
 244.852 26.6895 241.794 15 235.794 9 c 0
 229.794 3 222.294 0 205.794 0 c 2
 180.669 0 l 2
 164.169 0 156.669 3 150.669 9 c 0
 144.669 15 140.249 26.8682 141.672 39 c 16
 156.723 167.368 224.494 302.912 309.25 453 c 0
 323.618 478.021 309.25 495 287.5 495 c 2
 69 495 l 2
 52.5 495 45 498 39 504 c 0
 33 510 30 517.5 30 534 c 2
 30 561 l 2
 30 577.5 33 585 39 591 c 0
 45 597 52.5 600 69 600 c 2
 406 600 l 2
 422.5 600 430 597 436 591 c 0
 442 585 445 577.5 445 561 c 2
 445 534 l 2
 445 517.5 436.4 477.626 419.5 446.25 c 16
EndSplineSet
EndChar

StartChar: eight
Encoding: 56 56 22
Width: 532
VWidth: 1000
Flags: HW
HStem: -7 99.7256<187.417 353.744> 284.273 90.4883<206.226 332.754> 514.537 93.4629<205.531 333.449>
VStem: 50 103.562<125.902 246.945> 83.3105 101.315<396.878 493.391> 354.354 101.316<396.4 493.391> 389.416 103.564<126.787 246.757>
LayerCount: 2
Back
SplineSet
411.479 351.841 m 4
 407.592 348.043 407.795 344.166 412.686 340.764 c 4
 459.76 308.856 492.98 256.263 492.98 193.09 c 4
 492.98 126.75 471.58 79.6699 426.641 42.2197 c 4
 385.98 7.97949 330.34 -7 271.49 -7 c 4
 212.641 -7 157 7.97949 116.34 42.2197 c 4
 71.4004 79.6699 50 126.75 50 193.09 c 4
 50 257.1 80.3652 308.822 127.853 341.31 c 4
 131.993 344.167 132.02 347.401 128.629 350.8 c 4
 100.218 378.956 83.3105 415.401 83.3105 456.06 c 4
 83.3105 504.21 106.851 548.08 145.37 574.83 c 4
 178.54 597.3 222.41 608 269.49 608 c 4
 316.57 608 360.44 597.3 393.61 574.83 c 4
 432.13 548.08 455.67 504.21 455.67 456.06 c 4
 455.67 416.059 438.971 379.724 411.479 351.841 c 4
269.49 374.8 m 4
 316.69 374.8 352.69 405.2 352.69 442.8 c 4
 352.69 480.4 316.69 509.2 269.49 509.2 c 4
 222.29 509.2 186.29 480.4 186.29 442.8 c 4
 186.29 405.2 222.29 374.8 269.49 374.8 c 4
271.49 284.266 m 4
 207.354 284.266 155.876 245.466 155.876 190.37 c 4
 155.876 130.074 201.585 96.4736 271.49 96.4736 c 4
 338.456 96.4736 387.104 130.074 387.104 190.37 c 4
 387.104 245.466 335.627 284.266 271.49 284.266 c 4
EndSplineSet
Fore
SplineSet
411.479 351.841 m 0xec
 407.592 348.043 407.795 344.166 412.686 340.764 c 0
 459.76 308.856 492.98 256.263 492.98 193.09 c 0
 492.98 126.75 471.58 79.6699 426.641 42.2197 c 0
 385.98 7.97949 330.34 -7 271.49 -7 c 0
 212.641 -7 157 7.97949 116.34 42.2197 c 0
 71.4004 79.6699 50 126.75 50 193.09 c 0xf2
 50 257.1 80.3652 308.822 127.853 341.31 c 0
 131.993 344.167 132.02 347.401 128.629 350.8 c 0
 100.218 378.956 83.3105 415.401 83.3105 456.06 c 0
 83.3105 504.21 106.851 548.08 145.37 574.83 c 0
 178.54 597.3 222.41 608 269.49 608 c 0
 316.57 608 360.44 597.3 393.61 574.83 c 0
 432.13 548.08 455.67 504.21 455.67 456.06 c 0
 455.67 416.059 438.971 379.724 411.479 351.841 c 0xec
269.49 374.762 m 0
 317.634 374.762 354.354 406.377 354.354 445.481 c 0
 354.354 484.585 317.634 514.537 269.49 514.537 c 0
 221.346 514.537 184.626 484.585 184.626 445.481 c 0xec
 184.626 406.377 221.346 374.762 269.49 374.762 c 0
271.49 284.273 m 0
 206.07 284.273 153.562 244.698 153.562 188.5 c 0
 153.562 126.998 200.186 92.7256 271.49 92.7256 c 0
 339.795 92.7256 389.416 126.998 389.416 188.5 c 0xf2
 389.416 244.698 336.91 284.273 271.49 284.273 c 0
EndSplineSet
EndChar

StartChar: nine
Encoding: 57 57 23
Width: 519
VWidth: 1000
Flags: HW
HStem: -5.34277 104.819<103.971 262.981> 192.118 98.4336<192.031 335.45> 503.893 101.817<190.465 336.497>
VStem: 50 104.62<326.822 467.457> 373.442 104.972<328.857 467.07>
LayerCount: 2
Back
SplineSet
314.3 193.982 m 0
 296.24 188.514 277.452 185.804 258.004 185.804 c 0
 131.817 185.804 50 266.976 50 393.958 c 0
 50 531.594 144.138 605.685 265.859 605.685 c 0
 337.327 605.685 392.249 576.135 427.831 529.918 c 0
 467.604 478.26 478.414 425.269 478.414 345.891 c 0
 478.414 239 447.672 130.327 360.232 62.1514 c 0
 297.754 13.4375 227.917 -5.34277 140.806 -5.34277 c 0
 114.29 -5.34277 103.762 4.20801 101.897 30.873 c 2
 100.014 57.8086 l 2
 98.0312 86.1475 110.06 98.2861 141.351 99.4766 c 0
 195.395 101.534 251.637 110.354 288.534 138.515 c 0
 304.356 150.59 316.766 164.299 326.188 178.899 c 0
 332.967 189.401 327.459 197.967 314.3 193.982 c 0
370.454 396.674 m 0
 370.454 459.372 329.494 503.888 261.962 503.888 c 0
 199.15 503.888 154.631 462.131 154.632 394.996 c 0
 154.632 367.764 161.457 341.081 178.111 321.878 c 0
 197.4 299.594 224.296 283.939 262.911 283.939 c 0
 298.51 283.939 325.199 298.364 344.338 318.977 c 0
 363.09 339.133 370.454 365.85 370.454 396.674 c 0
EndSplineSet
Fore
SplineSet
265.859 605.71 m 0
 337.327 605.71 392.249 576.604 427.831 531.079 c 0
 467.604 480.196 478.414 428 478.414 349.812 c 0
 478.414 244.525 447.672 130.327 360.232 62.1514 c 0
 297.754 13.4375 227.917 -5.34277 140.806 -5.34277 c 0
 114.29 -5.34277 103.762 4.20801 101.897 30.873 c 2
 100.014 57.8086 l 2
 98.0312 86.1475 110.058 98.3428 141.351 99.4766 c 0
 211 102 261.584 115.392 301.707 146.591 c 0
 320.667 161.333 334.333 176.333 343.914 194.501 c 0
 350.453 206.901 342.927 212.796 330.077 207.164 c 0
 308.228 197.588 283.414 192.118 258.007 192.118 c 0
 131.817 192.127 50 272.081 50 397.158 c 0
 50 532.73 144.138 605.71 265.859 605.71 c 0
263.381 290.552 m 0
 300.883 290.552 328.603 305.176 348.169 325.931 c 0
 366.105 344.919 373.442 371.856 373.442 399.235 c 0
 373.442 460.821 331.955 503.893 263.381 503.893 c 0
 198.614 503.893 154.62 462.719 154.62 399.235 c 0
 154.62 371.855 161.814 344.919 179.399 325.931 c 0
 198.581 305.175 225.877 290.552 263.381 290.552 c 0
EndSplineSet
EndChar

StartChar: colon
Encoding: 58 58 24
Width: 239
VWidth: 1000
Flags: HW
HStem: -10.999 172.805<50.2675 159.273> 342.195 172.805<50.2675 159.273>
VStem: 37.2998 135.021<1.52905 149.278 354.723 502.471>
LayerCount: 2
Back
SplineSet
140.014 393.998 m 0
 140.014 373.665 138.779 361.479 133.806 351.5 c 0
 125.527 334.892 110.951 329.996 95.0068 329.996 c 0
 78.1895 329.997 64.3477 335.169 56.208 351.5 c 0
 51.2344 361.479 50 373.665 50 393.998 c 0
 50 414.755 51.2344 426.518 56.208 436.496 c 0
 64.3477 452.827 78.1895 457.999 95.0068 458 c 0
 110.951 458 125.527 453.104 133.806 436.496 c 0
 138.779 426.518 140.014 415.102 140.014 393.998 c 0
140.014 53 m 0
 140.014 32.667 138.779 20.4805 133.806 10.502 c 0
 125.527 -6.10645 110.951 -11.002 95.0068 -11.002 c 0
 78.1895 -11.001 64.3477 -5.8291 56.208 10.502 c 0
 51.2344 20.4805 50 32.667 50 53 c 0
 50 73.7568 51.2344 85.5195 56.208 95.498 c 0
 64.3477 111.829 78.1895 117.001 95.0068 117.002 c 0
 110.951 117.002 125.527 112.106 133.806 95.498 c 0
 138.779 85.5195 140.014 74.1035 140.014 53 c 0
EndSplineSet
Fore
SplineSet
169.621 428.597 m 4
 169.621 401.148 167.843 384.696 160.681 371.225 c 4
 148.759 348.803 127.77 342.195 104.81 342.195 c 4
 80.5928 342.196 60.6611 349.178 48.9395 371.225 c 4
 41.7773 384.696 40 401.148 40 428.597 c 4
 40 456.619 41.7773 472.499 48.9395 485.969 c 4
 60.6611 508.016 80.5928 514.999 104.81 515 c 4
 127.77 515 148.759 508.39 160.681 485.969 c 4
 167.843 472.499 169.621 457.087 169.621 428.597 c 4
169.621 75.4033 m 4
 169.621 47.9541 167.843 31.502 160.681 18.0312 c 4
 148.759 -4.39062 127.77 -10.999 104.81 -10.999 c 4
 80.5928 -10.998 60.6611 -4.01562 48.9395 18.0312 c 4
 41.7773 31.502 40 47.9541 40 75.4033 c 4
 40 103.425 41.7773 119.305 48.9395 132.775 c 4
 60.6611 154.822 80.5928 161.805 104.81 161.806 c 4
 127.77 161.806 148.759 155.196 160.681 132.775 c 4
 167.843 119.305 169.621 103.893 169.621 75.4033 c 4
EndSplineSet
EndChar

StartChar: semicolon
Encoding: 59 59 25
Width: 303
VWidth: 1000
Flags: HW
HStem: 342.195 172.805<108.601 217.607>
VStem: 95.6337 135.021<120.5 162.571 354.723 502.471>
LayerCount: 2
Back
SplineSet
233.616 428.597 m 0
 233.616 401.148 231.764 384.696 224.304 371.225 c 0
 211.885 348.803 190.021 342.195 166.104 342.195 c 0
 140.879 342.196 120.116 349.178 107.906 371.225 c 0
 100.445 384.696 98.5947 401.148 98.5947 428.597 c 0
 98.5947 456.619 100.445 472.499 107.906 485.969 c 0
 120.116 508.016 140.879 514.999 166.104 515 c 0
 190.021 515 211.885 508.39 224.304 485.969 c 0
 231.764 472.499 233.616 457.087 233.616 428.597 c 0
97.166 126.5 m 2
 105.886 156.516 122.854 170 155.104 170 c 2
 204.604 170 l 2
 237.604 170 247.01 156.283 232.166 120.5 c 2
 156.354 -62.25 l 2
 145.295 -88.9092 130.854 -96 109.104 -96 c 2
 66.3545 -96 l 2
 40.1045 -96 36.3975 -82.666 43.8545 -57 c 2
 97.166 126.5 l 2
EndSplineSet
Fore
SplineSet
227.955 428.597 m 0
 227.955 401.148 226.177 384.696 219.015 371.225 c 0
 207.093 348.803 186.104 342.195 163.144 342.195 c 0
 138.927 342.196 118.995 349.178 107.273 371.225 c 0
 100.11 384.696 98.334 401.148 98.334 428.597 c 0
 98.334 456.619 100.11 472.499 107.273 485.969 c 0
 118.995 508.016 138.927 514.999 163.144 515 c 0
 186.104 515 207.093 508.39 219.015 485.969 c 0
 226.177 472.499 227.955 457.087 227.955 428.597 c 0
96.7051 126.5 m 2
 105.425 156.516 122.394 170 154.644 170 c 2
 199.144 170 l 2
 232.144 170 241.549 156.283 226.705 120.5 c 2
 150.894 -62.25 l 2
 139.834 -88.9092 125.394 -96 103.644 -96 c 2
 65.8936 -96 l 2
 39.6436 -96 35.9365 -82.666 43.3936 -57 c 2
 96.7051 126.5 l 2
EndSplineSet
EndChar

StartChar: less
Encoding: 60 60 26
Width: 430
VWidth: 1000
Flags: W
VStem: 35.458 163.969<269.36 342.934>
LayerCount: 2
Fore
SplineSet
215.69 273.406 m 2
 387.685 129.324 l 2
 400.199 118.573 404.142 111.6 404.88 103.146 c 0
 405.621 94.6934 403.097 87.0195 392.491 74.3799 c 2
 375.136 53.6982 l 2
 364.529 41.0576 357.411 37.2402 348.958 36.5 c 0
 340.504 35.7607 332.832 38.2852 320.191 48.8906 c 2
 51.7227 273.322 l 2
 39.082 283.929 35.458 294.082 35.458 306 c 0
 35.458 318.457 39.3525 328.258 51.9932 338.864 c 2
 319.771 564.257 l 2
 332.409 574.865 340.083 577.388 348.536 576.648 c 0
 356.989 575.909 364.107 572.092 374.714 559.451 c 2
 392.068 538.769 l 2
 402.676 526.129 405.199 518.454 404.458 510 c 0
 403.72 501.55 399.63 494.748 387.263 483.824 c 2
 215.961 338.954 l 2
 203.591 328.028 199.427 318.543 199.427 306.085 c 0
 199.427 294.168 203.174 284.159 215.69 273.406 c 2
EndSplineSet
EndChar

StartChar: equal
Encoding: 61 61 27
Width: 512
VWidth: 1000
Flags: W
HStem: 152 105<74.2824 447.718> 337 105<74.2824 447.718>
LayerCount: 2
Back
SplineSet
361 337 m 2
 76 337 l 2
 65 337 60 339 56 343 c 0
 52 347 50 352 50 363 c 2
 50 381 l 2
 50 392 52 397 56 401 c 0
 60 405 65 407 76 407 c 2
 361 407 l 2
 372 407 377 405 381 401 c 0
 385 397 387 392 387 381 c 2
 387 363 l 2
 387 352 385 347 381 343 c 0
 377 339 372 337 361 337 c 2
361 187 m 2
 76 187 l 2
 65 187 60 189 56 193 c 0
 52 197 50 202 50 213 c 2
 50 231 l 2
 50 242 52 247 56 251 c 0
 60 255 65 257 76 257 c 2
 361 257 l 2
 372 257 377 255 381 251 c 0
 385 247 387 242 387 231 c 2
 387 213 l 2
 387 202 385 197 381 193 c 0
 377 189 372 187 361 187 c 2
EndSplineSet
Fore
SplineSet
418 152 m 6
 104 152 l 2
 87.5 152 80 155 74 161 c 0
 68 167 65 174.5 65 191 c 2
 65 218 l 2
 65 234.5 68 242 74 248 c 0
 80 254 87.5 257 104 257 c 2
 418 257 l 6
 434.5 257 442 254 448 248 c 4
 454 242 457 234.5 457 218 c 6
 457 191 l 6
 457 174.5 454 167 448 161 c 4
 442 155 434.5 152 418 152 c 6
418 337 m 6
 104 337 l 2
 87.5 337 80 340 74 346 c 0
 68 352 65 359.5 65 376 c 2
 65 403 l 2
 65 419.5 68 427 74 433 c 0
 80 439 87.5 442 104 442 c 2
 418 442 l 6
 434.5 442 442 439 448 433 c 4
 454 427 457 419.5 457 403 c 6
 457 376 l 6
 457 359.5 454 352 448 346 c 4
 442 340 434.5 337 418 337 c 6
EndSplineSet
EndChar

StartChar: greater
Encoding: 62 62 28
Width: 430
VWidth: 1000
Flags: W
VStem: 241.031 163.969<269.36 342.934>
LayerCount: 2
Back
SplineSet
265.057 276.966 m 2
 273.402 284.135 275.9 290.807 275.9 298.752 c 0
 275.9 307.057 273.124 313.381 264.877 320.665 c 2
 51.624 501.117 l 2
 43.3789 508.4 40.6523 512.934 40.1602 518.568 c 0
 39.666 524.204 41.3486 529.32 48.4199 537.747 c 2
 59.9893 551.535 l 2
 67.0605 559.962 71.8057 562.507 77.4414 563 c 0
 83.0771 563.493 88.1924 561.811 96.6191 554.739 c 2
 374.189 320.605 l 2
 382.616 313.534 385.212 307 385.212 298.695 c 0
 385.212 290.75 382.796 283.981 374.369 276.91 c 2
 96.5391 44.8291 l 2
 88.1123 37.7588 82.9971 36.0762 77.3613 36.5693 c 0
 71.7256 37.0625 66.9805 39.6074 59.9092 48.0342 c 2
 48.3389 61.8223 l 2
 41.2686 70.249 39.5859 75.3643 40.0801 81 c 0
 40.5723 86.6357 43.2002 91.2842 51.5439 98.4521 c 2
 265.057 276.966 l 2
EndSplineSet
Fore
SplineSet
224.768 273.406 m 2
 237.284 284.159 241.031 294.168 241.031 306.085 c 0
 241.031 318.543 236.867 328.028 224.497 338.954 c 2
 53.1953 483.824 l 2
 40.8281 494.748 36.7383 501.55 36 510 c 0
 35.2588 518.454 37.7822 526.129 48.3896 538.769 c 2
 65.7441 559.451 l 2
 76.3506 572.092 83.4688 575.909 91.9219 576.648 c 0
 100.375 577.388 108.049 574.865 120.687 564.257 c 2
 388.465 338.864 l 2
 401.104 328.258 405 318.457 405 306 c 0
 405 294.082 401.376 283.929 388.733 273.322 c 2
 120.267 48.8906 l 2
 107.626 38.2852 99.9541 35.7607 91.5 36.5 c 0
 83.0469 37.2402 75.9287 41.0576 65.3223 53.6982 c 2
 47.9668 74.3799 l 2
 37.3613 87.0195 34.8369 94.6934 35.5781 103.146 c 0
 36.3164 111.6 40.2588 118.573 52.7734 129.324 c 2
 224.768 273.406 l 2
EndSplineSet
EndChar

StartChar: question
Encoding: 63 63 29
Width: 481
VWidth: 1000
Flags: HW
HStem: -10.999 172.805<183.264 281.369> 545 105<176.246 289.492>
VStem: 49.7031 105.113<432.482 523.276> 171.594 121.519<-0.442627 151.249> 178.59 105.113<243.782 310.866> 306.703 104.297<413.8 527.425>
LayerCount: 2
Back
SplineSet
204.5 399.5 m 16
 170 347 152 311 152 246 c 8
 152 237.856 154 230 158 226 c 0
 162 222 167 220 178 220 c 2
 196 220 l 2
 207 220 212 222 216 226 c 0
 220 230 222 237.856 222 246 c 16
 222 311 250.5 344 283 393.5 c 8
 310.453 435.313 321 469.5 321 516 c 0
 321 557.704 306.832 592.771 279.5 618 c 0
 253.5 642 218.298 650.5 181 650.5 c 0
 131.199 650.5 89.1826 622.034 66.1572 579 c 0
 52.7627 553.965 50 523.5 50 494 c 0
 50 482 52 478 56 474 c 0
 60 470 65 468 76 468 c 2
 94 468 l 2
 105 468 110 470 114 474 c 0
 118 478 120 482 120 494 c 0
 120 517.5 120.287 539.269 132.262 556.5 c 0
 144.31 573.835 164.038 585 186 585 c 0
 205.077 585 224.364 577.575 236.5 564 c 0
 247.266 551.958 252 534.863 252 517 c 0
 252 466.278 231.645 440.807 204.5 399.5 c 16
232 53 m 4
 232 33 231 20 226 11 c 4
 218 -6 203 -11 187 -11 c 4
 170 -11 156 -6 148 11 c 4
 143 20 142 33 142 53 c 4
 142 74 143 86 148 95 c 4
 156 112 170 117 187 117 c 4
 203 117 218 112 226 95 c 4
 231 86 232 74 232 53 c 4
EndSplineSet
Fore
SplineSet
154.816 462.202 m 0xec
 154.816 444.2 151.822 438.2 145.822 432.2 c 0
 139.822 426.2 132.322 423.2 115.823 423.2 c 2
 88.8232 423.2 l 2
 72.3232 423.2 64.8232 426.2 58.8232 432.2 c 0
 52.8232 438.2 49.7031 444.2 49.7031 462.2 c 0
 49.7031 497.601 53.3867 534.158 71.2441 564.2 c 0
 101.941 615.841 157.958 650 224.352 650 c 0
 274.078 650 321.009 639.8 355.672 611 c 0
 392.111 580.726 411 538.645 411 488.601 c 0
 411 398.441 370.203 347.5 309.703 312.376 c 0
 294.273 303.418 283.703 290.998 283.703 273.5 c 0
 283.703 256 280.709 249.5 274.709 243.5 c 0
 268.709 237.5 261.209 234.5 244.71 234.5 c 2
 217.71 234.5 l 2
 201.21 234.5 193.71 237.5 187.71 243.5 c 0
 181.71 249.5 177.637 255.525 178.59 273.5 c 2
 178.703 294.5 l 2
 178.824 316.999 184.663 336.938 197.703 352.5 c 0
 213.203 371 227.855 375.874 243.416 385 c 0
 260.517 395.029 277.367 404.827 289.643 420.219 c 0
 300.37 433.667 306.703 454.696 306.703 472.998 c 0
 306.703 518 277.036 545 230.703 545 c 0
 188.751 545 154.816 512.333 154.816 462.202 c 0xec
293.112 75.4033 m 0xf4
 293.112 47.9541 291.446 31.502 284.731 18.0312 c 0
 273.555 -4.39062 253.878 -10.999 232.352 -10.999 c 0
 209.649 -10.998 190.963 -4.01562 179.974 18.0312 c 0
 173.26 31.502 171.594 47.9541 171.594 75.4033 c 0
 171.594 103.425 173.26 119.305 179.974 132.775 c 0
 190.963 154.822 209.649 161.805 232.352 161.806 c 0
 253.878 161.806 273.555 155.196 284.731 132.775 c 0
 291.446 119.305 293.112 103.893 293.112 75.4033 c 0xf4
EndSplineSet
EndChar

StartChar: bracketleft
Encoding: 91 91 30
Width: 352
VWidth: 1000
Flags: W
HStem: -75 105<160 307.718> 570 105<160 307.718>
VStem: 55 105<30 570>
LayerCount: 2
Back
SplineSet
50 619.5 m 2
 50 640.2 53 652.8 62.5996 662.4 c 0
 72.2002 672 85.7002 675 105.5 675 c 2
 251 675 l 2
 262 675 267 673 271 669 c 0
 275 665 277 660 277 649 c 2
 277 631 l 2
 277 620 275 615 271 611 c 0
 267 607 262 605 251 605 c 2
 130 605 l 2
 122 605 120 603 120 595 c 2
 120 5 l 2
 120 -3 122 -5 130 -5 c 2
 251 -5 l 2
 262 -5 267 -7 271 -11 c 0
 275 -15 277 -20 277 -31 c 2
 277 -49 l 2
 277 -60 275 -65 271 -69 c 0
 267 -73 262 -75 251 -75 c 2
 105.5 -75 l 2
 85.7002 -75 72.2002 -72 62.5996 -62.4004 c 0
 53 -52.7998 50 -40.2002 50 -19.5 c 2
 50 619.5 l 2
EndSplineSet
Fore
SplineSet
55 591.75 m 2
 55 622.8 59.5 641.7 73.9004 656.1 c 0
 88.2998 670.5 108.55 675 138.25 675 c 2
 278 675 l 2
 294.5 675 302 672 308 666 c 0
 314 660 317 652.5 317 636 c 2
 317 609 l 2
 317 592.5 314 585 308 579 c 0
 302 573 294.5 570 278 570 c 2
 175 570 l 2
 163 570 160 567 160 555 c 2
 160 45 l 2
 160 33 163 30 175 30 c 2
 278 30 l 2
 294.5 30 302 27 308 21 c 0
 314 15 317 7.5 317 -9 c 2
 317 -36 l 2
 317 -52.5 314 -60 308 -66 c 0
 302 -72 294.5 -75 278 -75 c 2
 138.25 -75 l 2
 108.55 -75 88.2998 -70.5 73.9004 -56.1006 c 0
 59.5 -41.6992 55 -22.8008 55 8.25 c 2
 55 591.75 l 2
EndSplineSet
EndChar

StartChar: backslash
Encoding: 92 92 31
Width: 370
VWidth: 1000
Flags: W
VStem: 27.8105 324.4
LayerCount: 2
Fore
SplineSet
251.675 -41.8213 m 2
 29.0674 606.427 l 2
 23.6963 622.027 24.0908 630.095 27.8105 637.723 c 0
 31.5293 645.349 37.6465 650.627 53.2461 656 c 2
 78.7744 664.79 l 2
 94.375 670.161 102.444 669.766 110.07 666.047 c 0
 117.698 662.328 122.976 656.211 128.347 640.611 c 2
 350.955 -7.63574 l 2
 356.327 -23.2383 355.93 -31.3047 352.211 -38.9326 c 0
 348.491 -46.5586 342.377 -51.8359 326.775 -57.21 c 2
 301.247 -66 l 2
 285.645 -71.3721 277.578 -70.9766 269.952 -67.2568 c 0
 262.323 -63.5371 257.046 -57.4219 251.675 -41.8213 c 2
EndSplineSet
EndChar

StartChar: bracketright
Encoding: 93 93 32
Width: 352
VWidth: 1000
Flags: W
HStem: -75 105<54.2824 202> 570 105<54.2824 202>
VStem: 202 105<30.0022 569.998>
LayerCount: 2
Back
SplineSet
277 619.5 m 2
 277 -19.5 l 6
 277 -40.2002 274 -52.7998 264.4 -62.4004 c 4
 254.8 -72 241.3 -75 221.5 -75 c 6
 76 -75 l 6
 65 -75 60 -73 56 -69 c 4
 52 -65 50 -60 50 -49 c 6
 50 -31 l 6
 50 -20 52 -15 56 -11 c 4
 60 -7 65 -5 76 -5 c 6
 197 -5 l 6
 205 -5 207 -3 207 5 c 6
 207 595 l 2
 207 603 205 605 197 605 c 2
 76 605 l 2
 65 605 60 607 56 611 c 0
 52 615 50 620 50 631 c 2
 50 649 l 2
 50 660 52 665 56 669 c 0
 60 673 65 675 76 675 c 2
 221.5 675 l 2
 241.3 675 254.8 672 264.4 662.4 c 0
 274 652.8 277 640.2 277 619.5 c 2
EndSplineSet
Fore
SplineSet
307 591.75 m 2
 307 8.25 l 2
 307 -22.8008 302.5 -41.6992 288.1 -56.1006 c 0
 273.7 -70.5 253.45 -75 223.75 -75 c 2
 84 -75 l 2
 67.5 -75 60 -72 54 -66 c 0
 48 -60 45 -52.5 45 -36 c 2
 45 -9 l 2
 45 7.5 48 15 54 21 c 0
 60 27 67.5 30 84 30 c 2
 187 30 l 2
 199 30 202 33 202 45 c 2
 202 555 l 2
 202 567 199 570 187 570 c 2
 84 570 l 2
 67.5 570 60 573 54 579 c 0
 48 585 45 592.5 45 609 c 2
 45 636 l 2
 45 652.5 48 660 54 666 c 0
 60 672 67.5 675 84 675 c 2
 223.75 675 l 2
 253.45 675 273.7 670.5 288.1 656.1 c 0
 302.5 641.7 307 622.8 307 591.75 c 2
EndSplineSet
EndChar

StartChar: afii57645
Encoding: 1470 1470 33
Width: 460
VWidth: 1000
Flags: HW
HStem: 495 105<59.2824 410.718>
LayerCount: 2
Back
SplineSet
291 530 m 2
 302 530 307 532 311 536 c 0
 315 540 317 545 317 556 c 2
 317 574 l 2
 317 585 315 590 311 594 c 0
 307 598 302 600 291 600 c 2
 76 600 l 2
 65 600 60 598 56 594 c 0
 52 590 50 585 50 574 c 2
 50 556 l 2
 50 545 52 540 56 536 c 0
 60 532 65 530 76 530 c 2
 291 530 l 2
EndSplineSet
Fore
SplineSet
381 495 m 6
 89 495 l 2
 72.5 495 65 498 59 504 c 0
 53 510 50 517.5 50 534 c 2
 50 561 l 2
 50 577.5 53 585 59 591 c 0
 65 597 72.5 600 89 600 c 2
 381 600 l 6
 397.5 600 405 597 411 591 c 4
 417 585 420 577.5 420 561 c 6
 420 534 l 6
 420 517.5 417 510 411 504 c 4
 405 498 397.5 495 381 495 c 6
EndSplineSet
EndChar

StartChar: afii57664
Encoding: 1488 1488 35
Width: 587
VWidth: 1000
Flags: W
HStem: 0 105<155 225.717> 495 105<363.283 434>
VStem: 50 105<105 285.685> 434 105<338.315 494.998>
AnchorPoint: "DiaToBaseD" 290 -158 basechar 0
AnchorPoint: "DiaToBaseU" 290 0 basechar 0
AnchorPoint: "DiaToBase3" 300 0 basechar 0
AnchorPoint: "DiaToBase2" 300 0 basechar 0
AnchorPoint: "DiaToBase1" 300 0 basechar 0
LayerCount: 2
Back
SplineSet
50 84 m 2
 50 200 l 2
 50 255 56 297 78 333 c 0
 97.4619 365.732 126 389.5 155.5 403.368 c 0
 162.856 406.826 162.798 412.597 158 419.5 c 2
 68 549 l 2
 59 562.5 56 573 57.5 582 c 0
 62 592.5 69.5 600 84.5 600 c 2
 138.5 600 l 18
 155 600 164 595.5 174.5 579 c 2
 364.5 302.5 l 2
 370.713 293.459 379.437 290.58 387 296.5 c 4
 398.5 305.5 408.5 317.5 416 330 c 4
 429.147 351.912 434 389 434 430 c 6
 434 480 l 6
 434 492 431 495 419 495 c 6
 393 495 l 6
 378 495 369 498 363 504 c 4
 357 510 354 517.5 354 534 c 6
 354 561 l 6
 354 577.5 357 585 363 591 c 4
 369 597 378 600 393 600 c 6
 455 600 l 6
 485 600 504.5 595.5 519.5 580.5 c 4
 533 567 539 547.5 539 516 c 6
 539 399 l 6
 539 333 532 297 514 267 c 0
 496 237 473 216.5 448 201.5 c 4
 441.441 197.564 438.191 195.022 442 189.5 c 2
 537.5 51 l 2
 546.71 37.6426 548 30 546.5 21 c 0
 545 9 536 0 521 0 c 2
 467 0 l 18
 450.5 0 441.5 4.5 431 19.5 c 2
 232 310.5 l 2
 227.243 317.456 221.5 322.5 213 317.613 c 0xe8
 196.147 307.924 182.046 293.886 173 277 c 0
 158 248 155 217 155 176 c 2
 155 120 l 2xe8
 155 108 158 105 170 105 c 2
 196 105 l 2
 211 105 220 102 226 96 c 0
 232 90 235 82.5 235 66 c 2
 235 39 l 2xd8
 235 22.5 232 15 226 9 c 0
 220 3 211 0 196 0 c 2
 134 0 l 2
 104 0 84.5 4.5 69.5 19.5 c 0
 56 33 50 52.5 50 84 c 2
EndSplineSet
Fore
SplineSet
431 205.5 m 2
 537.5 51 l 2
 546.707 37.6426 548 30 546.5 21 c 0
 545 9 536 0 521 0 c 2
 467 0 l 18
 450.5 0 441.5 4.5 431 19.5 c 2
 232 310.5 l 2
 227.243 317.456 221.5 322.5 213 317.613 c 0
 196.147 307.924 182.046 293.886 173 277 c 0
 158 248 155 217 155 176 c 2
 155 120 l 2
 155 108 158 105 170 105 c 2
 196 105 l 2
 211 105 220 102 226 96 c 0
 232 90 235 82.5 235 66 c 2
 235 39 l 2
 235 22.5 232 15 226 9 c 0
 220 3 211 0 196 0 c 2
 134 0 l 2
 104 0 84.5 4.5 69.5 19.5 c 0
 56 33 50 52.5 50 84 c 2
 50 200 l 2
 50 255 56 297 78 333 c 0
 97.4619 365.732 126 389.5 155.5 403.368 c 0
 162.856 406.826 162.798 412.597 158 419.5 c 2
 68 549 l 2
 59 562.5 56 573 57.5 582 c 0
 62 592.5 69.5 600 84.5 600 c 2
 138.5 600 l 18
 155 600 163.422 595.116 174.5 579 c 2
 357 313.5 l 2
 361.773 306.556 367.5 301.5 376 306.387 c 0
 392.853 316.076 406.954 330.114 416 347 c 0
 431 376 434 407 434 448 c 2
 434 480 l 2
 434 492 431 495 419 495 c 2
 393 495 l 2
 378 495 369 498 363 504 c 0
 357 510 354 517.5 354 534 c 2
 354 561 l 2
 354 577.5 357 585 363 591 c 0
 369 597 378 600 393 600 c 2
 455 600 l 2
 485 600 504.5 595.5 519.5 580.5 c 0
 533 567 539 547.5 539 516 c 2
 539 424 l 2
 539 369 533 327 511 291 c 0
 491.538 258.268 463 235.5 433.5 221.632 c 0
 426.144 218.174 426.208 212.407 431 205.5 c 2
EndSplineSet
Substitution2: "WideLetters" uniFB21
Comment: "%DiaToBase1+AD0A-300+AAoA%DiaToBase2+AD0A-300+AAoA%DiaToBaseU+AD0A-290+AAoA%DiaToBase3+AD0A-300+AAoA" 
EndChar

StartChar: afii57665
Encoding: 1489 1489 36
Width: 554
VWidth: 1000
Flags: W
HStem: 0 105<49.2824 355 460 524.718> 495 105<71.2824 335.995>
VStem: 355 105<105.002 475.997>
AnchorPoint: "DiaToBaseD" 216 0 basechar 0
AnchorPoint: "DiaToBaseU" 270 0 basechar 0
AnchorPoint: "DiaToBase3" 275 0 basechar 0
AnchorPoint: "DiaToBase2" 275 0 basechar 0
AnchorPoint: "DiaToBase1" 280 0 basechar 0
LayerCount: 2
Back
SplineSet
435 415 m 2
 435 80 l 2
 435 72 437 70 445 70 c 2
 483 70 l 2
 494 70 499 68 503 64 c 0
 507 60 509 55 509 44 c 2
 509 26 l 2
 509 15 507 10 503 6 c 0
 499 2 494 0 483 0 c 2
 76 0 l 2
 65 0 60 2 56 6 c 0
 52 10 50 15 50 26 c 2
 50 44 l 2
 50 55 52 60 56 64 c 0
 60 68 65 70 76 70 c 2
 355 70 l 2
 363 70 365 72 365 80 c 2
 365 425 l 6
 365 470 358 491 342 507 c 4
 326 523 301 530 260 530 c 6
 98 530 l 2
 87 530 82 532 78 536 c 0
 74 540 72 545 72 556 c 2
 72 574 l 2
 72 585 74 590 78 594 c 0
 82 598 87 600 98 600 c 2
 250 600 l 2
 316 600 361 590 393 558 c 0
 425 526 435 484 435 415 c 2
EndSplineSet
Fore
SplineSet
460 415 m 2
 460 120 l 2
 460 108 463 105 475 105 c 2
 495 105 l 2
 511.5 105 519 102 525 96 c 0
 531 90 534 82.5 534 66 c 2
 534 39 l 2
 534 22.5 531 15 525 9 c 0
 519 3 511.5 0 495 0 c 2
 79 0 l 2
 62.5 0 55 3 49 9 c 0
 43 15 40 22.5 40 39 c 2
 40 66 l 2
 40 82.5 43 90 49 96 c 0
 55 102 62.5 105 79 105 c 2
 340 105 l 2
 352 105 355 108 355 120 c 2
 355 411 l 2
 355 447 349.4 463.8 336.6 476.6 c 0
 323.8 489.4 303.8 495 271 495 c 2
 101 495 l 2
 84.5 495 77 498 71 504 c 0
 65 510 62 517.5 62 534 c 2
 62 561 l 2
 62 577.5 65 585 71 591 c 0
 77 597 84.5 600 101 600 c 2
 275 600 l 2
 341 600 386 590 418 558 c 0
 450 526 460 484 460 415 c 2
EndSplineSet
Comment: "%DiaToBase1+AD0A-280+AAoA%DiaToBase2+AD0A-275+AAoA%DiaToBaseU+AD0A-270+AAoA%DiaToBase3+AD0A-275+AAoA" 
EndChar

StartChar: afii57666
Encoding: 1490 1490 37
Width: 419
VWidth: 1000
Flags: HMW
HStem: 0 21G<283 310> 495 105<123.878 235>
VStem: 244 105<39 144 328 516>
AnchorPoint: "DiaToBaseD" 154 28 basechar 0
AnchorPoint: "DiaToBaseO" 60 0 basechar 0
AnchorPoint: "DiaToBaseU" 200 0 basechar 0
AnchorPoint: "DiaToBase3" 190 0 basechar 0
AnchorPoint: "DiaToBase2" 200 0 basechar 0
AnchorPoint: "DiaToBase1" 200 0 basechar 0
LayerCount: 2
Back
SplineSet
284 326 m 2
 284 520 l 2
 284 528 282 530 274 530 c 2
 166 530 l 2
 156 530 150 532 146 536 c 0
 142 540 140 545 140 556 c 2
 140 574 l 2
 140 585 142 590 146 594 c 0
 150 598 156 600 166 600 c 2
 298 600 l 2
 318 600 331 597 341 587 c 0
 350 578 354 565 354 544 c 2
 354 26 l 2
 354 15 352 10 348 6 c 0
 344 2 338 0 328 0 c 2
 310 0 l 2
 298 0 294 2 290 6 c 0
 286 10 284 15 284 26 c 2
 284 164 l 2
 284 178 278 180 270 163 c 0
 255 133 236 106 211 77 c 0
 173 34 113 -7 76 -7 c 4
 65 -7 60 -5 56 -1 c 4
 52 3 50 8 50 19 c 6
 50 37 l 6
 50 45 51 49 53 53 c 4
 56 58 61 61 66 62 c 4
 109 75 166 112 208 162 c 0
 247 207 267 248 279 291 c 0
 283 304 284 313 284 326 c 2
EndSplineSet
Fore
SplineSet
369 516 m 2
 369 39 l 2
 369 22 366 15 360 9 c 0
 354 3 345 0 330 0 c 2
 303 0 l 2
 285 0 279 3 273 9 c 0
 267 15 264 22 264 39 c 2
 264 136 l 2
 264 156 255 147 252 142 c 0
 240 121 226 102 204 77 c 0
 166 34 106 -7 69 -7 c 0
 52 -7 45 -4 39 2 c 0
 33 8 30 15 30 32 c 2
 30 59 l 2
 30 71 32 77 34 83 c 0
 39 90 47 94 54 96 c 0
 101 114 159 147 201 197 c 0
 223 223 240 247 252 272 c 0
 263 296 264 325 264 361 c 2
 264 480 l 2
 264 492 261 495 249 495 c 2
 157 495 l 2
 142 495 133 498 127 504 c 0
 121 510 118 518 118 534 c 2
 118 561 l 2
 118 578 121 585 127 591 c 0
 133 597 142 600 157 600 c 2
 285 600 l 2
 315 600 335 596 350 580 c 0
 363 567 369 548 369 516 c 2
EndSplineSet
Comment: "%DiaToBase1+AD0A-200+AAoA%DiaToBase2+AD0A-200+AAoA%DiaToBaseU+AD0A-200+AAoA%DiaToBaseO+AD0A-60+AAoA%DiaToBase3+AD0A-190+AAoA" 
EndChar

StartChar: afii57667
Encoding: 1491 1491 38
Width: 552
VWidth: 1000
Flags: W
HStem: 0 21G<342.75 386.25> 495 105<49.2824 311.998 417.002 512.718>
VStem: 312 105<9.28238 494.998>
AnchorPoint: "DiaToBaseD" 204 0 basechar 0
AnchorPoint: "DiaToBaseU" 290 0 basechar 0
AnchorPoint: "DiaToBase3" 330 0 basechar 0
AnchorPoint: "DiaToBase2" 310 0 basechar 0
AnchorPoint: "DiaToBase1" 360 0 basechar 0
LayerCount: 2
Back
SplineSet
392 26 m 2
 392 15 390 10 386 6 c 0
 382 2 377 0 366 0 c 2
 348 0 l 2
 337 0 332 2 328 6 c 0
 324 10 322 15 322 26 c 2
 322 520 l 2
 322 528 320 530 312 530 c 2
 76 530 l 2
 65 530 60 532 56 536 c 0
 52 540 50 545 50 556 c 2
 50 574 l 2
 50 585 52 590 56 594 c 0
 60 598 65 600 76 600 c 2
 477 600 l 2
 488 600 493 598 497 594 c 0
 501 590 503 585 503 574 c 2
 503 556 l 2
 503 545 501 540 497 536 c 0
 493 532 488 530 477 530 c 2
 402 530 l 2
 394 530 392 528 392 520 c 2
 392 26 l 2
EndSplineSet
Fore
SplineSet
417 39 m 2
 417 22.5 414 15 408 9 c 0
 402 3 394.5 0 378 0 c 2
 351 0 l 2
 334.5 0 327 3 321 9 c 0
 315 15 312 22.5 312 39 c 2
 312 480 l 2
 312 492 309 495 297 495 c 2
 79 495 l 2
 62.5 495 55 498 49 504 c 0
 43 510 40 517.5 40 534 c 2
 40 561 l 2
 40 577.5 43 585 49 591 c 0
 55 597 62.5 600 79 600 c 2
 483 600 l 6
 499.5 600 507 597 513 591 c 4
 519 585 522 577.5 522 561 c 6
 522 534 l 6
 522 517.5 519 510 513 504 c 4
 507 498 499.5 495 483 495 c 6
 432 495 l 2
 420 495 417 492 417 480 c 2
 417 39 l 2
EndSplineSet
Substitution2: "WideLetters" uniFB22
Comment: "%DiaToBase1+AD0A-360+AAoA%DiaToBase2+AD0A-310+AAoA%DiaToBaseU+AD0A-290+AAoA%DiaToBase3+AD0A-330+AAoA" 
EndChar

StartChar: afii57668
Encoding: 1492 1492 39
Width: 575
VWidth: 1000
Flags: W
HStem: 0 21G<100.75 144.25 450.75 494.25> 495 105<59.2824 402.183>
VStem: 70 105<9.28238 345.718> 420 105<9.28238 477.185>
AnchorPoint: "DiaToBaseD" 298 0 basechar 0
AnchorPoint: "DiaToBaseU" 285 0 basechar 0
AnchorPoint: "DiaToBase3" 295 0 basechar 0
AnchorPoint: "DiaToBase2" 295 0 basechar 0
AnchorPoint: "DiaToBase1" 295 0 basechar 0
LayerCount: 2
Back
SplineSet
140 26 m 2
 140 15 138 10 134 6 c 0
 130 2 125 0 114 0 c 2
 96 0 l 2
 85 0 80 2 76 6 c 0
 72 10 70 15 70 26 c 2
 70 373 l 2
 70 384 72 389 76 393 c 0
 80 397 85 399 96 399 c 2
 114 399 l 2
 125 399 130 397 134 393 c 0
 138 389 140 384 140 373 c 2
 140 26 l 2
384.75 600 m 2
 428.4 600 456.9 593.5 477.7 572.7 c 0
 498.5 551.9 505 524.6 505 479.75 c 2
 505 26 l 2
 505 15 503 10 499 6 c 0
 495 2 490 0 479 0 c 2
 461 0 l 2
 450 0 445 2 441 6 c 0
 437 10 435 15 435 26 c 2
 435 477.5 l 2
 435 500 431.5 510.5 423.5 518.5 c 0
 415.5 526.5 403.5 530 382.5 530 c 2
 76 530 l 2
 65 530 60 532 56 536 c 0
 52 540 50 545 50 556 c 2
 50 574 l 2
 50 585 52 590 56 594 c 0
 60 598 65 600 76 600 c 2
 384.75 600 l 2
EndSplineSet
Fore
SplineSet
175 39 m 2
 175 22.5 172 15 166 9 c 0
 160 3 152.5 0 136 0 c 2
 109 0 l 2
 92.5 0 85 3 79 9 c 0
 73 15 70 22.5 70 39 c 2
 70 316 l 2
 70 332.5 73 340 79 346 c 0
 85 352 92.5 355 109 355 c 2
 136 355 l 2
 152.5 355 160 352 166 346 c 0
 172 340 175 332.5 175 316 c 2
 175 39 l 2
344.625 600 m 6
 410.1 600 452.85 590.25 484.05 559.05 c 4
 515.25 527.85 525 486.9 525 419.625 c 6
 525 39 l 6
 525 22.5 522 15 516 9 c 4
 510 3 502.5 0 486 0 c 6
 459 0 l 6
 442.5 0 435 3 429 9 c 4
 423 15 420 22.5 420 39 c 6
 420 416.25 l 6
 420 450 414.75 465.75 402.75 477.75 c 4
 390.75 489.75 372.75 495 341.25 495 c 6
 89 495 l 2
 72.5 495 65 498 59 504 c 0
 53 510 50 517.5 50 534 c 2
 50 561 l 2
 50 577.5 53 585 59 591 c 0
 65 597 72.5 600 89 600 c 2
 344.625 600 l 6
EndSplineSet
Substitution2: "WideLetters" uniFB23
Comment: "%DiaToBase1+AD0A-295+AAoA%DiaToBase2+AD0A-295+AAoA%DiaToBaseU+AD0A-285+AAoA%DiaToBase3+AD0A-295+AAoA" 
EndChar

StartChar: afii57669
Encoding: 1493 1493 40
Width: 340
VWidth: 1000
Flags: W
HStem: 0 21G<215.75 259.25> 495 105<49.2824 184.486>
VStem: 185 105<9.28238 494.716>
AnchorPoint: "DiaToBaseD" 96 0 basechar 0
AnchorPoint: "DiaToBaseU" 160 0 basechar 0
AnchorPoint: "DiaToBase3" 180 0 basechar 0
AnchorPoint: "DiaToBase2" 170 0 basechar 0
AnchorPoint: "DiaToBase1" 230 0 basechar 0
LayerCount: 2
Back
SplineSet
191 600 m 2
 217.4 600 235.4 596 248.2 583.2 c 0
 261 570.4 265 553.6 265 526 c 2
 265 26 l 6
 265 15 263 10 259 6 c 4
 255 2 250 0 239 0 c 6
 221 0 l 6
 210 0 205 2 201 6 c 4
 197 10 195 15 195 26 c 6
 195 520 l 2
 195 528 193 530 185 530 c 2
 76 530 l 2
 65 530 60 532 56 536 c 0
 52 540 50 545 50 556 c 2
 50 574 l 2
 50 585 52 590 56 594 c 0
 60 598 65 600 76 600 c 2
 191 600 l 2
EndSplineSet
Fore
SplineSet
179 600 m 6
 218.6 600 245.6 594 264.8 574.8 c 4
 284 555.6 290 530.4 290 489 c 6
 290 39 l 6
 290 22.5 287 15 281 9 c 4
 275 3 267.5 0 251 0 c 6
 224 0 l 6
 207.5 0 200 3 194 9 c 4
 188 15 185 22.5 185 39 c 6
 185 480 l 6
 185 492 182 495 170 495 c 6
 79 495 l 6
 62.5 495 55 498 49 504 c 0
 43 510 40 517.5 40 534 c 2
 40 561 l 2
 40 577.5 43 585 49 591 c 0
 55 597 62.5 600 79 600 c 6
 179 600 l 6
EndSplineSet
Comment: "%DiaToBase1+AD0A-230+AAoA%DiaToBase2+AD0A-170+AAoA%DiaToBaseU+AD0A-160+AAoA%DiaToBase3+AD0A-180+AAoA" 
EndChar

StartChar: afii57670
Encoding: 1494 1494 41
Width: 389
VWidth: 1000
Flags: W
HStem: 0 21G<172.75 216.25> 495 105<49.2824 141.998 247.002 339.718>
VStem: 142 105<9.28238 494.998>
AnchorPoint: "DiaToBaseD" 69 0 basechar 0
AnchorPoint: "DiaToBaseU" 180 0 basechar 0
AnchorPoint: "DiaToBase3" 190 0 basechar 0
AnchorPoint: "DiaToBase2" 187 0 basechar 0
AnchorPoint: "DiaToBase1" 192 0 basechar 0
LayerCount: 2
Back
SplineSet
222 26 m 2
 222 15 220 10 216 6 c 0
 212 2 207 0 196 0 c 2
 178 0 l 2
 167 0 162 2 158 6 c 0
 154 10 152 15 152 26 c 2
 152 520 l 2
 152 528 150 530 142 530 c 2
 76 530 l 2
 65 530 60 532 56 536 c 0
 52 540 50 545 50 556 c 2
 50 574 l 2
 50 585 52 590 56 594 c 0
 60 598 65 600 76 600 c 2
 298 600 l 2
 309 600 314 598 318 594 c 0
 322 590 324 585 324 574 c 2
 324 556 l 2
 324 545 322 540 318 536 c 0
 314 532 309 530 298 530 c 2
 232 530 l 2
 224 530 222 528 222 520 c 2
 222 26 l 2
EndSplineSet
Fore
SplineSet
247 39 m 2
 247 22.5 244 15 238 9 c 0
 232 3 224.5 0 208 0 c 2
 181 0 l 2
 164.5 0 157 3 151 9 c 0
 145 15 142 22.5 142 39 c 2
 142 480 l 2
 142 492 139 495 127 495 c 2
 79 495 l 2
 62.5 495 55 498 49 504 c 0
 43 510 40 517.5 40 534 c 2
 40 561 l 2
 40 577.5 43 585 49 591 c 0
 55 597 62.5 600 79 600 c 2
 310 600 l 2
 326.5 600 334 597 340 591 c 0
 346 585 349 577.5 349 561 c 2
 349 534 l 2
 349 517.5 346 510 340 504 c 0
 334 498 326.5 495 310 495 c 2
 262 495 l 2
 250 495 247 492 247 480 c 2
 247 39 l 2
EndSplineSet
Comment: "%DiaToBase1+AD0A-192+AAoA%DiaToBase2+AD0A-187+AAoA%DiaToBaseU+AD0A-180+AAoA%DiaToBase3+AD0A-190+AAoA" 
EndChar

StartChar: afii57671
Encoding: 1495 1495 42
Width: 656
VWidth: 1000
Flags: W
HStem: 0 21G<150.75 194.25 471.75 515.25> 495 105<49.2824 119.998 225.002 440.998 546.002 611.718>
VStem: 120 105<9.28238 494.998> 441 105<9.28238 494.998>
AnchorPoint: "DiaToBaseU" 320 0 basechar 0
AnchorPoint: "DiaToBase3" 330 0 basechar 0
AnchorPoint: "DiaToBase2" 333 0 basechar 0
AnchorPoint: "DiaToBase1" 333 0 basechar 0
LayerCount: 2
Back
SplineSet
210 530 m 2
 202 530 200 528 200 520 c 2
 200 26 l 2
 200 15 198 10 194 6 c 0
 190 2 185 0 174 0 c 2
 156 0 l 2
 145 0 140 2 136 6 c 0
 132 10 130 15 130 26 c 2
 130 520 l 2
 130 528 128 530 120 530 c 2
 76 530 l 2
 65 530 60 532 56 536 c 0
 52 540 50 545 50 556 c 2
 50 574 l 2
 50 585 52 590 56 594 c 0
 60 598 65 600 76 600 c 2
 578 600 l 2
 589 600 594 598 598 594 c 0
 602 590 604 585 604 574 c 2
 604 556 l 2
 604 545 602 540 598 536 c 0
 594 532 589 530 578 530 c 2
 531 530 l 2
 523 530 521 528 521 520 c 2
 521 26 l 2
 521 15 519 10 515 6 c 0
 511 2 506 0 495 0 c 2
 477 0 l 2
 466 0 461 2 457 6 c 0
 453 10 451 15 451 26 c 2
 451 520 l 2
 451 528 449 530 441 530 c 2
 210 530 l 2
EndSplineSet
Fore
SplineSet
240 495 m 2
 228 495 225 492 225 480 c 2
 225 39 l 2
 225 22.5 222 15 216 9 c 0
 210 3 202.5 0 186 0 c 2
 159 0 l 2
 142.5 0 135 3 129 9 c 0
 123 15 120 22.5 120 39 c 2
 120 480 l 2
 120 492 117 495 105 495 c 2
 79 495 l 2
 62.5 495 55 498 49 504 c 0
 43 510 40 517.5 40 534 c 2
 40 561 l 2
 40 577.5 43 585 49 591 c 0
 55 597 62.5 600 79 600 c 2
 582 600 l 2
 598.5 600 606 597 612 591 c 0
 618 585 621 577.5 621 561 c 2
 621 534 l 2
 621 517.5 618 510 612 504 c 0
 606 498 598.5 495 582 495 c 2
 561 495 l 2
 549 495 546 492 546 480 c 2
 546 39 l 2
 546 22.5 543 15 537 9 c 0
 531 3 523.5 0 507 0 c 2
 480 0 l 2
 463.5 0 456 3 450 9 c 0
 444 15 441 22.5 441 39 c 2
 441 480 l 2
 441 492 438 495 426 495 c 2
 240 495 l 2
EndSplineSet
Comment: "%DiaToBase1+AD0A-333+AAoA%DiaToBase2+AD0A-333+AAoA%DiaToBaseU+AD0A-320+AAoA%DiaToBase3+AD0A-330+AAoA" 
EndChar

StartChar: afii57672
Encoding: 1496 1496 43
Width: 629
VWidth: 1000
Flags: W
HStem: -7 104<327 367> 495 105<79 106> 509 103<423 425>
VStem: 119 105<200 488> 474 105<200 442>
AnchorPoint: "DiaToBaseD" 354 -66 basechar 0
AnchorPoint: "DiaToBaseU" 340 0 basechar 0
AnchorPoint: "DiaToBase3" 340 0 basechar 0
AnchorPoint: "DiaToBase2" 350 0 basechar 0
AnchorPoint: "DiaToBase1" 340 0 basechar 0
LayerCount: 2
Back
SplineSet
529.975 170.676 m 2
 529.969 109.726 521.975 74.6504 493.478 45.9004 c 0
 461.297 13.4365 403.532 -6.99609 329.487 -7 c 0
 258.266 -7 198.113 12.9971 165.497 45.9004 c 0
 137 74.6504 129 110.301 129 170.676 c 2
 129 520 l 2
 129 528 127 530 119 530 c 2
 76 530 l 2
 65 530 60 532 56 536 c 0
 52 540 50 545 50 556 c 2
 50 574 l 2
 50 585 52 590 56 594 c 0
 60 598 65 600 76 600 c 2
 143.5 600 l 2
 163.3 600 176.8 597 186.4 587.4 c 0
 196 577.8 199 565.2 199 544.5 c 2
 199 173 l 2
 199 137 202.578 116.6 216.999 99.2949 c 0
 240.601 70.9717 280.737 62.002 329.499 62 c 0
 375.73 62 417.996 70.4912 441.999 99.2949 c 0
 456.42 116.6 459.998 136.4 459.998 173 c 2
 460 471.5 l 2
 460 498 454.5 514 441.5 527 c 0
 429 539.5 412.646 545 394 545 c 0
 375.354 545 359 539.5 346.5 527 c 0
 333.5 514 328 498 328 471.5 c 2
 328 405 l 2
 328 394 326 389 322 385 c 0
 318 381 314 379 302 379 c 2
 284 379 l 2
 274 379 268 381 264 385 c 0
 260 389 258 394 258 405 c 2
 258 465 l 2
 258 509.5 261.5 541 289 571.614 c 0
 312.73 598.031 351.733 613 394 613 c 0
 436.267 613 476.571 597.3 500 570.614 c 0
 526 541 530.004 501.5 530 457 c 2
 529.975 170.676 l 2
EndSplineSet
Fore
SplineSet
579 215 m 2xb8
 579 142 566.97 102.264 537.129 65.2695 c 0
 499 18 433.943 -6.99512 348.999 -7 c 0
 267.294 -7 196 22 160.869 65.2695 c 0
 130.911 102.168 119 142.55 119 215 c 2
 119 480 l 2
 119 492 116 495 104 495 c 2
 79 495 l 2
 62.5 495 55 498 49 504 c 0
 43 510 40 517.5 40 534 c 2
 40 561 l 2
 40 577.5 43 585 49 591 c 0
 55 597 62.5 600 79 600 c 2
 140.75 600 l 2xd8
 170.45 600 190.7 595.5 205.1 581.1 c 0
 219.5 566.7 224 547.8 224 516.75 c 2
 224 230.2 l 2
 224 187 227.428 162.521 241.241 141.754 c 0
 263.85 107.767 302.296 97.0029 349.005 97 c 0
 393.289 97 433.776 107.189 456.769 141.754 c 0
 470.582 162.521 474 186 474 230 c 2
 474 421 l 2
 474 453 473 472.5 463 488 c 0
 453.383 502.907 438.122 509 423.995 509 c 0
 409.868 509 395.5 503 385.5 488 c 0
 374.798 471.947 373.99 452.6 373.99 420.8 c 2
 374 388 l 2
 374 371.5 371 364 365 358 c 0
 359 352 353 349 335 349 c 2
 308 349 l 2
 293 349 284 352 278 358 c 0
 272 364 269 371.5 269 388 c 2
 269 434.4 l 2
 269 487.801 272.989 525.601 304.33 562.337 c 0
 331.375 594.038 375.827 612 423.999 612 c 0
 472.171 612 518.105 593.16 544.808 561.137 c 0
 574.439 525.601 579 478 579 425 c 2
 579 215 l 2xb8
EndSplineSet
Comment: "%DiaToBase1+AD0A-340+AAoA%DiaToBase2+AD0A-350+AAoA%DiaToBaseU+AD0A-340+AAoA%DiaToBase3+AD0A-340+AAoA" 
EndChar

StartChar: afii57673
Encoding: 1497 1497 44
Width: 332
VWidth: 1000
Flags: W
HStem: 495 105<49.2824 186.998>
VStem: 187 105<309.282 494.998>
AnchorPoint: "DiaToBaseD" 92 42 basechar 0
AnchorPoint: "DiaToBaseU" 160 0 basechar 0
AnchorPoint: "DiaToBase3" 165 0 basechar 0
AnchorPoint: "DiaToBase2" 165 0 basechar 0
AnchorPoint: "DiaToBase1" 170 0 basechar 0
LayerCount: 2
Back
SplineSet
221.5 600 m 2
 241.3 600 254.8 597 264.4 587.4 c 0
 274 577.8 277 565.2 277 544.5 c 2
 277 355 l 2
 277 344 275 339 271 335 c 0
 267 331 262 329 251 329 c 2
 233 329 l 2
 222 329 217 331 213 335 c 0
 209 339 207 344 207 355 c 2
 207 520 l 2
 207 528 205 530 197 530 c 2
 76 530 l 2
 65 530 60 532 56 536 c 0
 52 540 50 545 50 556 c 2
 50 574 l 2
 50 585 52 590 56 594 c 0
 60 598 65 600 76 600 c 2
 221.5 600 l 2
EndSplineSet
Fore
SplineSet
208.75 600 m 2
 238.45 600 258.7 595.5 273.1 581.1 c 0
 287.5 566.7 292 547.8 292 516.75 c 2
 292 339 l 2
 292 322.5 289 315 283 309 c 0
 277 303 269.5 300 253 300 c 2
 226 300 l 2
 209.5 300 202 303 196 309 c 0
 190 315 187 322.5 187 339 c 2
 187 480 l 2
 187 492 184 495 172 495 c 2
 79 495 l 2
 62.5 495 55 498 49 504 c 0
 43 510 40 517.5 40 534 c 2
 40 561 l 2
 40 577.5 43 585 49 591 c 0
 55 597 62.5 600 79 600 c 2
 208.75 600 l 2
EndSplineSet
Comment: "%DiaToBase1+AD0A-170+AAoA%DiaToBase2+AD0A-165+AAoA%DiaToBaseU+AD0A-160+AAoA%DiaToBase3+AD0A-165+AAoA" 
EndChar

StartChar: afii57674
Encoding: 1498 1498 45
Width: 548
VWidth: 1000
Flags: W
HStem: -140 105<426 508.718> 495 105<49.2824 321 426 508.718>
VStem: 321 105<-35 494.998>
AnchorPoint: "DiaToBaseD" 210 0 basechar 0
LayerCount: 2
Back
SplineSet
331 -84.5 m 2
 331 520 l 2
 331 528 329 530 321 530 c 2
 76 530 l 2
 65 530 60 532 56 536 c 0
 52 540 50 545 50 556 c 2
 50 574 l 2
 50 585 52 590 56 594 c 0
 60 598 65 600 76 600 c 2
 467 600 l 2
 478 600 483 598 487 594 c 0
 491 590 493 585 493 574 c 2
 493 556 l 2
 493 545 491 540 487 536 c 0
 483 532 478 530 467 530 c 2
 411 530 l 2
 403 530 401 528 401 520 c 2
 401 -60 l 2
 401 -68 403 -70 411 -70 c 2
 467 -70 l 2
 478 -70 483 -72 487 -76 c 0
 491 -80 493 -85 493 -96 c 2
 493 -114 l 2
 493 -125 491 -130 487 -134 c 0
 483 -138 478 -140 467 -140 c 2
 386.5 -140 l 2
 366.7 -140 353.2 -137 343.6 -127.4 c 0
 334 -117.8 331 -105.2 331 -84.5 c 2
EndSplineSet
Fore
SplineSet
321 -56.75 m 2
 321 480 l 2
 321 492 318 495 306 495 c 2
 79 495 l 2
 62.5 495 55 498 49 504 c 0
 43 510 40 517.5 40 534 c 2
 40 561 l 2
 40 577.5 43 585 49 591 c 0
 55 597 62.5 600 79 600 c 2
 479 600 l 6
 495.5 600 503 597 509 591 c 4
 515 585 518 577.5 518 561 c 6
 518 534 l 6
 518 517.5 515 510 509 504 c 4
 503 498 495.5 495 479 495 c 6
 441 495 l 2
 429 495 426 492 426 480 c 2
 426 -20 l 2
 426 -32 429 -35 441 -35 c 2
 479 -35 l 2
 495.5 -35 503 -38 509 -44 c 0
 515 -50 518 -57.5 518 -74 c 2
 518 -101 l 2
 518 -117.5 515 -125 509 -131 c 0
 503 -137 495.5 -140 479 -140 c 2
 404.25 -140 l 2
 374.55 -140 354.3 -135.5 339.9 -121.1 c 0
 325.5 -106.7 321 -87.7998 321 -56.75 c 2
EndSplineSet
EndChar

StartChar: afii57675
Encoding: 1499 1499 46
Width: 496
VWidth: 1000
Flags: W
HStem: 0 105<49.282 300.863> 495 105<54.2827 313.19>
VStem: 356 105<162.302 448.388>
AnchorPoint: "DiaToBaseD" 218 0 basechar 0
AnchorPoint: "DiaToBaseU" 230 0 basechar 0
AnchorPoint: "DiaToBase3" 240 0 basechar 0
AnchorPoint: "DiaToBase2" 230 0 basechar 0
AnchorPoint: "DiaToBase1" 230 0 basechar 0
LayerCount: 2
Back
SplineSet
197.6 0 m 2
 76 0 l 2
 65 0 60 2 56 6 c 0
 52 10 50 15 50 26 c 2
 50 44 l 2
 50 55 52 60 56 64 c 0
 60 68 65 70 76 70 c 2
 227.9 70 l 6
 333.2 70 378.7 117 394.3 180 c 4
 402.101 215 406 261 406 300 c 4
 406 339 403 385 397 420 c 4
 390.723 452.953 378.154 481.529 356 501.29 c 4
 335.8 519.309 306 530 253.5 530 c 6
 81 530 l 2
 70 530 65 532 61 536 c 0
 57 540 55 545 55 556 c 2
 55 574 l 2
 55 585 57 590 61 594 c 0
 65 598 70 600 81 600 c 2
 243 600 l 2
 272 600 316 597 338 591 c 0
 374 582 402.149 561.499 422 537.5 c 0
 455.5 497 476 427 476 300 c 0
 476 173 452.6 103 412.399 62.5 c 0
 388.579 38.501 354.8 18 311.6 9 c 0
 285.2 3 232.399 0 197.6 0 c 2
EndSplineSet
Fore
SplineSet
183 0 m 2
 79 0 l 2
 62 0 55 3 49 9 c 0
 43 15 40 22 40 39 c 2
 40 66 l 2
 40 82 43 90 49 96 c 0
 55 102 62 105 79 105 c 2
 205 105 l 2
 295 105 334.981 144.516 347 198 c 0
 353.667 227.667 356 267 356 300 c 0
 356 333 354.965 372.177 349 402 c 0
 343.333 430.333 333.667 454 314 471 c 0
 296.849 485.826 272 495 227 495 c 2
 84 495 l 2
 68 495 60 498 54 504 c 0
 48 510 45 518 45 534 c 2
 45 561 l 2
 45 578 48 585 54 591 c 0
 60 597 68 600 84 600 c 2
 228 600 l 2
 257 600 301 597 323 591 c 0
 359 582 387.889 561.744 407 538 c 0
 440 497 461 427 461 300 c 0
 461 173 438 103 397 62 c 0
 374 39 339.667 18 297 9 c 0
 269.938 3.29102 217 0 183 0 c 2
EndSplineSet
Substitution2: "WideLetters" uniFB24
Comment: "%DiaToBase1+AD0A-230+AAoA%DiaToBase2+AD0A-230+AAoA%DiaToBaseU+AD0A-230+AAoA%DiaToBase3+AD0A-240+AAoA" 
EndChar

StartChar: afii57676
Encoding: 1500 1500 47
Width: 553
VWidth: 1000
Flags: W
HStem: 0 105<307.334 370.934> 495 105<145.514 396.122>
VStem: 40 105<600.284 704.718> 186.416 120.916<75.603 153.891> 408 105<351.818 483.123>
AnchorPoint: "DiaToBaseD" 252 80 basechar 0
AnchorPoint: "DiaToBaseO" -40 0 basechar 0
AnchorPoint: "DiaToBaseU" 265 0 basechar 0
AnchorPoint: "DiaToBase3" 290 0 basechar 0
AnchorPoint: "DiaToBase2" 280 0 basechar 0
AnchorPoint: "DiaToBase1" 260 0 basechar 0
LayerCount: 2
Back
SplineSet
443.673 248.337 m 2
 324 143.501 l 2
 316.184 136.681 312.332 129.615 312.332 119.932 c 0
 312.332 108.967 315.365 105 326.216 105 c 2
 346.216 105 l 2
 362.716 105 370.216 102 376.216 96 c 0
 382.216 90 385.216 82.5 385.216 66 c 2
 385.216 39 l 2
 385.216 22.5 382.216 15 376.216 9 c 0
 370.216 3 362.716 0 346.216 0 c 2
 280.216 0 l 2
 248.535 0 229.416 7.19922 212.216 24.3994 c 0
 196.855 39.7598 191.416 62.4062 191.416 88.7998 c 16
 191.416 109.993 192.897 129.361 199.016 147.2 c 0
 207.968 173.301 224.622 196.682 247.213 216.248 c 2
 363.5 317.5 l 2
 398.436 347.919 418 379.667 418 426.668 c 2
 418 442.5 l 2
 417.837 465 414.5 475.5 406.5 483.5 c 0
 398.5 491.5 386.5 495 365.5 495 c 2
 151 495 l 6
 111.399 495 84.3994 501 65.1992 520.2 c 4
 46 539.4 40 564.6 40 606 c 6
 40 675 l 6
 40 691.5 43 699 49 705 c 4
 55 711 62.5 714 79 714 c 6
 106 714 l 6
 122.5 714 130 711 136 705 c 4
 142 699 145 691.5 145 675 c 6
 145 615 l 6
 145 603 148 600 160 600 c 6
 399.75 600 l 2
 443.4 600 471.9 593.5 492.7 572.7 c 0
 513.5 551.9 522.893 524.6 523 479.75 c 2
 523 424.333 l 2
 523 386.699 518.585 356.106 507.333 329.667 c 0
 493.993 298.32 471.613 272.812 443.673 248.337 c 2
EndSplineSet
Fore
SplineSet
433.673 248.337 m 2
 319 143.501 l 2
 311.428 136.579 307.332 129.615 307.332 119.932 c 0
 307.332 108.967 310.365 105 321.216 105 c 2
 341.216 105 l 2
 357.716 105 365.216 102 371.216 96 c 0
 377.216 90 380.216 82.5 380.216 66 c 2
 380.216 39 l 2
 380.216 22.5 377.216 15 371.216 9 c 0
 365.216 3 357.716 0 341.216 0 c 2
 275.216 0 l 2
 243.535 0 224.416 7.19922 207.216 24.3994 c 0
 191.855 39.7598 186.416 62.4062 186.416 88.7998 c 16
 186.416 109.993 187.897 129.361 194.016 147.2 c 0
 202.968 173.301 219.981 196.021 242.213 216.248 c 2
 353.5 317.5 l 2
 387.831 348.735 408 379.667 408 426.668 c 2
 408 442.5 l 2
 407.837 465 404.5 475.5 396.5 483.5 c 0
 388.5 491.5 376.5 495 355.5 495 c 2
 151 495 l 6
 111.399 495 84.3994 501 65.1992 520.2 c 4
 46 539.4 40 564.6 40 606 c 6
 40 675 l 6
 40 691.5 43 699 49 705 c 4
 55 711 62.5 714 79 714 c 6
 106 714 l 6
 122.5 714 130 711 136 705 c 4
 142 699 145 691.5 145 675 c 6
 145 615 l 6
 145 603 148 600 160 600 c 6
 389.75 600 l 2
 433.4 600 461.9 593.5 482.7 572.7 c 0
 503.5 551.9 512.893 524.6 513 479.75 c 2
 513 424.333 l 2
 513 386.699 508.585 356.106 497.333 329.667 c 0
 483.993 298.32 460.864 273.195 433.673 248.337 c 2
EndSplineSet
Substitution2: "WideLetters" uniFB25
Comment: "%DiaToBase1+AD0A-260+AAoA%DiaToBase2+AD0A-280+AAoA%DiaToBaseO+AD0A--40+AAoA%DiaToBaseU+AD0A-265+AAoA%DiaToBase3+AD0A-290+AAoA" 
EndChar

StartChar: afii57677
Encoding: 1501 1501 48
Width: 613
VWidth: 1000
Flags: W
HStem: 0 105<225.514 457.486> 495 105<49.2824 119.998 225 440.183>
VStem: 120 105<105.284 494.998> 458 105<105.284 477.185>
LayerCount: 2
Back
SplineSet
250 495 m 2
 238 495 235 492 235 480 c 2
 235 120 l 2
 235 108 238 105 250 105 c 2
 458 105 l 2
 470 105 473 108 473 120 c 2
 473 416.25 l 2
 473 450 467.75 465.75 455.75 477.75 c 0
 443.75 489.75 425.75 495 394.25 495 c 2
 250 495 l 2
115 495 m 2
 79 495 l 2
 62.5 495 55 498 49 504 c 0
 43 510 40 517.5 40 534 c 2
 40 561 l 2
 40 577.5 43 585 49 591 c 0
 55 597 62.5 600 79 600 c 2
 397.625 600 l 2
 463.1 600 505.85 590.25 537.05 559.05 c 0
 568.25 527.85 578 486.9 578 419.625 c 2
 578 111 l 2
 578 69.6006 572 44.3994 552.8 25.1992 c 0
 533.6 6 506.6 0 467 0 c 2
 241 0 l 2
 201.4 0 174.4 6 155.2 25.1992 c 0
 136 44.3994 130 69.6006 130 111 c 2
 130 480 l 2
 130 492 127 495 115 495 c 2
EndSplineSet
Fore
SplineSet
240 495 m 2
 228 495 225 492 225 480 c 2
 225 120 l 2
 225 108 228 105 240 105 c 2
 443 105 l 2
 455 105 458 108 458 120 c 2
 458 416.25 l 2
 458 450 452.75 465.75 440.75 477.75 c 0
 428.75 489.75 410.75 495 379.25 495 c 2
 240 495 l 2
105 495 m 2
 79 495 l 2
 62.5 495 55 498 49 504 c 0
 43 510 40 517.5 40 534 c 2
 40 561 l 2
 40 577.5 43 585 49 591 c 0
 55 597 62.5 600 79 600 c 2
 382.625 600 l 2
 448.1 600 490.85 590.25 522.05 559.05 c 0
 553.25 527.85 563 486.9 563 419.625 c 2
 563 111 l 2
 563 69.6006 557 44.3994 537.8 25.1992 c 0
 518.6 6 491.6 0 452 0 c 2
 231 0 l 2
 191.4 0 164.4 6 145.2 25.1992 c 0
 126 44.3994 120 69.6006 120 111 c 2
 120 480 l 2
 120 492 117 495 105 495 c 2
EndSplineSet
Substitution2: "WideLetters" uniFB26
EndChar

StartChar: afii57678
Encoding: 1502 1502 49
Width: 621
VWidth: 1000
Flags: W
HStem: 0 105<343.282 466> 495 105<49.2824 127.998> 508 97.96<313.172 439.308>
VStem: 128 105<9.28238 412.856> 466 105<105.003 482.36>
AnchorPoint: "DiaToBaseD" 356 0 basechar 0
AnchorPoint: "DiaToBaseU" 320 0 basechar 0
AnchorPoint: "DiaToBase3" 340 0 basechar 0
AnchorPoint: "DiaToBase2" 330 0 basechar 0
AnchorPoint: "DiaToBase1" 350 0 basechar 0
LayerCount: 2
Back
SplineSet
370.978 511 m 0xb8
 301.5 511 254.574 441.145 241.293 383.2 c 8
 233.938 351.113 233 330.4 233 299.2 c 2
 233 39 l 2
 233 22.5 230 15 224 9 c 0
 218 3 210.5 0 194 0 c 2
 167 0 l 2
 150.5 0 143 3 137 9 c 0
 131 15 128 22.5 128 39 c 2
 128 480 l 2
 128 492 125 495 113 495 c 2
 79 495 l 2
 62.5 495 55 498 49 504 c 0
 43 510 40 517.5 40 534 c 2
 40 561 l 2
 40 577.5 43 585 49 591 c 0
 55 597 62.5 600 79 600 c 2
 177.5 600 l 2xd8
 197.3 600 210.8 597 220.4 587.4 c 0
 230 577.8 233 565.2 233 544.5 c 2
 233 531 l 2
 233 517.5 241.243 513.156 250 527.303 c 0
 275.5 568.5 326.06 609 391 609 c 0
 451 609 491.768 589.694 519.5 556.5 c 0
 552.5 517 561 460 561 378 c 2
 561 83 l 2
 561 52 556.5 33.3008 542.1 18.8994 c 0
 527.7 4.5 507.45 0 477.75 0 c 2
 373 0 l 2
 356.5 0 349 3 343 9 c 0
 337 15 334 22.5 334 39 c 2
 334 66 l 2
 334 82.5 337 90 343 96 c 0
 349 102 356 105 373 105 c 2
 441 105 l 2
 453 105 456 108 456 120 c 2
 456 395 l 2
 456 436 451.728 465 435.228 484.75 c 0
 421.361 501.348 400.978 511 370.978 511 c 0xb8
EndSplineSet
Fore
SplineSet
377.168 508 m 0xb8
 304.575 508 255.545 433.255 241.668 371.254 c 8
 233.977 336.889 233.003 314.758 233.003 281.374 c 2
 233 39 l 2
 233 22.501 230 15 224 9 c 0
 218 3 210.5 0 194 0 c 2
 167 0 l 2
 150.5 0 143 3 137 9 c 0
 131 15 128 22.5 128 39 c 2
 128 480 l 2
 128 492 125 495 113 495 c 2
 79 495 l 2
 62.5 495 55 498 49 504 c 0
 43 510 40 517.5 40 534 c 2
 40 561 l 2
 40 577.5 43 585 49 591 c 0
 55 597 62.5 600 79 600 c 2
 177.5 600 l 2xd8
 197.3 600 210.8 597 220.4 587.4 c 0
 230 577.8 232.998 565.2 233 544.5 c 2
 233.002 524.06 l 2
 233.002 509.885 241.496 505.323 250.521 520.178 c 0
 276.798 563.435 328.898 605.96 395.818 605.96 c 0
 457.646 605.96 499.657 585.688 528.234 550.835 c 0
 562.24 509.359 571 449.51 571 363.409 c 2
 571 83 l 2
 571 52 566.5 33.3008 552.1 18.8994 c 0
 537.7 4.5 517.45 0 487.75 0 c 2
 373 0 l 2
 356.5 0 349 3 343 9 c 0
 337 15 334 22.5 334 39 c 2
 334 66 l 2
 334 82.5 337 90 343 96 c 0
 349 102 356 105 373 105 c 2
 451 105 l 2
 463 105 466 108.5 466 120 c 2
 466.003 383.88 l 2
 466.004 427.75 461.539 458.78 444.299 479.912 c 0
 429.811 497.672 408.514 508 377.168 508 c 0xb8
EndSplineSet
Comment: "%DiaToBase1+AD0A-350+AAoA%DiaToBase2+AD0A-330+AAoA%DiaToBaseU+AD0A-320+AAoA%DiaToBase3+AD0A-340+AAoA" 
EndChar

StartChar: afii57679
Encoding: 1503 1503 50
Width: 320
VWidth: 1000
Flags: HW
HStem: -140 105<263 313> 495 105<79 137>
VStem: 146 105<-56 485>
LayerCount: 2
Back
SplineSet
156 520 m 2
 156 528 154 530 146 530 c 2
 76 530 l 2
 65 530 60 532 56 536 c 0
 52 540 50 545 50 556 c 2
 50 574 l 2
 50 585 52 590 56 594 c 0
 60 598 65 600 76 600 c 2
 170.5 600 l 2
 190.3 600 203.8 597 213.4 587.4 c 0
 223 577.8 226 565.2 226 544.5 c 2
 226 -60 l 2
 226 -68 228 -70 236 -70 c 2
 286 -70 l 2
 297 -70 302 -72 306 -76 c 0
 310 -80 312 -85 312 -96 c 2
 312 -114 l 2
 312 -125 310 -130 306 -134 c 0
 302 -138 297 -140 286 -140 c 2
 211.5 -140 l 2
 191.7 -140 178.2 -137 168.6 -127.4 c 0
 159 -117.8 156 -105.2 156 -84.5 c 2
 156 520 l 2
EndSplineSet
Fore
SplineSet
146 480 m 2
 146 492 143 495 131 495 c 2
 79 495 l 2
 62.5 495 55 498 49 504 c 0
 43 510 40 517.5 40 534 c 2
 40 561 l 2
 40 577.5 43 585 49 591 c 0
 55 597 62.5 600 79 600 c 2
 167.75 600 l 2
 197.45 600 217.7 595.5 232.1 581.1 c 0
 246.5 566.7 251 547.8 251 516.75 c 2
 251 -20 l 2
 251 -32 254 -35 266 -35 c 2
 301 -35 l 2
 317.5 -35 325 -38 331 -44 c 0
 337 -50 340 -57.5 340 -74 c 2
 340 -101 l 2
 340 -117.5 337 -125 331 -131 c 0
 325 -137 317.5 -140 301 -140 c 2
 229.25 -140 l 2
 199.55 -140 179.3 -135.5 164.9 -121.1 c 0
 150.5 -106.7 146 -87.7998 146 -56.75 c 2
 146 480 l 2
EndSplineSet
EndChar

StartChar: afii57680
Encoding: 1504 1504 51
Width: 353
VWidth: 1000
Flags: W
HStem: 0 105<49.2824 198> 495 105<74.7824 198>
VStem: 198 105<105.002 494.998>
AnchorPoint: "DiaToBaseD" 106 0 basechar 0
AnchorPoint: "DiaToBaseU" 160 0 basechar 0
AnchorPoint: "DiaToBase3" 170 0 basechar 0
AnchorPoint: "DiaToBase2" 165 0 basechar 0
AnchorPoint: "DiaToBase1" 170 0 basechar 0
LayerCount: 2
Back
SplineSet
193 520 m 2
 193 528 191 530 183 530 c 2
 93 530 l 2
 82 530 77 532 73 536 c 0
 69 540 67 545 67 556 c 2
 67 574 l 2
 67 585 69 590 73 594 c 0
 77 598 82 600 93 600 c 2
 207.5 600 l 2
 227.3 600 240.8 597 250.4 587.4 c 0
 260 577.8 263 565.2 263 544.5 c 2
 263 55.5 l 2
 263 34.7998 260 22.2002 250.4 12.5996 c 0
 240.8 3 227.3 0 207.5 0 c 2
 76 0 l 2
 65 0 60 2 56 6 c 0
 52 10 50 15 50 26 c 2
 50 44 l 2
 50 55 52 60 56 64 c 0
 60 68 65 70 76 70 c 2
 183 70 l 2
 191 70 193 72 193 80 c 2
 193 520 l 2
EndSplineSet
Fore
SplineSet
198 480 m 2
 198 492 195 495 183 495 c 2
 104.5 495 l 2
 88 495 80.5 498 74.5 504 c 0
 68.5 510 65.5 517.5 65.5 534 c 2
 65.5 561 l 2
 65.5 577.5 68.5 585 74.5 591 c 0
 80.5 597 88 600 104.5 600 c 2
 219.75 600 l 2
 249.45 600 269.7 595.5 284.1 581.1 c 0
 298.5 566.7 303 547.8 303 516.75 c 2
 303 83.25 l 2
 303 52.1992 298.5 33.3008 284.1 18.8994 c 0
 269.7 4.5 249.45 0 219.75 0 c 2
 79 0 l 2
 62.5 0 55 3 49 9 c 0
 43 15 40 22.5 40 39 c 2
 40 66 l 2
 40 82.5 43 90 49 96 c 0
 55 102 62.5 105 79 105 c 2
 183 105 l 2
 195 105 198 108 198 120 c 2
 198 480 l 2
EndSplineSet
Comment: "%DiaToBase1+AD0A-170+AAoA%DiaToBase2+AD0A-165+AAoA%DiaToBaseU+AD0A-160+AAoA%DiaToBase3+AD0A-170+AAoA" 
EndChar

StartChar: afii57681
Encoding: 1505 1505 52
Width: 604
VWidth: 1000
Flags: W
HStem: -7.03711 103.029<256.55 412.923> 495 105<49.282 113.998 219 431.433>
VStem: 114.001 105<132.994 494.998> 449 104.999<132.711 476.435>
AnchorPoint: "DiaToBaseD" 340 0 basechar 0
AnchorPoint: "DiaToBaseU" 315 0 basechar 0
AnchorPoint: "DiaToBase3" 335 0 basechar 0
AnchorPoint: "DiaToBase2" 325 0 basechar 0
AnchorPoint: "DiaToBase1" 330 0 basechar 0
LayerCount: 2
Back
SplineSet
219 229 m 2
 219 186 222 162 234 140 c 0
 254 107 288 96 329 96 c 0
 368 96 404 106 424 140 c 0
 436 162 439 185 439 229 c 2
 439 417 l 2
 439 450 434 465 422 477 c 0
 410 489 392 495 360 495 c 2
 234 495 l 2
 222 495 219 492 219 480 c 2
 219 229 l 2
114 207 m 2
 114 480 l 2
 114 492 111 495 99 495 c 2
 79 495 l 6
 62 495 55 498 49 504 c 4
 43 510 40 518 40 534 c 6
 40 561 l 6
 40 578 43 585 49 591 c 4
 55 597 62 600 79 600 c 6
 364 600 l 2
 428 600 472 591 504 560 c 0
 534 528 544 488 544 420 c 2
 544 207 l 2
 544 133 533 99 505 63 c 0
 474 24 409 -7 330 -7 c 0
 252 -7 184 23 153 63 c 0
 125 99 114 133 114 207 c 2
EndSplineSet
Fore
SplineSet
219.001 240.963 m 2
 219.001 194.093 222.137 167.933 234.683 143.952 c 0
 255.591 107.982 291.137 95.9922 334 95.9922 c 0
 374.772 95.9922 412.409 106.893 433.317 143.952 c 0
 445.863 167.933 449 193.003 449 240.963 c 2
 449 417 l 2
 447.128 449.947 444 465 432 477 c 0
 420 489 402 495 370 495 c 2
 234 495 l 2
 222 495 219 491.999 219 480 c 2
 219.001 240.963 l 2
114.001 215.523 m 2
 114 480 l 2
 114 492 111 495 99 495 c 2
 79 495 l 2
 62 495 55 498 49 504 c 0
 43 510 40 518 40 534 c 2
 40 561 l 2
 40 578 43 585 49 591 c 0
 55 597 62 600 79 600 c 2
 374 600 l 2
 438 600 482 591 514 560 c 0
 544 528 550.679 487.92 554 420 c 2
 553.999 215.523 l 2
 553.999 138.563 542.743 103.203 514.092 65.7627 c 0
 482.371 25.2031 415.86 -7.03711 335.023 -7.03711 c 0
 255.21 -7.03711 185.629 24.1631 153.908 65.7627 c 0
 125.257 103.203 114.001 138.563 114.001 215.523 c 2
EndSplineSet
Comment: "%DiaToBase1+AD0A-330+AAoA%DiaToBase2+AD0A-325+AAoA%DiaToBaseU+AD0A-315+AAoA%DiaToBase3+AD0A-335+AAoA" 
EndChar

StartChar: afii57682
Encoding: 1506 1506 53
Width: 592
VWidth: 1000
Flags: W
HStem: 0 105<55.2824 149 254 375.815> 495 105<49.2824 149 348.282 437>
VStem: 149 105<105.002 494.998> 437 105<165.747 495>
LayerCount: 2
Back
SplineSet
238.994 70 m 16
 303 70 361.411 77.5365 400.438 116.563 c 0
 434.5 150.626 447 190 447 278.006 c 2
 447 520 l 2
 447 528 445 530 437 530 c 2
 375.4 530 l 2
 364.4 530 359.4 532 355.4 536 c 0
 351.4 540 349.4 545 349.4 556 c 2
 349.4 574 l 2
 349.4 585 351.4 590 355.4 594 c 0
 359.4 598 364.4 600 375.4 600 c 2
 461.5 600 l 2
 481.3 600 494.8 597 504.4 587.4 c 0
 514 577.8 517 565.2 517 544.5 c 2
 517.004 296 l 2
 517.005 245.901 516.316 204.744 507 167.5 c 0
 497.627 130.03 479.545 96.5457 453 70 c 0
 425.076 42.0768 392.435 23.2217 352.5 12.5 c 0
 316.737 2.89822 274.729 0 231.5 0 c 2
 80 0 l 2
 69 0 64 2 60 6 c 0
 56 10 54 15 54 26 c 2
 54 44 l 2
 54 55 56 60 60 64 c 0
 64 68 69 70 80 70 c 2
 149 70 l 2
 157 70 159 72 159 80 c 2
 159 520 l 2
 159 528 157 530 149 530 c 2
 76 530 l 2
 65 530 60 532 56 536 c 0
 52 540 50 545 50 556 c 2
 50 574 l 2
 50 585 52 590 56 594 c 0
 60 598 65 600 76 600 c 2
 173.5 600 l 2
 193.3 600 206.8 597 216.4 587.4 c 0
 226 577.8 229 565.2 229 544.5 c 2
 229 80 l 2
 229 72 233.48 70 238.994 70 c 16
EndSplineSet
Fore
SplineSet
268.991 105 m 16
 323 105 368.283 113.817 401.5 150 c 0
 429.5 180.5 437 220.5 437 302.006 c 2
 437 480 l 2
 437 492 434 495 422 495 c 2
 378 495 l 2
 361.5 495 354 498 348 504 c 0
 342 510 339 517.5 339 534 c 2
 339 561 l 2
 339 577.5 342 585 348 591 c 0
 354 597 361.5 600 378 600 c 2
 458.75 600 l 2
 488.45 600 508.7 595.5 523.1 581.1 c 0
 537.5 566.7 542 547.8 542 516.75 c 2
 542 296 l 2
 542 245.901 541.312 204.744 531.996 167.5 c 0
 522.623 130.03 504.541 96.5459 477.996 70 c 0
 450.072 42.0771 417.431 23.2217 377.496 12.5 c 0
 341.733 2.89844 299.725 0 256.496 0 c 2
 85 0 l 2
 68.5 0 61 3 55 9 c 0
 49 15 46 22.5 46 39 c 2
 46 66 l 2
 46 82.5 49 90 55 96 c 0
 61 102 68.5 105 85 105 c 2
 134 105 l 2
 146 105 149 108 149 120 c 2
 149 480 l 2
 149 492 146 495 134 495 c 2
 79 495 l 2
 62.5 495 55 498 49 504 c 0
 43 510 40 517.5 40 534 c 2
 40 561 l 2
 40 577.5 43 585 49 591 c 0
 55 597 62.5 600 79 600 c 2
 170.75 600 l 2
 200.45 600 220.7 595.5 235.1 581.1 c 0
 249.5 566.7 254 547.8 254 516.75 c 2
 254 120 l 2
 254 108 260.721 105 268.991 105 c 16
EndSplineSet
Substitution2: "MiscSAlt" uniFB20
Substitution2: "Single Substitution lookup 11 subtable" uniFB20
EndChar

StartChar: afii57683
Encoding: 1507 1507 54
Width: 542
VWidth: 1000
Flags: W
HStem: -140 105<494 562.718> 220 105<155.514 255.718> 495 105<155.514 388.486>
VStem: 50 105<325.284 494.716> 389 105<-35 494.716>
AnchorPoint: "DiaToBaseD" 312 59 basechar 0
LayerCount: 2
Back
SplineSet
130 294 m 2
 223 294 l 2
 234 294 239 292 243 288 c 0
 247 284 249 279 249 268 c 2
 249 250 l 2
 249 239 247 234 243 230 c 0
 239 226 234 224 223 224 c 2
 124 224 l 2
 97.5996 224 79.5996 228 66.7998 240.8 c 0
 54 253.6 50 270.4 50 298 c 2
 50 526 l 2
 50 553.6 54 570.4 66.7998 583.2 c 0
 79.5996 596 97.5996 600 124 600 c 2
 375 600 l 2
 401.4 600 419.4 596 432.2 583.2 c 0
 445 570.4 449 553.6 449 526 c 2
 449 -60 l 2
 449 -68 451 -70 459 -70 c 2
 509 -70 l 2
 520 -70 525 -72 529 -76 c 0
 533 -80 535 -85 535 -96 c 2
 535 -114 l 2
 535 -125 533 -130 529 -134 c 0
 525 -138 520 -140 509 -140 c 2
 434.5 -140 l 2
 414.7 -140 401.2 -137 391.6 -127.4 c 0
 382 -117.8 379 -105.2 379 -84.5 c 2
 379 520 l 2
 379 528 377 530 369 530 c 2
 130 530 l 2
 122 530 120 528 120 520 c 2
 120 304 l 2
 120 296 122 294 130 294 c 2
EndSplineSet
Fore
SplineSet
170 325 m 2
 226 325 l 2
 242.5 325 250 322 256 316 c 0
 262 310 265 302.5 265 286 c 2
 265 259 l 2
 265 242.5 262 235 256 229 c 0
 250 223 242.5 220 226 220 c 2
 161 220 l 2
 121.399 220 94.3994 226 75.1992 245.2 c 0
 56 264.4 50 289.6 50 331 c 2
 50 489 l 2
 50 530.4 56 555.6 75.1992 574.8 c 0
 94.3994 594 121.399 600 161 600 c 2
 383 600 l 6
 422.6 600 449.6 594 468.8 574.8 c 4
 488 555.6 494 530.4 494 489 c 6
 494 -20 l 6
 494 -32 497 -35 509 -35 c 6
 533 -35 l 2
 549.5 -35 557 -38 563 -44 c 0
 569 -50 572 -57.5 572 -74 c 2
 572 -101 l 2
 572 -117.5 569 -125 563 -131 c 0
 557 -137 549.5 -140 533 -140 c 2
 472.25 -140 l 6
 442.55 -140 422.3 -135.5 407.9 -121.1 c 4
 393.5 -106.7 389 -87.7998 389 -56.75 c 6
 389 480 l 6
 389 492 386 495 374 495 c 6
 170 495 l 2
 158 495 155 492 155 480 c 2
 155 340 l 2
 155 328 158 325 170 325 c 2
EndSplineSet
EndChar

StartChar: afii57684
Encoding: 1508 1508 55
Width: 556
VWidth: 1000
Flags: W
HStem: 0 105<69.2824 383.183> 220 105<165.514 285.718> 495 105<165.514 400.486>
VStem: 60 105<325.284 494.716> 401 105<122.815 494.716>
AnchorPoint: "DiaToBaseD" 329 44 basechar 0
AnchorPoint: "DiaToBaseU" 280 0 basechar 0
AnchorPoint: "DiaToBase3" 280 0 basechar 0
AnchorPoint: "DiaToBase2" 275 0 basechar 0
AnchorPoint: "DiaToBase1" 280 0 basechar 0
LayerCount: 2
Back
SplineSet
391 122.5 m 6
 391 520 l 6
 391 528 389 530 381 530 c 6
 138 530 l 2
 130 530 128 528 128 520 c 2
 128 316 l 2
 128 308 130 306 138 306 c 2
 248 306 l 2
 259 306 264 304 268 300 c 0
 272 296 274 291 274 280 c 2
 274 262 l 2
 274 251 272 246 268 242 c 0
 264 238 259 236 248 236 c 2
 132 236 l 2
 105.6 236 87.5996 240 74.7998 252.8 c 0
 62 265.6 58 282.4 58 310 c 2
 58 526 l 2
 58 553.6 62 570.4 74.7998 583.2 c 0
 87.5996 596 105.6 600 132 600 c 2
 387 600 l 6
 413.4 600 431.4 596 444.2 583.2 c 4
 457 570.4 461 553.6 461 526 c 6
 461 120.25 l 6
 461 75.6504 454.5 48.0996 433.7 27.2998 c 4
 412.9 6.5 384.4 0 340.75 0 c 6
 76 0 l 2
 65 0 60 2 56 6 c 0
 52 10 50 15 50 26 c 2
 50 44 l 2
 50 55 52 60 56 64 c 0
 60 68 65 70 76 70 c 2
 338.5 70 l 6
 359.5 70 371.5 73.5 379.5 81.5 c 4
 387.5 89.5 391 99.5 391 122.5 c 6
EndSplineSet
Fore
SplineSet
401 183.75 m 2
 401 480 l 2
 401 492 398 495 386 495 c 2
 180 495 l 2
 168 495 165 492 165 480 c 2
 165 340 l 2
 165 328 168 325 180 325 c 2
 256 325 l 2
 272.5 325 280 322 286 316 c 0
 292 310 295 302.5 295 286 c 2
 295 259 l 2
 295 242.5 292 235 286 229 c 0
 280 223 272.5 220 256 220 c 2
 171 220 l 2
 131.4 220 104.399 226 85.1992 245.2 c 0
 66 264.4 60 289.6 60 331 c 2
 60 489 l 2
 60 530.4 66 555.6 85.1992 574.8 c 0
 104.399 594 131.4 600 171 600 c 2
 395 600 l 2
 434.6 600 461.6 594 480.8 574.8 c 0
 500 555.6 506 530.4 506 489 c 2
 506 180.375 l 2
 506 113.476 496.25 72.1494 465.05 40.9492 c 0
 433.85 9.75 391.1 0 325.625 0 c 2
 99 0 l 2
 82.5 0 75 3 69 9 c 0
 63 15 60 22.5 60 39 c 2
 60 66 l 2
 60 82.5 63 90 69 96 c 0
 75 102 82.5 105 99 105 c 2
 322.25 105 l 2
 353.75 105 371.75 110.25 383.75 122.25 c 0
 395.75 134.25 401 149.25 401 183.75 c 2
EndSplineSet
Comment: "%DiaToBase1+AD0A-280+AAoA%DiaToBase2+AD0A-275+AAoA%DiaToBaseU+AD0A-280+AAoA%DiaToBase3+AD0A-280+AAoA" 
EndChar

StartChar: afii57685
Encoding: 1509 1509 56
Width: 609
VWidth: 1000
Flags: HW
HStem: -140 105<253 319> 495 105<69 127 375 447>
VStem: 136 105<-56 165 -56 485> 136 211<-77 -56>
LayerCount: 2
Back
SplineSet
456 520 m 0
 456 528 454 530 446 530 c 2
 368.5 530 l 2
 357.5 530 352.5 532 348.5 536 c 0
 344.5 540 342.5 545 342.5 556 c 2
 342.5 574 l 2
 342.5 585 344.5 590 348.5 594 c 0
 352.5 598 357.5 600 368.5 600 c 2
 470.5 600 l 2
 490.3 600 503.8 597 513.4 587.4 c 0
 523 577.8 526 565 526 544.5 c 0
 526 490.92 521.024 443.851 504 402 c 0
 480 343 436.679 298.173 369.5 271 c 0
 325 253 275.5 245.5 236 241 c 0
 228.051 240.094 226 239 226 231 c 2
 226 -60 l 2
 226 -68 228 -70 236 -70 c 2
 308 -70 l 2
 319 -70 324 -72 328 -76 c 0
 332 -80 334 -85 334 -96 c 2
 334 -114 l 2
 334 -125 332 -130 328 -134 c 0
 324 -138 319 -140 308 -140 c 2
 211.5 -140 l 2
 191.7 -140 178.2 -137 168.6 -127.4 c 0
 159 -117.8 156 -105.2 156 -84.5 c 2
 156 520 l 2
 156 528 154 530 146 530 c 2
 76 530 l 2
 65 530 60 532 56 536 c 0
 52 540 50 545 50 556 c 2
 50 574 l 2
 50 585 52 590 56 594 c 0
 60 598 65 600 76 600 c 2
 170.5 600 l 2
 190.3 600 203.8 597 213.4 587.4 c 0
 223 577.8 226 565.2 226 544.5 c 2
 226 325 l 2
 226 317 228.338 314.738 236 315 c 0
 269.635 316.15 308.732 322.415 343.5 337.412 c 0
 384.956 355.293 421.638 387.218 439.723 429 c 0
 452.894 459.427 456 491.804 456 520 c 0
EndSplineSet
Fore
SplineSet
251 516.75 m 6
 251 300 l 2
 251 288 254.507 284.607 266 285 c 0
 296.271 286.093 331.459 292.042 362.75 306.284 c 0
 400.061 323.265 433.074 353.582 449.352 393.261 c 0
 461.205 422.155 464 452.902 464 479.679 c 0
 464 492 461 495 449 495 c 2
 385 495 l 2
 368.5 495 361 498 355 504 c 0
 349 510 346 517.5 346 534 c 2
 346 561 l 2
 346 577.5 349 585 355 591 c 0
 361 597 368.5 600 385 600 c 2
 485.75 600 l 2
 515.45 600 535.7 595.5 550.1 581.1 c 0
 564.5 566.7 569 547.5 569.021 517.168 c 0
 569.021 456.585 563.821 403.364 546.033 356.043 c 0
 520.955 289.332 475.689 238.646 405.494 207.921 c 0
 358.996 187.568 307.273 179.089 266 174 c 0xe0
 254.076 172.641 251 171 251 159 c 2
 251 -20 l 2xe0
 251 -32 254 -35 266 -35 c 2
 318 -35 l 2
 334.5 -35 342 -38 348 -44 c 0
 354 -50 357 -57.5 357 -74 c 2
 357 -101 l 2
 357 -117.5 354 -125 348 -131 c 0
 342 -137 334.5 -140 318 -140 c 2
 229.25 -140 l 2
 199.55 -140 179.3 -135.5 164.9 -121.1 c 0
 150.5 -106.7 146 -87.7998 146 -56.75 c 2xd0
 146 480 l 2
 146 492 143 495 131 495 c 2
 79 495 l 2
 62.5 495 55 498 49 504 c 0
 43 510 40 517.5 40 534 c 2
 40 561 l 2
 40 577.5 43 585 49 591 c 0
 55 597 62.5 600 79 600 c 2
 167.75 600 l 2
 197.45 600 217.7 595.5 232.1 581.1 c 0
 246.5 566.7 251 547.8 251 516.75 c 6
EndSplineSet
EndChar

StartChar: afii57686
Encoding: 1510 1510 57
Width: 591
VWidth: 1000
Flags: W
HStem: 0 105<62.7824 411.827> 495 105<49.2824 135.998 345.282 435.998>
VStem: 136 105<413.852 494.998> 411.829 113.171<67 167.284> 436 105<408.168 495>
AnchorPoint: "DiaToBaseD" 216 -108 basechar 0
AnchorPoint: "DiaToBaseU" 285 0 basechar 0
AnchorPoint: "DiaToBase3" 295 0 basechar 0
AnchorPoint: "DiaToBase2" 290 0 basechar 0
AnchorPoint: "DiaToBase1" 290 0 basechar 0
LayerCount: 2
Back
SplineSet
241 516 m 0
 241 463 249.783 433.814 281.75 405 c 2
 327.5 364.5 l 2
 335.6 357.33 342.291 358.129 352 362.75 c 0
 369.333 371 383.526 381.794 395 393.5 c 0
 419.667 418.667 436 447.667 436 480 c 0
 436 492 433 495 421 495 c 2
 375 495 l 2
 358.5 495 351 498 345 504 c 0
 339 510 336 517.5 336 534 c 2
 336 561 l 2
 336 577.5 339 585 345 591 c 0
 351 597 358.5 600 375 600 c 2
 457 600 l 2
 487 600 508 595.5 521.5 580.5 c 0
 536.5 567 541 547.5 541 516 c 8
 541 416.845 507.148 348.384 428.5 288 c 16
 423.429 284.106 425.363 276.299 430 272.196 c 16
 512.5 199.196 525 187.102 525 84 c 0
 525 50 520.5 33 505.5 19.5 c 0
 492 4.5 471 0 441 0 c 2
 92.5 0 l 2
 76 0 68.5 3 62.5 9 c 0
 56.5 15 53.5 22.5 53.5 39 c 2
 53.5 66 l 2
 53.5 82.5 56.5 90 62.5 96 c 0
 68.5 102 76 105 92.5 105 c 2
 397.33 105 l 2
 409.33 105 411.829 112.582 411.829 121.004 c 16
 411.829 137.833 400.873 158.124 367 188 c 2
 206 330 l 2
 153.007 376.739 136 415.443 136 480 c 16
 136 492 133 495 121 495 c 2
 79 495 l 2
 62.5 495 55 498 49 504 c 0
 43 510 40 517.5 40 534 c 2
 40 561 l 2
 40 577.5 43 585 49 591 c 0
 55 597 62.5 600 79 600 c 2
 157 600 l 2
 187 600 208 595.5 221.5 580.5 c 0
 236.5 567 241 547.5 241 516 c 0
EndSplineSet
Fore
SplineSet
541 516 m 2xe8
 541 506 l 2xe8
 541 407.5 508.282 343.37 432 284.804 c 16
 426.929 280.91 428.892 273.135 433.5 269 c 0
 511.5 199 525 187.102 525 84 c 0
 525 50 520.5 33 505.5 19.5 c 0
 492 4.5 471 0 441 0 c 2
 92.5 0 l 2
 76 0 68.5 3 62.5 9 c 0
 56.5 15 53.5 22.5 53.5 39 c 2
 53.5 66 l 2
 53.5 82.5 56.5 90 62.5 96 c 0
 68.5 102 76 105 92.5 105 c 2
 397.33 105 l 2
 409.33 105 411.829 112.582 411.829 121.004 c 16xf0
 411.829 137.833 401.928 159.364 367 188 c 2
 206 320 l 2
 153.007 366.739 136 406 136 470 c 2
 136 480 l 2
 136 492 133 495 121 495 c 2
 79 495 l 2
 62.5 495 55 498 49 504 c 0
 43 510 40 517.5 40 534 c 2
 40 561 l 2
 40 577.5 43 585 49 591 c 0
 55 597 62.5 600 79 600 c 2
 157 600 l 2
 187 600 208 595.5 221.5 580.5 c 0
 236.5 567 241 547.5 241 516 c 2
 241 506 l 2
 241 453 248.377 422.175 281.75 395.001 c 2
 327.499 357.75 l 2
 335.6 350.579 342.29 351.379 351.999 356 c 0
 369.332 364.25 383.525 375.044 394.999 386.75 c 0
 419.666 411.917 436 437.667 436 470 c 2
 436 480 l 2
 436 492 433 495 421 495 c 2
 375 495 l 2
 358.5 495 351 498 345 504 c 0
 339 510 336 517.5 336 534 c 2
 336 561 l 2
 336 577.5 339 585 345 591 c 0
 351 597 358.5 600 375 600 c 2
 457 600 l 2
 487 600 508 595.5 521.5 580.5 c 0
 536.5 567 541 547.5 541 516 c 2xe8
EndSplineSet
Comment: "%DiaToBase1+AD0A-290+AAoA%DiaToBase2+AD0A-290+AAoA%DiaToBaseU+AD0A-285+AAoA%DiaToBase3+AD0A-295+AAoA" 
EndChar

StartChar: afii57687
Encoding: 1511 1511 58
Width: 569
VWidth: 1000
Flags: W
HStem: -140 21G<114.75 158.25> 0 105<365.843 428.768> 495 105<59.2824 412.122>
VStem: 84 105<-130.718 395.718> 244.25 193.8<25.1247 95.7176> 424 105<355.526 483.123>
AnchorPoint: "DiaToBaseD" 292 80 basechar 0
AnchorPoint: "DiaToBaseU" 405 0 basechar 0
AnchorPoint: "DiaToBase3" 430 0 basechar 0
AnchorPoint: "DiaToBase2" 380 0 basechar 0
AnchorPoint: "DiaToBase1" 290 0 basechar 0
LayerCount: 2
Back
SplineSet
473 374 m 2
 473 329 460 299 436 270 c 2
 318 128 l 2
 311 120 308 112 308 100 c 2
 308 80 l 2
 308 72 310 70 318 70 c 2
 366 70 l 2
 377 70 382 68 386 64 c 0
 390 60 392 55 392 44 c 2
 392 26 l 2
 392 15 390 10 386 6 c 0
 382 2 377 0 366 0 c 2
 294 0 l 2
 274 0 260 3 251 13 c 0
 241 22 238 35 238 56 c 2
 238 100 l 2
 238 132 247 153 263 172 c 2
 380 312 l 2
 395 330 403 353 403 384 c 2
 403 478 l 2
 403 500 400 510 392 518 c 0
 384 526 372 530 351 530 c 2
 76 530 l 2
 65 530 60 532 56 536 c 0
 52 540 50 545 50 556 c 2
 50 574 l 2
 50 585 52 590 56 594 c 0
 60 598 65 600 76 600 c 2
 353 600 l 2
 397 600 425 594 446 573 c 0
 467 552 473 525 473 480 c 2
 473 374 l 2
154 -114 m 2
 154 -125 152 -130 148 -134 c 0
 144 -138 139 -140 128 -140 c 2
 110 -140 l 2
 99 -140 94 -138 90 -134 c 0
 86 -130 84 -125 84 -114 c 2
 84 398 l 2
 84 409 86 414 90 418 c 0
 94 422 99 424 110 424 c 2
 128 424 l 2
 139 424 144 422 148 418 c 0
 152 414 154 409 154 398 c 2
 154 -114 l 2
EndSplineSet
Fore
SplineSet
529 424.333 m 6xf4
 529 401.422 527.463 377.555 521.25 356.25 c 0
 514.627 333.54 502.971 314.021 490.75 297.5 c 2
 376.834 143.501 l 2
 370.353 134.739 364 126.25 365.75 117.75 c 0
 367.698 108.289 372.5 105 382.384 105 c 2
 399.05 105 l 2
 415.55 105 423.05 102 429.05 96 c 0
 435.05 90 438.05 82.5 438.05 66 c 2
 438.05 39 l 2
 438.05 22.5 435.05 15 429.05 9 c 0
 423.05 3 415.55 0 399.05 0 c 2
 333.05 0 l 2
 301.369 0 282.25 7.19922 265.05 24.3994 c 0
 249.689 39.7598 244.25 62.4062 244.25 88.7998 c 16xf8
 244.25 140.5 270.971 176.021 300.047 216.248 c 2
 399.25 353.5 l 2
 414.862 375.1 424 397 424 426.668 c 2
 424 442.5 l 2
 424 465.001 420.5 475.5 412.5 483.5 c 0
 404.5 491.5 392.5 495 371.5 495 c 2
 89 495 l 2
 72.5 495 65 498 59 504 c 0
 53 510 50 517.5 50 534 c 2
 50 561 l 2
 50 577.5 53 585 59 591 c 0
 65 597 72.5 600 89 600 c 2
 405.75 600 l 2
 449.15 600 477.9 593.5 498.7 572.7 c 0
 519.5 551.9 529 524.6 529 479.75 c 2
 529 424.333 l 6xf4
189 -101 m 2
 189 -117.5 186 -125 180 -131 c 0
 174 -137 166.5 -140 150 -140 c 2
 123 -140 l 2
 106.5 -140 99 -137 93 -131 c 0
 87 -125 84 -117.5 84 -101 c 2
 84 366 l 2
 84 382.5 87 390 93 396 c 0
 99 402 106.5 405 123 405 c 2
 150 405 l 2
 166.5 405 174 402 180 396 c 0
 186 390 189 382.5 189 366 c 2
 189 -101 l 2
EndSplineSet
Comment: "%DiaToBase1+AD0A-290+AAoA%DiaToBase2+AD0A-380+AAoA%DiaToBaseU+AD0A-405+AAoA%DiaToBase3+AD0A-430+AAoA" 
EndChar

StartChar: afii57688
Encoding: 1512 1512 59
Width: 521
VWidth: 1000
Flags: W
HStem: 0 21G<396.75 440.25> 495 105<49.2824 348.183>
VStem: 366 105<9.28238 477.185>
AnchorPoint: "DiaToBaseD" 234 0 basechar 0
AnchorPoint: "DiaToBaseU" 310 0 basechar 0
AnchorPoint: "DiaToBase3" 350 0 basechar 0
AnchorPoint: "DiaToBase2" 350 0 basechar 0
AnchorPoint: "DiaToBase1" 400 0 basechar 0
LayerCount: 2
Back
SplineSet
326.75 600 m 2
 370.4 600 398.9 593.5 419.7 572.7 c 0
 440.5 551.9 447 524.6 447 479.75 c 2
 447 26 l 2
 447 15 445 10 441 6 c 0
 437 2 432 0 421 0 c 2
 403 0 l 2
 392 0 387 2 383 6 c 0
 379 10 377 15 377 26 c 2
 377 477.5 l 2
 377 500 373.5 510.5 365.5 518.5 c 0
 357.5 526.5 345.5 530 324.5 530 c 2
 76 530 l 2
 65 530 60 532 56 536 c 0
 52 540 50 545 50 556 c 2
 50 574 l 2
 50 585 52 590 56 594 c 0
 60 598 65 600 76 600 c 2
 326.75 600 l 2
EndSplineSet
Fore
SplineSet
290.625 600 m 2
 356.1 600 398.85 590.25 430.05 559.05 c 0
 461.25 527.85 471 486.9 471 419.625 c 2
 471 39 l 2
 471 22.5 468 15 462 9 c 0
 456 3 448.5 0 432 0 c 2
 405 0 l 2
 388.5 0 381 3 375 9 c 0
 369 15 366 22.5 366 39 c 2
 366 416.25 l 2
 366 450 360.75 465.75 348.75 477.75 c 0
 336.75 489.75 318.75 495 287.25 495 c 2
 79 495 l 2
 62.5 495 55 498 49 504 c 0
 43 510 40 517.5 40 534 c 2
 40 561 l 2
 40 577.5 43 585 49 591 c 0
 55 597 62.5 600 79 600 c 2
 290.625 600 l 2
EndSplineSet
Substitution2: "WideLetters" uniFB27
Comment: "%DiaToBase1+AD0A-400+AAoA%DiaToBase2+AD0A-350+AAoA%DiaToBaseU+AD0A-310+AAoA%DiaToBase3+AD0A-350+AAoA" 
EndChar

StartChar: afii57689
Encoding: 1513 1513 60
Width: 741
VWidth: 1000
Flags: HMW
HStem: 0 105<277 327 444.362 503> 495 105<153 215 563 583>
VStem: 70 105<207 482> 333 105<120 563> 596 105<207 482>
AnchorPoint: "DiaToBaseD" 508 0 basechar 0
AnchorPoint: "DiaToBaseU" 375 0 basechar 0
AnchorPoint: "DiaToBase3" 370 0 basechar 0
AnchorPoint: "DiaToBase2" 375 0 basechar 0
AnchorPoint: "DiaToBase1" 370 0 basechar 0
LayerCount: 2
Back
SplineSet
283 70 m 2
 291 70 293 72 293 80 c 2
 293 574 l 2
 293 585 295 590 299 594 c 0
 303 598 308 600 319 600 c 2
 337 600 l 2
 348 600 353 598 357 594 c 0
 361 590 363 585 363 574 c 2
 363 80 l 2
 363 72 365 70 373 70 c 2
 431 70 l 2
 472 70 497 77 513 93 c 0
 529 109 536 130 536 175 c 2
 536 520 l 2
 536 528 534 530 526 530 c 2
 494 530 l 2
 483 530 478 532 474 536 c 0
 470 540 468 545 468 556 c 2
 468 574 l 2
 468 585 470 590 474 594 c 0
 478 598 483 600 494 600 c 2
 550.5 600 l 2
 570.3 600 583.8 597 593.4 587.4 c 0
 603 577.8 606 565.2 606 544.5 c 2
 606 185 l 2
 606 116 596 74 564 42 c 0
 532 10 487 0 421 0 c 2
 235 0 l 2
 169 0 124 10 92 42 c 0
 60 74 50 116 50 185 c 2
 50 544.5 l 2
 50 565.2 53 577.8 62.5996 587.4 c 0
 72.2002 597 85.7002 600 105.5 600 c 2
 162 600 l 2
 173 600 178 598 182 594 c 0
 186 590 188 585 188 574 c 2
 188 556 l 2
 188 545 186 540 182 536 c 0
 178 532 173 530 162 530 c 2
 130 530 l 2
 122 530 120 528 120 520 c 2
 120 175 l 2
 120 130 127 109 143 93 c 0
 159 77 184 70 225 70 c 2
 283 70 l 2
EndSplineSet
Fore
SplineSet
308 105 m 2
 320 105 323 108 323 120 c 2
 323 561 l 2
 323 578 326 585 332 591 c 0
 338 597 346 600 362 600 c 2
 389 600 l 2
 406 600 413 597 419 591 c 0
 425 585 428 578 428 561 c 2
 428 120 l 2
 428 108 431 105 443 105 c 2
 468 105 l 2
 514 105 542 113 560 131 c 0
 578 149 586 172 586 223 c 2
 586 480 l 2
 586 492 583 495 571 495 c 2
 553 495 l 2
 536 495 529 498 523 504 c 0
 517 510 514 518 514 534 c 2
 514 561 l 2
 514 578 517 585 523 591 c 0
 529 597 536 600 553 600 c 2
 608 600 l 2
 637 600 658 596 672 581 c 0
 686 567 691 548 691 517 c 2
 691 229 l 2
 691 144 679 92 639 52 c 0
 599 12 544 0 462 0 c 2
 289 0 l 2
 207 0 152 12 112 52 c 0
 72 92 60 144 60 229 c 2
 60 517 l 2
 60 548 64 567 79 581 c 0
 93 596 114 600 143 600 c 2
 198 600 l 2
 214 600 222 597 228 591 c 0
 234 585 237 578 237 561 c 2
 237 534 l 2
 237 518 234 510 228 504 c 0
 222 498 214 495 198 495 c 2
 180 495 l 2
 168 495 165 492 165 480 c 2
 165 223 l 2
 165 172 173 149 191 131 c 0
 209 113 237 105 283 105 c 2
 308 105 l 2
EndSplineSet
Comment: "%DiaToBase1+AD0A-370+AAoA%DiaToBase2+AD0A-375+AAoA%DiaToBaseU+AD0A-375+AAoA%DiaToBase3+AD0A-370+AAoA" 
EndChar

StartChar: afii57690
Encoding: 1514 1514 61
Width: 629
VWidth: 1000
Flags: W
HStem: 0 105<49.2824 140.486> 495 105<53.7824 141 246.002 456.183>
VStem: 141 105<105.284 494.998> 474 105<9.28238 477.185>
AnchorPoint: "DiaToBaseD" 360 0 basechar 0
AnchorPoint: "DiaToBaseU" 330 0 basechar 0
AnchorPoint: "DiaToBase3" 320 0 basechar 0
AnchorPoint: "DiaToBase2" 330 0 basechar 0
AnchorPoint: "DiaToBase1" 330 0 basechar 0
LayerCount: 2
Back
SplineSet
141 530 m 2
 79 530 l 2
 68 530 63 532 59 536 c 0
 55 540 53 545 53 556 c 2
 53 574 l 2
 53 585 55 590 59 594 c 0
 63 598 68 600 79 600 c 2
 443.75 600 l 2
 487.4 600 515.9 593.5 536.7 572.7 c 0
 557.5 551.9 564 524.6 564 479.75 c 2
 564 26 l 2
 564 15 562 10 558 6 c 0
 554 2 549 0 538 0 c 2
 520 0 l 2
 509 0 504 2 500 6 c 0
 496 10 494 15 494 26 c 2
 494 477.5 l 2
 494 500 490.5 510.5 482.5 518.5 c 0
 474.5 526.5 462.5 530 441.5 530 c 2
 231 530 l 2
 223 530 221 528 221 520 c 2
 221 74 l 2
 221 46.4004 217 29.5996 204.2 16.7998 c 0
 191.4 4 173.4 0 147 0 c 2
 76 0 l 2
 65 0 60 2 56 6 c 0
 52 10 50 15 50 26 c 2
 50 44 l 2
 50 55 52 60 56 64 c 0
 60 68 65 70 76 70 c 2
 141 70 l 2
 149 70 151 72 151 80 c 2
 151 520 l 2
 151 528 149 530 141 530 c 2
EndSplineSet
Fore
SplineSet
126 495 m 2
 83.5 495 l 2
 67 495 59.5 498 53.5 504 c 0
 47.5 510 44.5 517.5 44.5 534 c 2
 44.5 561 l 2
 44.5 577.5 47.5 585 53.5 591 c 0
 59.5 597 67 600 83.5 600 c 2
 398.625 600 l 6
 464.1 600 506.85 590.25 538.05 559.05 c 4
 569.25 527.85 579 486.9 579 419.625 c 6
 579 39 l 6
 579 22.5 576 15 570 9 c 4
 564 3 556.5 0 540 0 c 6
 513 0 l 6
 496.5 0 489 3 483 9 c 4
 477 15 474 22.5 474 39 c 6
 474 416.25 l 6
 474 450 468.75 465.75 456.75 477.75 c 4
 444.75 489.75 426.75 495 395.25 495 c 6
 261 495 l 2
 249 495 246 492 246 480 c 2
 246 111 l 2
 246 69.6006 240 44.3994 220.8 25.1992 c 0
 201.6 6 174.6 0 135 0 c 2
 79 0 l 2
 62.5 0 55 3 49 9 c 0
 43 15 40 22.5 40 39 c 2
 40 66 l 2
 40 82.5 43 90 49 96 c 0
 55 102 62.5 105 79 105 c 2
 126 105 l 2
 138 105 141 108 141 120 c 2
 141 480 l 2
 141 492 138 495 126 495 c 2
EndSplineSet
Substitution2: "WideLetters" uniFB28
Comment: "%DiaToBase1+AD0A-330+AAoA%DiaToBase2+AD0A-330+AAoA%DiaToBaseU+AD0A-330+AAoA%DiaToBase3+AD0A-320+AAoA" 
EndChar

StartChar: afii57636
Encoding: 8362 8362 64
Width: 908
VWidth: 1000
Flags: W
HStem: 0 105<387.514 722.126> 495 105<165.514 491.184 690.282 753>
VStem: 60 105<9.28238 494.716> 282 105<105.284 364.718> 509 105<227.282 477.185> 753 105<134.628 494.998>
LayerCount: 2
Back
SplineSet
312 560 m 2
 490 560 576 492 576 300 c 10
 576 200 l 25
 646 200 l 17
 646 300 l 2
 646 516 532 600 312 600 c 2
 50 600 l 25
 50 0 l 25
 120 0 l 17
 120 560 l 1
 312 560 l 2
841.079 600 m 5
 904.715 544.976 945 461 945 346 c 4
 945 124 797 0 555 0 c 2
 324 0 l 25
 324 360 l 25
 274 360 l 25
 274 400 l 25
 394 400 l 17
 394 40 l 1
 555 40 l 2
 755 40 875 146 875 346 c 4
 875 443 850.506 508.706 809.546 560 c 5
 759 560 l 29
 759 600 l 29
 841.079 600 l 5
EndSplineSet
Fore
SplineSet
393 0 m 2
 353.4 0 326.4 6 307.2 25.2002 c 0
 288 44.4004 282 69.5996 282 111 c 2
 282 335 l 2
 282 351.5 285 359 291 365 c 0
 297 371 304.5 374 321 374 c 2
 348 374 l 2
 364.5 374 372 371 378 365 c 0
 384 359 387 351.5 387 335 c 2
 387 120 l 2
 387 108 390 105 402 105 c 2
 635 105 l 6
 681 105 709 113 727 131 c 4
 745 149 753 172 753 223 c 6
 753 480 l 6
 753 492 750 495 738 495 c 6
 720 495 l 6
 703 495 696 498 690 504 c 4
 684 510 681 518 681 534 c 6
 681 561 l 6
 681 578 684 585 690 591 c 4
 696 597 703 600 720 600 c 6
 775 600 l 6
 804 600 825 596 839 581 c 4
 853 567 858 548 858 517 c 6
 858 229 l 6
 858 144 846 92 806 52 c 4
 766 12 711 0 629 0 c 6
 393 0 l 2
433.625 600 m 2
 497.475 600 541.85 590.25 573.05 559.05 c 0
 604.25 527.85 614 486.9 614 419.625 c 2
 614 257 l 2
 614 240.5 611 233 605 227 c 0
 599 221 591.5 218 575 218 c 2
 548 218 l 2
 531.5 218 524 221 518 227 c 0
 512 233 509 240.5 509 257 c 2
 509 416.25 l 2
 509 450 503.75 465.75 491.75 477.75 c 0
 479.75 489.75 462.75 495 430.25 495 c 2
 180 495 l 2
 168 495 165 492 165 480 c 2
 165 39 l 2
 165 22.5 162 15 156 9 c 0
 150 3 142.5 0 126 0 c 2
 99 0 l 2
 82.5 0 75 3 69 9 c 0
 63 15 60 22.5 60 39 c 2
 60 489 l 2
 60 530.4 66 555.6 85.2002 574.8 c 0
 104.4 594 131.4 600 171 600 c 2
 433.625 600 l 2
EndSplineSet
EndChar

StartChar: SF110000
Encoding: 9474 9474 65
Width: 305
VWidth: 940
Flags: HW
VStem: 100 105<-274 885>
LayerCount: 2
Fore
SplineSet
205 -274 m 2
 205 -285 203 -290 199 -294 c 0
 195 -298 190 -300 179 -300 c 2
 126 -300 l 2
 115 -300 110 -298 106 -294 c 0
 102 -290 100 -285 100 -274 c 2
 100 874 l 2
 100 885 102 890 106 894 c 0
 110 898 115 900 126 900 c 2
 179 900 l 2
 190 900 195 898 199 894 c 0
 203 890 205 885 205 874 c 2
 205 -274 l 2
EndSplineSet
EndChar

StartChar: uni0000
Encoding: 0 0 66
Width: 700
VWidth: 1000
Flags: HW
LayerCount: 2
Fore
SplineSet
555 0 m 6
 563 0 565 2 565 10 c 6
 565 590 l 6
 565 598 563 600 555 600 c 6
 145 600 l 2
 137 600 135 598 135 590 c 2
 135 10 l 2
 135 2 137 0 145 0 c 2
 555 0 l 6
584.5 675 m 2
 604.301 675 617.801 672 627.4 662.4 c 0
 637 652.8 640 640.2 640 619.5 c 2
 640 -19.5 l 2
 640 -40.2002 637 -52.7998 627.4 -62.4004 c 0
 617.801 -72 604.301 -75 584.5 -75 c 2
 115.5 -75 l 2
 95.7012 -75 82.2002 -72 72.5996 -62.4004 c 0
 63 -52.7998 60 -40.2002 60 -19.5 c 2
 60 619.5 l 2
 60 640.2 63 652.8 72.5996 662.4 c 0
 82.2002 672 95.7012 675 115.5 675 c 2
 584.5 675 l 2
EndSplineSet
EndChar

StartChar: dollar
Encoding: 36 36 67
Width: 494
VWidth: 1000
Flags: W
HStem: -5 100.263<155.575 343.646> 506.738 100.262<160.503 348.573>
VStem: 35.0996 95.3301<381.185 477.193> 209.1 85<-40.718 -11 611 640.718> 373.769 95.2314<124.808 220.273>
LayerCount: 2
Back
SplineSet
378.469 465.061 m 4
 390.277 452.832 397.299 449.88 405.783 449.732 c 4
 414.268 449.584 422.105 452.983 433.615 464.098 c 6
 453.037 482.854 l 6
 465.266 494.663 468.218 501.684 468.365 510.168 c 4
 468.515 518.651 465.809 525.769 453.999 537.999 c 4
 408.943 583.264 347.364 607 271.9 607 c 4
 200.9 607 143.9 591.2 98.5 552.467 c 4
 62.2461 521.537 40 480.393 40 423.523 c 4
 40 334.865 113 286.05 187.035 264.498 c 4
 219.408 255.073 251.139 251.241 273.035 247.543 c 4
 328.981 238.094 371.035 217.305 371.035 175.381 c 4
 371.035 118.533 311.702 97 245.969 97 c 4
 197.835 97 164.234 111.659 135.434 136.938 c 4
 123.624 149.166 116.604 152.118 108.119 152.266 c 4
 99.6357 152.414 91.7969 149.015 80.2871 137.9 c 6
 60.8652 119.145 l 6
 48.6367 107.335 45.6846 100.314 45.5371 91.8301 c 4
 45.3887 83.3467 48.0918 76.2295 59.9004 64 c 4
 104.954 18.7373 166.536 -5 242 -5 c 4
 313 -5 370 10.8008 415.4 49.5342 c 4
 451.654 80.4629 473.9 121.608 473.9 178.478 c 4
 473.9 267.136 402 316.301 326.865 337.503 c 4
 299.377 345.261 268.011 349.812 240.867 354.457 c 4
 184.201 364.155 142.867 384.694 142.867 426.619 c 4
 142.867 483.467 202.2 505 267.934 505 c 4
 316.067 505 349.667 490.339 378.469 465.061 c 4
299 -11 m 6
 299 611 l 6
 299 628 296 635 290 641 c 4
 284 647 276 650 260 650 c 6
 253 650 l 6
 236 650 229 647 223 641 c 4
 217 635 214 628 214 611 c 6
 214 -11 l 6
 214 -28 217 -35 223 -41 c 4
 229 -47 236 -50 253 -50 c 6
 260 -50 l 6
 276 -50 284 -47 290 -41 c 4
 296 -35 299 -28 299 -11 c 6
EndSplineSet
Fore
SplineSet
373.1 465 m 0
 385.263 452.526 392.398 449.88 400.883 449.732 c 0
 409.367 449.584 417.205 452.983 428.715 464.098 c 2
 448.137 482.854 l 2
 460.365 494.663 463.317 501.684 463.465 510.168 c 0
 463.614 518.651 460.908 525.769 449.099 537.999 c 0
 404.043 583.264 342.464 607 267 607 c 0
 196 607 139 591.2 93.5996 552.467 c 0
 57.3457 521.537 35.0996 480.393 35.0996 423.523 c 0
 35.0996 334.865 108.1 286.05 182.135 264.498 c 0
 214.508 255.073 250.275 252.589 272.828 248.817 c 0
 330.452 239.179 373.769 217.975 373.769 175.212 c 0
 373.769 117.227 312.655 95.2627 244.95 95.2627 c 0
 195.372 95.2627 160.764 111.215 131.1 137 c 0
 118.935 149.473 111.703 152.118 103.219 152.266 c 0
 94.7354 152.414 86.8965 149.015 75.3867 137.9 c 2
 55.9648 119.145 l 2
 43.7363 107.335 40.7842 100.314 40.6367 91.8301 c 0
 40.4883 83.3467 43.1914 76.2295 55 64 c 0
 100.054 18.7373 161.636 -5 237.1 -5 c 0
 308.1 -5 365.1 10.8008 410.5 49.5342 c 0
 446.754 80.4629 469 121.608 469 178.478 c 0
 469 267.136 397.1 316.301 321.965 337.503 c 0
 294.477 345.261 259.328 348.446 231.371 353.184 c 0
 173.004 363.076 130.43 384.025 130.43 426.789 c 0
 130.43 484.774 191.543 506.738 259.249 506.738 c 0
 308.825 506.738 343.434 490.783 373.1 465 c 0
294.1 -11 m 2
 294.1 611 l 2
 294.1 628 291.1 635 285.1 641 c 0
 279.1 647 271.1 650 255.1 650 c 2
 248.1 650 l 2
 231.1 650 224.1 647 218.1 641 c 0
 212.1 635 209.1 628 209.1 611 c 2
 209.1 -11 l 2
 209.1 -28 212.1 -35 218.1 -41 c 0
 224.1 -47 231.1 -50 248.1 -50 c 2
 255.1 -50 l 2
 271.1 -50 279.1 -47 285.1 -41 c 0
 291.1 -35 294.1 -28 294.1 -11 c 2
EndSplineSet
EndChar

StartChar: sterling
Encoding: 163 163 68
Width: 486
VWidth: 1000
Flags: HMW
HStem: 0 105<44.6632 91.3808 196.381 451.099> 251 105<44.6632 91.3808 196.381 328.099> 505 102<220.722 366.005>
VStem: 91.3808 105<105.002 251 356.002 477.738>
LayerCount: 2
Back
SplineSet
211.38 105 m 2
 421.38 105 l 2
 437.88 105 445.38 102 451.38 96 c 0
 457.38 90 460.38 82.5 460.38 66 c 2
 460.38 39 l 2
 460.38 22.5 457.38 15 451.38 9 c 0
 445.38 3 437.88 0 421.38 0 c 2
 74.3799 0 l 2
 57.8799 0 50.3799 3 44.3799 9 c 0
 38.3799 15 35.3799 22.5 35.3799 39 c 2
 35.3799 66 l 2
 35.3799 82.5 38.3799 90 44.3799 96 c 0
 50.3799 102 57.8789 105 74.3799 105 c 2
 76.3799 105 l 2
 88.3799 105 91.3799 108 91.3799 119.5 c 2
 91.3799 236.5 l 2
 91.3799 248 88.3799 251 76.3799 251 c 2
 74.3799 251 l 2
 57.8799 251 50.3799 254 44.3799 260 c 0
 38.3799 266 35.3799 273.5 35.3799 290 c 2
 35.3799 317 l 2
 35.3799 333.5 38.3799 341 44.3799 347 c 0
 50.3799 353 57.8789 356 74.3799 356 c 2
 76.3799 356 l 2
 88.3799 356 91.3799 359 91.3799 370.5 c 2
 91.3799 407.5 l 2
 91.3799 517.777 160.072 607.277 288.251 607.277 c 0
 362.766 607.277 403.88 587.5 443.684 555.178 c 0
 456.493 544.776 460.141 537.453 460.88 529 c 0
 461.62 520.547 459.097 512.873 448.491 500.234 c 2
 431.135 479.55 l 2
 420.529 466.911 413.41 463.093 404.958 462.354 c 0
 396.505 461.614 389.517 464.812 376.189 474.748 c 0
 352.38 492.5 329.801 502.402 290.951 502.402 c 0
 233.201 502.402 196.451 466.178 196.451 409 c 10
 196.38 370.5 l 18
 196.358 359 199.38 356 211.38 356 c 2
 298.38 356 l 2
 314.881 356 322.38 353 328.38 347 c 0
 334.38 341 337.38 333.5 337.38 317 c 2
 337.38 290 l 2
 337.38 273.5 334.38 266 328.38 260 c 0
 322.38 254 314.88 251 298.38 251 c 2
 211.38 251 l 2
 199.38 251 196.38 248 196.38 236.5 c 2
 196.38 120 l 2
 196.38 108 199.38 105 211.38 105 c 2
EndSplineSet
Fore
SplineSet
211.38 105 m 2
 421.38 105 l 2
 437.88 105 445.38 102 451.38 96 c 0
 457.38 90 460.38 82.5 460.38 66 c 2
 460.38 39 l 2
 460.38 22.5 457.38 15 451.38 9 c 0
 445.38 3 437.88 0 421.38 0 c 2
 74.3799 0 l 2
 57.8799 0 50.3799 3 44.3799 9 c 0
 38.3799 15 35.3799 22.5 35.3799 39 c 2
 35.3799 66 l 2
 35.3799 82.5 38.3799 90 44.3799 96 c 0
 50.3799 102 57.8789 105 74.3799 105 c 2
 76.3799 105 l 2
 88.3799 105 91.3799 108 91.3799 119.5 c 2
 91.3799 236.5 l 2
 91.3799 248 88.3799 251 76.3799 251 c 2
 74.3799 251 l 2
 57.8799 251 50.3799 254 44.3799 260 c 0
 38.3799 266 35.3799 273.5 35.3799 290 c 2
 35.3799 317 l 2
 35.3799 333.5 38.3799 341 44.3799 347 c 0
 50.3799 353 57.8789 356 74.3799 356 c 2
 76.3799 356 l 2
 88.3799 356 91.3799 359 91.3799 370.5 c 2
 91.3799 407.5 l 2
 91.3799 517.777 160.072 607.277 288.251 607.277 c 0
 349 607.277 395.667 592.667 432.193 563.944 c 0
 445.164 553.745 448.65 546.219 449.389 537.766 c 0
 450.129 529.312 447.606 521.639 437 509 c 2
 419.644 488.316 l 2
 409.038 475.677 401.919 471.859 393.467 471.12 c 0
 385.014 470.38 378.597 472.769 365 482.333 c 0
 346.302 495.486 321.333 502.402 290.951 502.402 c 0
 233.201 502.402 196.451 466.178 196.451 409 c 10
 196.38 370.5 l 18
 196.358 359 199.38 356 211.38 356 c 2
 298.38 356 l 2
 314.881 356 322.38 353 328.38 347 c 0
 334.38 341 337.38 333.5 337.38 317 c 2
 337.38 290 l 2
 337.38 273.5 334.38 266 328.38 260 c 0
 322.38 254 314.88 251 298.38 251 c 2
 211.38 251 l 2
 199.38 251 196.38 248 196.38 236.5 c 2
 196.38 120 l 2
 196.38 108 199.38 105 211.38 105 c 2
EndSplineSet
EndChar

StartChar: endash
Encoding: 8211 8211 73
Width: 480
VWidth: 1000
Flags: HW
HStem: 265 105<54.2824 435.718>
LayerCount: 2
Fore
SplineSet
406 265 m 6
 84 265 l 2
 67.5 265 60 268 54 274 c 0
 48 280 45 287.5 45 304 c 2
 45 331 l 2
 45 347.5 48 355 54 361 c 0
 60 367 67.5 370 84 370 c 2
 406 370 l 6
 422.5 370 430 367 436 361 c 4
 442 355 445 347.5 445 331 c 6
 445 304 l 6
 445 287.5 442 280 436 274 c 4
 430 268 422.5 265 406 265 c 6
EndSplineSet
EndChar

StartChar: emdash
Encoding: 8212 8212 74
Width: 680
VWidth: 1000
Flags: HW
HStem: 265 105<54.2824 635.718>
LayerCount: 2
Fore
SplineSet
606 265 m 6
 84 265 l 2
 67.5 265 60 268 54 274 c 0
 48 280 45 287.5 45 304 c 2
 45 331 l 2
 45 347.5 48 355 54 361 c 0
 60 367 67.5 370 84 370 c 2
 606 370 l 6
 622.5 370 630 367 636 361 c 4
 642 355 645 347.5 645 331 c 6
 645 304 l 6
 645 287.5 642 280 636 274 c 4
 630 268 622.5 265 606 265 c 6
EndSplineSet
EndChar

StartChar: afii00208
Encoding: 8213 8213 75
Width: 930
VWidth: 1000
Flags: HW
HStem: 265 105<54.2824 885.718>
LayerCount: 2
Fore
SplineSet
856 265 m 6
 84 265 l 2
 67.5 265 60 268 54 274 c 0
 48 280 45 287.5 45 304 c 2
 45 331 l 2
 45 347.5 48 355 54 361 c 0
 60 367 67.5 370 84 370 c 2
 856 370 l 6
 872.5 370 880 367 886 361 c 4
 892 355 895 347.5 895 331 c 6
 895 304 l 6
 895 287.5 892 280 886 274 c 4
 880 268 872.5 265 856 265 c 6
EndSplineSet
EndChar

StartChar: quotesinglbase
Encoding: 8218 8218 77
Width: 282
VWidth: 1000
Flags: HW
LayerCount: 2
Back
SplineSet
123.613 126.5 m 6
 137.168 157.75 152.863 170 185.113 170 c 6
 229.613 170 l 6
 262.613 170 272.227 154.248 253.613 120.5 c 6
 151.613 -62.25 l 6
 137.146 -88.4834 126.113 -96 104.363 -96 c 6
 66.6123 -96 l 6
 40.3623 -96 33.998 -80.3174 44.1123 -57 c 6
 123.613 126.5 l 6
EndSplineSet
Fore
Refer: 5 39 S 1 0 0 1 0 -476 2
EndChar

StartChar: quotedblbase
Encoding: 8222 8222 79
Width: 503
VWidth: 1000
Flags: HW
LayerCount: 2
Back
SplineSet
123.613 126.5 m 6
 137.168 157.75 152.863 170 185.113 170 c 6
 229.613 170 l 6
 262.613 170 272.227 154.248 253.613 120.5 c 6
 151.613 -62.25 l 6
 137.146 -88.4834 126.113 -96 104.363 -96 c 6
 66.6123 -96 l 6
 40.3623 -96 33.998 -80.3174 44.1123 -57 c 6
 123.613 126.5 l 6
EndSplineSet
Fore
Refer: 2 34 N 1 0 0 1 0 -476 2
EndChar

StartChar: Euro
Encoding: 8364 8364 81
Width: 503
VWidth: 1000
Flags: HMW
HStem: 187 85<36.1883 360.812> 322 85<36.1883 360.812>
LayerCount: 2
Back
SplineSet
338.025 320 m 2
 56 320 l 2
 45 320 40 322 36 326 c 0
 32 330 30 335 30 346 c 2
 30 379 l 2
 30 390 32 395 36 399 c 0
 40 403 45.001 405 56 405 c 2
 355.942 405 l 2
 372.442 405 378.852 402 382.667 396 c 0
 386.482 390 386.752 382.5 380.748 366 c 2
 373.488 346 l 2
 369.69 335.537 365.665 330 360.209 326 c 0
 354.753 322 349.025 320 338.025 320 c 2
317.025 184 m 2
 56 184 l 2
 45 184 40 186 36 190 c 0
 32 194 30 199 30 210 c 2
 30 243 l 2
 30 254 32 259 36 263 c 0
 40 267 45.002 269 56 269 c 2
 335.275 268.999 l 2
 351.775 268.999 358.185 265.999 362 259.999 c 0
 365.815 253.999 366.085 246.499 360.081 229.999 c 2
 352.488 210 l 2
 348.468 199.409 344.665 194 339.209 190 c 0
 333.753 186 328.025 184 317.025 184 c 2
165.998 300 m 0
 165.998 246.556 176.001 193.974 200.451 156.908 c 0
 227.125 116.394 264.912 95.7061 316.036 95.7061 c 0
 344.5 95.7061 370.5 102.667 391.867 116.221 c 0
 405.798 125.058 414.464 124.838 422.578 122.357 c 0
 430.693 119.876 436.863 114.663 444.609 100.094 c 2
 457.285 76.2549 l 2
 465.031 61.6855 465.903 53.6553 463.423 45.541 c 0
 460.941 37.4258 455.728 31.2559 441.159 23.5078 c 0
 399.546 1.4541 360.728 -8 315.999 -8 c 0
 237.634 -8 164.243 25 118.219 87 c 0
 78.4141 141 61 219 61 300 c 0
 61 381 78.4141 459 118.219 513 c 0
 164.243 575 237.634 608 315.999 608 c 0
 360.696 608 398.272 599.091 441.08 576.535 c 0
 455.648 568.787 460.862 562.617 463.344 554.502 c 0
 465.824 546.388 464.952 538.357 457.206 523.788 c 2
 444.53 499.949 l 2
 436.784 485.38 430.614 480.167 422.499 477.686 c 0
 414.385 475.205 406.354 476.077 391.786 483.823 c 0
 371.92 495.946 345.75 504.294 316.036 504.294 c 0
 264.912 504.294 227.125 483.606 200.451 443.092 c 0
 176.001 406.026 165.998 353.444 165.998 300 c 0
EndSplineSet
Fore
SplineSet
166 300 m 0
 166 246.556 176.863 193.974 203.416 156.908 c 0
 232.384 116.394 273.421 95.7061 328.941 95.7061 c 0
 359.854 95.7061 388.089 102.667 410.872 116.218 c 0
 425.441 123.964 433.472 124.836 441.586 122.355 c 0
 449.701 119.874 455.871 114.661 463.617 100.092 c 2
 476.293 76.2529 l 2
 484.039 61.6836 484.911 53.6533 482.431 45.5391 c 0
 479.949 37.4238 474.735 31.2549 460.167 23.5078 c 0
 416.474 1.4541 375.715 -8 328.749 -8 c 0
 246.466 -8 169.405 25 121.08 87 c 0
 79.2852 141 61 219 61 300 c 0
 61 381 79.2852 459 121.08 513 c 0
 169.405 575 246.466 608 328.749 608 c 0
 375.681 608 415.136 599.091 460.084 576.535 c 0
 474.652 568.789 479.866 562.619 482.348 554.504 c 0
 484.828 546.39 483.956 538.359 476.21 523.791 c 2
 463.534 499.951 l 2
 455.787 485.382 449.618 480.169 441.503 477.688 c 0
 433.389 475.207 425.358 476.079 410.789 483.825 c 0
 389.632 495.946 361.211 504.294 328.941 504.294 c 0
 273.421 504.294 232.384 483.606 203.416 443.092 c 0
 176.863 406.026 166 353.444 166 300 c 0
348.025 320 m 2
 56 320 l 2
 45 320 40 322 36 326 c 0
 32 330 30 335 30 346 c 2
 30 379 l 2
 30 390 32 395 36 399 c 0
 40 403 45.001 405 56 405 c 2
 365.942 405 l 2
 382.442 405 388.852 402 392.667 396 c 0
 396.482 390 396.752 382.5 390.748 366 c 2
 383.488 346 l 2
 379.69 335.537 375.665 330 370.209 326 c 0
 364.753 322 359.025 320 348.025 320 c 2
327.025 184 m 2
 56 184 l 2
 45 184 40 186 36 190 c 0
 32 194 30 199 30 210 c 2
 30 243 l 2
 30 254 32 259 36 263 c 0
 40 267 45.002 269 56 269 c 2
 345.275 268.999 l 2
 361.775 268.999 368.185 265.999 372 259.999 c 0
 375.815 253.999 376.085 246.499 370.081 229.999 c 2
 362.488 210 l 2
 358.468 199.409 354.665 194 349.209 190 c 0
 343.753 186 338.025 184 327.025 184 c 2
EndSplineSet
EndChar

StartChar: minus
Encoding: 8722 8722 82
Width: 492
VWidth: 1000
Flags: W
HStem: 265 105<64.2824 437.718>
LayerCount: 2
Fore
SplineSet
408 265 m 6
 94 265 l 2
 77.5 265 70 268 64 274 c 0
 58 280 55 287.5 55 304 c 2
 55 331 l 2
 55 347.5 58 355 64 361 c 0
 70 367 77.5 370 94 370 c 2
 408 370 l 6
 424.5 370 432 367 438 361 c 4
 444 355 447 347.5 447 331 c 6
 447 304 l 6
 447 287.5 444 280 438 274 c 4
 432 268 424.5 265 408 265 c 6
EndSplineSet
EndChar

StartChar: uni25CC
Encoding: 9676 9676 83
Width: 604
VWidth: 1000
Flags: W
HStem: 27.9404 73.5306<274.795 327.559> 59.5098 73.5292<157.147 209.911 392.441 445.205> 145.588 73.529<71.069 123.833 478.52 531.284> 263.234 73.532<39.5007 92.265 510.089 562.854> 380.883 73.529<71.069 123.833 478.52 531.284> 466.961 73.529<157.147 209.911 392.441 445.205> 498.529 73.531<274.795 327.559>
VStem: 29.1172 73.5288<273.618 326.382> 60.6865 73.5285<155.972 208.734 391.266 444.028> 146.766 73.528<69.8923 122.656 477.344 530.108> 264.412 73.528<38.3239 91.0882 508.912 561.676> 382.06 73.529<69.8923 122.656 477.344 530.108> 468.138 73.528<155.972 208.734 391.266 444.028> 499.706 73.529<273.618 326.382>
LayerCount: 2
Fore
SplineSet
504.902 454.412 m 0x3878
 525.196 454.412 541.666 437.94 541.666 417.646 c 0
 541.666 397.354 525.196 380.883 504.902 380.883 c 0
 484.608 380.883 468.138 397.354 468.138 417.646 c 0
 468.138 437.94 484.608 454.412 504.902 454.412 c 0x3878
418.823 133.039 m 0
 439.117 133.039 455.589 116.568 455.589 96.2744 c 0
 455.589 75.9805 439.117 59.5098 418.823 59.5098 c 0x7870
 398.529 59.5098 382.06 75.9805 382.06 96.2744 c 0
 382.06 116.568 398.529 133.039 418.823 133.039 c 0
97.4512 219.117 m 0
 117.745 219.117 134.215 202.646 134.215 182.354 c 0
 134.215 162.06 117.745 145.588 97.4512 145.588 c 0
 77.1572 145.588 60.6865 162.06 60.6865 182.354 c 0x38f0
 60.6865 202.646 77.1572 219.117 97.4512 219.117 c 0
183.529 540.49 m 0x3c70
 203.823 540.49 220.294 524.02 220.294 503.726 c 0
 220.294 483.432 203.823 466.961 183.529 466.961 c 0
 163.235 466.961 146.766 483.432 146.766 503.726 c 0
 146.766 524.02 163.235 540.49 183.529 540.49 c 0x3c70
97.4512 454.412 m 0
 117.745 454.412 134.215 437.94 134.215 417.646 c 0
 134.215 397.354 117.745 380.883 97.4512 380.883 c 0
 77.1572 380.883 60.6865 397.354 60.6865 417.646 c 0x38f0
 60.6865 437.94 77.1572 454.412 97.4512 454.412 c 0
183.529 133.039 m 0
 203.823 133.039 220.294 116.568 220.294 96.2744 c 0
 220.294 75.9805 203.823 59.5098 183.529 59.5098 c 0x7870
 163.235 59.5098 146.766 75.9805 146.766 96.2744 c 0
 146.766 116.568 163.235 133.039 183.529 133.039 c 0
504.902 219.117 m 0
 525.196 219.117 541.666 202.646 541.666 182.354 c 0
 541.666 162.06 525.196 145.588 504.902 145.588 c 0
 484.608 145.588 468.138 162.06 468.138 182.354 c 0x3878
 468.138 202.646 484.608 219.117 504.902 219.117 c 0
418.823 540.49 m 0x3c70
 439.117 540.49 455.589 524.02 455.589 503.726 c 0
 455.589 483.432 439.117 466.961 418.823 466.961 c 0
 398.529 466.961 382.06 483.432 382.06 503.726 c 0
 382.06 524.02 398.529 540.49 418.823 540.49 c 0x3c70
301.177 101.471 m 0xb870
 321.471 101.471 337.94 85 337.94 64.7061 c 0
 337.94 44.4121 321.471 27.9404 301.177 27.9404 c 0
 280.883 27.9404 264.412 44.4121 264.412 64.7061 c 0
 264.412 85 280.883 101.471 301.177 101.471 c 0xb870
536.471 336.766 m 0
 556.766 336.766 573.235 320.294 573.235 300 c 0
 573.235 279.706 556.766 263.234 536.471 263.234 c 0
 516.177 263.234 499.706 279.706 499.706 300 c 0x3874
 499.706 320.294 516.177 336.766 536.471 336.766 c 0
301.177 572.06 m 0x3a70
 321.471 572.06 337.94 555.588 337.94 535.294 c 0
 337.94 515 321.471 498.529 301.177 498.529 c 0
 280.883 498.529 264.412 515 264.412 535.294 c 0
 264.412 555.588 280.883 572.06 301.177 572.06 c 0x3a70
65.8828 336.766 m 0
 86.1768 336.766 102.646 320.294 102.646 300 c 0
 102.646 279.706 86.1768 263.234 65.8828 263.234 c 0
 45.5889 263.234 29.1172 279.706 29.1172 300 c 0x3970
 29.1172 320.294 45.5889 336.766 65.8828 336.766 c 0
EndSplineSet
EndChar

StartChar: uniFB29
Encoding: 64297 64297 84
Width: 492
VWidth: 1000
Flags: W
HStem: 220 105<64.2824 199 304 437.718>
VStem: 199 105<325.002 489.718>
LayerCount: 2
Back
SplineSet
94 250 m 6
 77.501 250 70 253 64 259 c 4
 58 265 55 272.5 55 289 c 6
 55 316 l 6
 55 332.5 58 340 64 346 c 4
 70 352 77.5 355 94 355 c 6
 184 355 l 6
 196 355 199 358 199 370 c 6
 199 460 l 2
 199 476.5 202 484 208 490 c 0
 214 496 221.5 499 238 499 c 2
 265 499 l 2
 281.5 499 289 496 295 490 c 0
 301 484 304 476.5 304 460 c 2
 304 370 l 6
 304 358 307 355 319 355 c 6
 408 355 l 6
 424.5 355 432 352 438 346 c 4
 444 340 447 332.5 447 316 c 6
 447 289 l 6
 447 272.5 444 265 438 259 c 4
 432 253 424.5 250 408 250 c 6
 94 250 l 6
EndSplineSet
Fore
SplineSet
94 220 m 2
 77.501 220 70 223 64 229 c 0
 58 235 55 242.5 55 259 c 2
 55 286 l 2
 55 302.5 58 310 64 316 c 0
 70 322 77.5 325 94 325 c 2
 184 325 l 2
 196 325 199 328 199 340 c 2
 199 460 l 2
 199 476.5 202 484 208 490 c 0
 214 496 221.5 499 238 499 c 2
 265 499 l 2
 281.5 499 289 496 295 490 c 0
 301 484 304 476.5 304 460 c 2
 304 340 l 2
 304 328 307 325 319 325 c 2
 408 325 l 2
 424.5 325 432 322 438 316 c 0
 444 310 447 302.5 447 286 c 2
 447 259 l 2
 447 242.5 444 235 438 229 c 0
 432 223 424.5 220 408 220 c 2
 94 220 l 2
EndSplineSet
EndChar

StartChar: afii57799
Encoding: 1456 1456 86
Width: 0
VWidth: 1000
Flags: W
HStem: -299.996 100.099<-37.1806 37.1797> -151.095 100.099<-37.1806 37.1797>
VStem: -43.793 87.586<-282.126 -216.575 -134.419 -68.8665>
AnchorPoint: "DiaToBase1" 0 0 mark 0
LayerCount: 2
Back
SplineSet
35 -209 m 0
 35 -222 34 -229 30 -235 c 0
 24 -246 12 -249 0 -249 c 0
 -13 -249 -24 -246 -30 -235 c 0
 -34 -229 -35 -222 -35 -209 c 0
 -35 -196 -34 -189 -30 -182 c 0
 -24 -172 -13 -169 0 -169 c 0
 12 -169 24 -172 30 -182 c 0
 34 -189 35 -196 35 -209 c 0
35 -86 m 0
 35 -99 34 -106 30 -113 c 0
 24 -123 12 -126 0 -126 c 0
 -13 -126 -24 -123 -30 -113 c 0
 -34 -106 -35 -99 -35 -86 c 0
 -35 -73 -34 -66 -30 -60 c 0
 -24 -49 -13 -46 0 -46 c 0
 12 -46 24 -49 30 -60 c 0
 34 -66 35 -73 35 -86 c 0
EndSplineSet
Fore
SplineSet
43.793 -249.947 m 0
 43.793 -266.213 42.542 -274.972 37.5371 -282.479 c 0
 30.0293 -296.242 15.0146 -299.996 0 -299.996 c 0
 -16.2656 -299.996 -30.0293 -296.242 -37.5371 -282.479 c 0
 -42.542 -274.972 -43.793 -266.213 -43.793 -249.947 c 0
 -43.793 -233.681 -42.542 -224.923 -37.5371 -216.164 c 0
 -30.0293 -203.651 -16.2656 -199.897 0 -199.897 c 0
 15.0146 -199.897 30.0293 -203.651 37.5371 -216.164 c 0
 42.542 -224.923 43.793 -233.681 43.793 -249.947 c 0
43.793 -101.046 m 4
 43.793 -117.312 42.542 -126.07 37.5371 -134.829 c 4
 30.0293 -147.341 15.0146 -151.095 0 -151.095 c 4
 -16.2656 -151.095 -30.0293 -147.341 -37.5371 -134.829 c 4
 -42.542 -126.07 -43.793 -117.312 -43.793 -101.046 c 4
 -43.793 -84.7803 -42.542 -76.0215 -37.5371 -68.5137 c 4
 -30.0293 -54.75 -16.2656 -50.9961 0 -50.9961 c 4
 15.0146 -50.9961 30.0293 -54.75 37.5371 -68.5137 c 4
 42.542 -76.0215 43.793 -84.7803 43.793 -101.046 c 4
EndSplineSet
EndChar

StartChar: afii57801
Encoding: 1457 1457 87
Width: 0
VWidth: 1000
Flags: HW
HStem: -299.996 100.099<-126.075 -51.715 121.044 195.403> -151.095 100.099<-205.347 -129.85 -46.6875 28.8092 121.045 195.403>
VStem: -212.017 88.8369<-134.419 -68.8665> -132.688 87.5879<-282.126 -216.575> -53.3576 88.8379<-134.419 -68.8665> 114.431 87.5859<-282.126 -216.575 -134.419 -68.8665>
AnchorPoint: "DiaToBase3" 0 0 mark 0
LayerCount: 2
Fore
SplineSet
202.017 -249.947 m 0xc4
 202.017 -266.213 200.766 -274.972 195.761 -282.479 c 0
 188.254 -296.242 173.238 -299.996 158.224 -299.996 c 0
 141.958 -299.996 128.192 -296.242 120.688 -282.479 c 0
 115.682 -274.972 114.431 -266.213 114.431 -249.947 c 0
 114.431 -233.681 115.682 -224.923 120.688 -216.164 c 0
 128.192 -203.651 141.958 -199.897 158.224 -199.897 c 0
 173.238 -199.897 188.254 -203.651 195.761 -216.164 c 0
 200.766 -224.923 202.017 -233.681 202.017 -249.947 c 0xc4
202.017 -101.046 m 0
 202.017 -117.312 200.766 -126.07 195.761 -134.829 c 0
 188.254 -147.341 173.238 -151.095 158.224 -151.095 c 0
 141.958 -151.095 128.193 -147.341 120.688 -134.829 c 0
 115.682 -126.07 114.431 -117.312 114.431 -101.046 c 0
 114.431 -84.7803 115.682 -76.0215 120.688 -68.5137 c 0
 128.193 -54.75 141.958 -50.9961 158.224 -50.9961 c 0
 173.238 -50.9961 188.254 -54.75 195.761 -68.5137 c 0
 200.766 -76.0215 202.017 -84.7803 202.017 -101.046 c 0
-113.18 -101.046 m 4xe4
 -113.18 -117.312 -114.431 -126.07 -119.436 -134.829 c 4
 -128.194 -147.341 -141.958 -151.095 -158.224 -151.095 c 4
 -174.49 -151.095 -187.002 -147.341 -195.761 -134.829 c 4
 -200.766 -126.07 -202.017 -117.312 -202.017 -101.046 c 4
 -202.017 -84.7803 -200.766 -76.0215 -195.761 -68.5137 c 4
 -187.002 -54.75 -174.49 -50.9961 -158.224 -50.9961 c 4
 -141.958 -50.9961 -128.194 -54.75 -119.436 -68.5137 c 4
 -114.431 -76.0215 -113.18 -84.7803 -113.18 -101.046 c 4xe4
-35.1006 -249.947 m 4xd4
 -35.1006 -266.213 -36.3525 -274.972 -41.3574 -282.479 c 4
 -48.8643 -296.242 -63.8789 -299.996 -78.8936 -299.996 c 4
 -95.1602 -299.996 -108.924 -296.242 -116.432 -282.479 c 4
 -121.437 -274.972 -122.688 -266.213 -122.688 -249.947 c 4
 -122.688 -233.681 -121.437 -224.923 -116.432 -216.164 c 4
 -108.924 -203.651 -95.1602 -199.897 -78.8936 -199.897 c 4
 -63.8789 -199.897 -48.8643 -203.651 -41.3574 -216.164 c 4
 -36.3525 -224.923 -35.1006 -233.681 -35.1006 -249.947 c 4xd4
45.4805 -101.046 m 4xcc
 45.4805 -117.312 44.2295 -126.07 39.2236 -134.829 c 4
 30.4658 -147.341 16.7021 -151.095 0.435547 -151.095 c 4
 -15.8301 -151.095 -28.3428 -147.341 -37.1006 -134.829 c 4
 -42.1055 -126.07 -43.3574 -117.312 -43.3574 -101.046 c 4
 -43.3574 -84.7803 -42.1055 -76.0215 -37.1006 -68.5137 c 4
 -28.3428 -54.75 -15.8301 -50.9961 0.435547 -50.9961 c 4
 16.7021 -50.9961 30.4658 -54.75 39.2236 -68.5137 c 4
 44.2295 -76.0215 45.4805 -84.7803 45.4805 -101.046 c 4xcc
EndSplineSet
EndChar

StartChar: afii57800
Encoding: 1458 1458 88
Width: 0
VWidth: 1000
Flags: HW
AnchorPoint: "DiaToBase3" 0 0 mark 0
LayerCount: 2
Fore
SplineSet
202.078 -249.945 m 0
 202.078 -266.212 200.827 -274.971 195.822 -282.478 c 0
 188.315 -296.241 173.3 -299.995 158.285 -299.995 c 0
 142.021 -299.995 128.256 -296.241 120.749 -282.478 c 0
 115.744 -274.971 114.492 -266.212 114.492 -249.945 c 0
 114.492 -233.68 115.744 -224.921 120.749 -216.162 c 0
 128.256 -203.65 142.021 -199.896 158.285 -199.896 c 0
 173.3 -199.896 188.315 -203.65 195.822 -216.162 c 0
 200.827 -224.921 202.078 -233.68 202.078 -249.945 c 0
202.078 -101.045 m 0
 202.078 -117.311 200.827 -126.069 195.822 -134.828 c 0
 188.315 -147.34 173.3 -151.094 158.285 -151.094 c 0
 142.021 -151.094 128.256 -147.34 120.749 -134.828 c 0
 115.744 -126.069 114.492 -117.311 114.492 -101.045 c 0
 114.492 -84.7783 115.744 -76.0195 120.749 -68.5127 c 0
 128.256 -54.749 142.021 -50.9951 158.285 -50.9951 c 0
 173.3 -50.9951 188.315 -54.749 195.822 -68.5127 c 0
 200.827 -76.0195 202.078 -84.7783 202.078 -101.045 c 0
56.2969 -91.0459 m 6
 56.2969 -77.2822 53.7939 -71.0264 48.7891 -66.0215 c 4
 43.7842 -61.0166 37.5283 -58.5137 23.7646 -58.5137 c 6
 -169.547 -58.5137 l 6
 -183.311 -58.5137 -189.566 -61.0166 -194.571 -66.0215 c 4
 -199.576 -71.0264 -202.078 -77.2822 -202.078 -91.0459 c 6
 -202.078 -101.046 l 6
 -202.078 -114.81 -199.576 -121.065 -194.571 -126.07 c 4
 -189.566 -131.075 -183.311 -133.578 -169.547 -133.578 c 6
 23.7646 -133.578 l 6
 37.5283 -133.578 43.7842 -131.075 48.7891 -126.07 c 4
 53.7939 -121.065 56.2969 -114.81 56.2969 -101.046 c 6
 56.2969 -91.0459 l 6
EndSplineSet
EndChar

StartChar: afii57802
Encoding: 1459 1459 89
Width: 0
VWidth: 1000
Flags: HW
HStem: -299.995 100.099<121.31 195.67> -151.094 100.099<121.31 195.67> -128.578 65.0643<-204.54 -115.313 -49.622 38.9775>
VStem: -115.313 65.689<-279.076 -128.58> 114.698 87.586<-282.125 -216.573 -134.417 -68.8655>
AnchorPoint: "DiaToBase3" 0 0 mark 0
LayerCount: 2
Fore
SplineSet
202.284 -249.945 m 0x98
 202.284 -266.212 201.032 -274.971 196.027 -282.478 c 0
 188.521 -296.241 173.506 -299.995 158.49 -299.995 c 0
 142.225 -299.995 128.461 -296.241 120.954 -282.478 c 0
 115.949 -274.971 114.698 -266.212 114.698 -249.945 c 0
 114.698 -233.68 115.949 -224.921 120.954 -216.162 c 0
 128.461 -203.65 142.225 -199.896 158.49 -199.896 c 0
 173.506 -199.896 188.521 -203.65 196.027 -216.162 c 0
 201.032 -224.921 202.284 -233.68 202.284 -249.945 c 0x98
202.284 -101.045 m 0
 202.284 -117.311 201.032 -126.069 196.027 -134.828 c 0
 188.521 -147.34 173.506 -151.094 158.49 -151.094 c 0xd8
 142.225 -151.094 128.461 -147.34 120.954 -134.828 c 0
 115.949 -126.069 114.698 -117.311 114.698 -101.045 c 0
 114.698 -84.7783 115.949 -76.0195 120.954 -68.5127 c 0
 128.461 -54.749 142.225 -50.9951 158.49 -50.9951 c 0
 173.506 -50.9951 188.521 -54.749 196.027 -68.5127 c 0
 201.032 -76.0195 202.284 -84.7783 202.284 -101.045 c 0
-39.624 -253.661 m 6
 -39.624 -268.064 -42.752 -274.307 -47.7568 -279.312 c 4
 -52.7617 -284.316 -59.0176 -286.819 -72.7812 -286.819 c 4
 -86.5449 -286.819 -92.8008 -284.316 -97.8066 -279.312 c 4
 -102.812 -274.307 -105.313 -268.053 -105.313 -254.287 c 6
 -105.313 -141.09 l 6
 -105.312 -131.081 -107.816 -128.578 -117.826 -128.578 c 6
 -169.752 -128.578 l 6
 -183.513 -128.578 -189.771 -126.075 -194.776 -121.07 c 4
 -199.781 -116.065 -202.284 -109.81 -202.284 -96.0459 c 4
 -202.284 -82.2822 -199.781 -76.0264 -194.776 -71.0215 c 4
 -189.771 -66.0166 -183.516 -63.5137 -169.752 -63.5137 c 6
 24.1885 -63.5137 l 6
 37.9521 -63.5137 44.208 -66.0166 49.2129 -71.0215 c 4
 54.2178 -76.0264 56.7207 -82.2822 56.7207 -96.0459 c 4
 56.7207 -109.81 54.2178 -116.065 49.2129 -121.07 c 4
 44.208 -126.075 37.9551 -128.578 24.1885 -128.578 c 6
 -27.1113 -128.578 l 6xb8
 -37.1211 -128.578 -39.624 -131.081 -39.624 -141.09 c 6
 -39.624 -253.661 l 6
EndSplineSet
EndChar

StartChar: afii57793
Encoding: 1460 1460 90
Width: 0
VWidth: 1000
Flags: HW
AnchorPoint: "DiaToBase1" 0 0 mark 0
LayerCount: 2
Fore
SplineSet
44.4189 -101.046 m 4
 44.4189 -117.312 43.167 -126.07 38.1621 -134.829 c 4
 29.4043 -147.341 15.6406 -151.095 -0.625977 -151.095 c 4
 -16.8916 -151.095 -29.4043 -147.341 -38.1621 -134.829 c 4
 -43.167 -126.07 -44.4189 -117.312 -44.4189 -101.046 c 4
 -44.4189 -84.7803 -43.167 -76.0215 -38.1621 -68.5137 c 4
 -29.4043 -54.75 -16.8916 -50.9961 -0.625977 -50.9961 c 4
 15.6406 -50.9961 29.4043 -54.75 38.1621 -68.5137 c 4
 43.167 -76.0215 44.4189 -84.7803 44.4189 -101.046 c 4
EndSplineSet
EndChar

StartChar: afii57794
Encoding: 1461 1461 91
Width: 0
VWidth: 1000
Flags: W
HStem: -151.095 100.099<-116.831 -41.3332 41.3323 116.83>
VStem: -123.5 88.8369<-134.419 -68.8665> 34.6631 88.8369<-134.419 -68.8665>
AnchorPoint: "DiaToBase2" 0 0 mark 0
LayerCount: 2
Fore
SplineSet
-34.6631 -101.046 m 0
 -34.6631 -117.312 -35.9141 -126.07 -40.9189 -134.829 c 0
 -49.6777 -147.341 -63.4404 -151.095 -79.707 -151.095 c 0
 -95.9727 -151.095 -108.485 -147.341 -117.244 -134.829 c 0
 -122.249 -126.07 -123.5 -117.312 -123.5 -101.046 c 0
 -123.5 -84.7803 -122.249 -76.0215 -117.244 -68.5137 c 0
 -108.485 -54.75 -95.9727 -50.9961 -79.707 -50.9961 c 0
 -63.4404 -50.9961 -49.6777 -54.75 -40.9189 -68.5137 c 0
 -35.9141 -76.0215 -34.6631 -84.7803 -34.6631 -101.046 c 0
123.5 -101.046 m 0
 123.5 -117.312 122.249 -126.07 117.244 -134.829 c 0
 108.485 -147.341 94.7217 -151.095 78.4561 -151.095 c 0
 62.1895 -151.095 49.6777 -147.341 40.9189 -134.829 c 0
 35.9141 -126.07 34.6631 -117.312 34.6631 -101.046 c 0
 34.6631 -84.7803 35.9141 -76.0215 40.9189 -68.5137 c 0
 49.6777 -54.75 62.1895 -50.9961 78.4561 -50.9961 c 0
 94.7217 -50.9961 108.485 -54.75 117.244 -68.5137 c 0
 122.249 -76.0215 123.5 -84.7803 123.5 -101.046 c 0
EndSplineSet
EndChar

StartChar: afii57795
Encoding: 1462 1462 92
Width: 0
VWidth: 1000
Flags: HW
AnchorPoint: "DiaToBase2" 0 0 mark 0
LayerCount: 2
Fore
SplineSet
-34.6631 -101.046 m 0
 -34.6631 -117.312 -35.9141 -126.07 -40.9189 -134.829 c 0
 -49.6777 -147.341 -63.4404 -151.095 -79.707 -151.095 c 0
 -95.9727 -151.095 -108.485 -147.341 -117.244 -134.829 c 0
 -122.249 -126.07 -123.5 -117.312 -123.5 -101.046 c 0
 -123.5 -84.7803 -122.249 -76.0215 -117.244 -68.5137 c 0
 -108.485 -54.75 -95.9727 -50.9961 -79.707 -50.9961 c 0
 -63.4404 -50.9961 -49.6777 -54.75 -40.9189 -68.5137 c 0
 -35.9141 -76.0215 -34.6631 -84.7803 -34.6631 -101.046 c 0
43.793 -249.947 m 0
 43.793 -266.213 42.542 -274.972 37.5371 -282.479 c 0
 30.0293 -296.242 15.0146 -299.996 -0 -299.996 c 0
 -16.2656 -299.996 -30.0293 -296.242 -37.5371 -282.479 c 0
 -42.542 -274.972 -43.793 -266.213 -43.793 -249.947 c 0
 -43.793 -233.681 -42.542 -224.923 -37.5371 -216.164 c 0
 -30.0293 -203.651 -16.2656 -199.897 -0 -199.897 c 0
 15.0146 -199.897 30.0293 -203.651 37.5371 -216.164 c 0
 42.542 -224.923 43.793 -233.681 43.793 -249.947 c 0
123.5 -101.046 m 0
 123.5 -117.312 122.249 -126.07 117.244 -134.829 c 0
 108.485 -147.341 94.7217 -151.095 78.4561 -151.095 c 0
 62.1895 -151.095 49.6777 -147.341 40.9189 -134.829 c 0
 35.9141 -126.07 34.6631 -117.312 34.6631 -101.046 c 0
 34.6631 -84.7803 35.9141 -76.0215 40.9189 -68.5137 c 0
 49.6777 -54.75 62.1895 -50.9961 78.4561 -50.9961 c 0
 94.7217 -50.9961 108.485 -54.75 117.244 -68.5137 c 0
 122.249 -76.0215 123.5 -84.7803 123.5 -101.046 c 0
EndSplineSet
EndChar

StartChar: afii57798
Encoding: 1463 1463 93
Width: 0
VWidth: 1000
Flags: HW
AnchorPoint: "DiaToBase2" 0 0 mark 0
LayerCount: 2
Back
SplineSet
142.015 -96.0459 m 0
 142.015 -109.81 139.512 -116.065 134.507 -121.07 c 0
 129.502 -126.075 123.246 -128.578 109.482 -128.578 c 2
 -109.482 -128.578 l 2
 -123.246 -128.578 -129.502 -126.075 -134.507 -121.07 c 0
 -139.512 -116.065 -142.015 -109.81 -142.015 -96.0459 c 0
 -142.015 -82.2822 -139.512 -76.0264 -134.507 -71.0215 c 0
 -129.502 -66.0166 -123.246 -63.5137 -109.482 -63.5137 c 2
 109.482 -63.5137 l 2
 123.246 -63.5137 129.502 -66.0166 134.507 -71.0215 c 0
 139.512 -76.0264 142.015 -82.2822 142.015 -96.0459 c 0
EndSplineSet
Fore
SplineSet
141.997 -91.0469 m 6
 141.997 -77.2832 139.494 -71.0273 134.489 -66.0225 c 4
 129.484 -61.0176 123.229 -58.5146 109.465 -58.5146 c 6
 -109.507 -58.5146 l 6
 -123.271 -58.5146 -129.526 -61.0176 -134.531 -66.0225 c 4
 -139.536 -71.0273 -142.038 -77.2832 -142.038 -91.0469 c 6
 -142.038 -101.047 l 6
 -142.038 -114.811 -139.536 -121.066 -134.531 -126.071 c 4
 -129.526 -131.076 -123.271 -133.579 -109.507 -133.579 c 6
 109.465 -133.579 l 6
 123.229 -133.579 129.484 -131.076 134.489 -126.071 c 4
 139.494 -121.066 141.997 -114.811 141.997 -101.047 c 6
 141.997 -91.0469 l 6
EndSplineSet
EndChar

StartChar: afii57797
Encoding: 1464 1464 94
Width: 0
VWidth: 1000
Flags: W
HStem: -133.579 75.0644<-134.295 -109.507 -49.6611 -37.534 38.1572 50.6748 109.465 134.253>
VStem: -37.5322 75.6894<-244.162 -218.748 -146.177 -133.58>
AnchorPoint: "DiaToBase2" 0 0 mark 0
LayerCount: 2
Back
SplineSet
33.1572 -213.661 m 2
 33.1572 -228.064 30.0293 -234.307 25.0244 -239.312 c 0
 20.0195 -244.316 13.7637 -246.819 0 -246.819 c 0
 -13.7637 -246.819 -20.0195 -244.316 -25.0244 -239.312 c 0
 -30.0293 -234.307 -32.5322 -228.053 -32.5322 -214.287 c 2
 -32.5322 -141.09 l 2
 -32.5322 -131.081 -35.0342 -128.578 -45.0439 -128.578 c 2
 -109.482 -128.578 l 2
 -123.245 -128.578 -129.502 -126.075 -134.507 -121.07 c 0
 -139.512 -116.065 -142.015 -109.81 -142.015 -96.0459 c 0
 -142.015 -82.2822 -139.512 -76.0264 -134.507 -71.0215 c 0
 -129.502 -66.0166 -123.246 -63.5137 -109.482 -63.5137 c 2
 109.482 -63.5137 l 2
 123.246 -63.5137 129.502 -66.0166 134.507 -71.0215 c 0
 139.512 -76.0264 142.015 -82.2822 142.015 -96.0459 c 0
 142.015 -109.81 139.512 -116.065 134.507 -121.07 c 0
 129.502 -126.075 123.249 -128.578 109.482 -128.578 c 2
 45.6699 -128.578 l 2
 35.6602 -128.578 33.1572 -131.081 33.1572 -141.09 c 2
 33.1572 -213.661 l 2
EndSplineSet
Fore
SplineSet
5 -251.906 m 2
 18.7637 -251.906 25.0195 -249.403 30.0244 -244.398 c 0
 35.0293 -239.394 38.1572 -233.151 38.1572 -218.748 c 2
 38.1572 -146.177 l 2
 38.1572 -136.168 40.6602 -133.578 50.6748 -133.578 c 2
 109.465 -133.579 l 2
 123.229 -133.579 129.484 -131.076 134.489 -126.071 c 0
 139.494 -121.066 141.997 -114.811 141.997 -101.047 c 2
 141.997 -91.0469 l 2
 141.997 -77.2832 139.494 -71.0273 134.489 -66.0225 c 0
 129.484 -61.0176 123.229 -58.5146 109.465 -58.5146 c 2
 -109.507 -58.5146 l 2
 -123.271 -58.5146 -129.526 -61.0176 -134.531 -66.0225 c 0
 -139.536 -71.0273 -142.038 -77.2832 -142.038 -91.0469 c 2
 -142.038 -101.047 l 2
 -142.038 -114.811 -139.536 -121.066 -134.531 -126.071 c 0
 -129.526 -131.076 -123.271 -133.579 -109.507 -133.579 c 2
 -49.6611 -133.579 l 2
 -40.0342 -133.579 -37.5322 -136.168 -37.5322 -146.177 c 2
 -37.5322 -219.374 l 2
 -37.5322 -233.14 -35.0293 -239.394 -30.0244 -244.398 c 0
 -25.0195 -249.403 -18.7637 -251.906 -5 -251.906 c 2
 5 -251.906 l 2
EndSplineSet
EndChar

StartChar: afii57806
Encoding: 1465 1465 95
Width: 0
VWidth: 1000
Flags: W
HStem: 645.951 100.098<-37.7488 37.7479>
VStem: -44.4189 88.8378<662.628 728.179>
AnchorPoint: "DiaToBaseO" 0 0 mark 0
LayerCount: 2
Back
SplineSet
35.5 686 m 0
 35.5 673 34.5 666 30.5 659 c 0
 23.5 649 12.5 646 -0.5 646 c 0
 -13.5 646 -23.5 649 -30.5 659 c 0
 -34.5 666 -35.5 673 -35.5 686 c 0
 -35.5 699 -34.5 706 -30.5 712 c 0
 -23.5 723 -13.5 726 -0.5 726 c 0
 12.5 726 23.5 723 30.5 712 c 0
 34.5 706 35.5 699 35.5 686 c 0
EndSplineSet
Fore
SplineSet
44.4189 696 m 0
 44.4189 679.734 43.167 670.976 38.1621 662.217 c 0
 29.4043 649.704 15.6406 645.951 -0.625977 645.951 c 0
 -16.8916 645.951 -29.4043 649.704 -38.1621 662.217 c 0
 -43.167 670.976 -44.4189 679.734 -44.4189 696 c 0
 -44.4189 712.266 -43.167 721.024 -38.1621 728.532 c 0
 -29.4043 742.296 -16.8916 746.049 -0.625977 746.049 c 0
 15.6406 746.049 29.4043 742.296 38.1621 728.532 c 0
 43.167 721.024 44.4189 712.266 44.4189 696 c 0
EndSplineSet
EndChar

StartChar: uni05BA
Encoding: 1466 1466 96
Width: 0
VWidth: 1000
Flags: HW
LayerCount: 2
Fore
SplineSet
44.4189 696 m 0
 44.4189 679.734 43.167 670.976 38.1621 662.217 c 0
 29.4043 649.704 15.6406 645.951 -0.625977 645.951 c 0
 -16.8916 645.951 -29.4043 649.704 -38.1621 662.217 c 0
 -43.167 670.976 -44.4189 679.734 -44.4189 696 c 0
 -44.4189 712.266 -43.167 721.024 -38.1621 728.532 c 0
 -29.4043 742.296 -16.8916 746.049 -0.625977 746.049 c 0
 15.6406 746.049 29.4043 742.296 38.1621 728.532 c 0
 43.167 721.024 44.4189 712.266 44.4189 696 c 0
EndSplineSet
EndChar

StartChar: afii57796
Encoding: 1467 1467 97
Width: 1
VWidth: 1000
Flags: W
HStem: -299.996 100.099<101.268 175.628> -225.546 100.099<-37.1797 37.1798> -151.095 100.099<-174.628 -100.269>
VStem: -181.241 87.5859<-134.419 -68.8665> -43.793 87.5859<-207.675 -142.123> 94.6553 87.5859<-282.126 -216.575>
AnchorPoint: "DiaToBaseU" 0 0 mark 0
LayerCount: 2
Fore
SplineSet
43.793 -175.496 m 0x5c
 43.793 -191.763 42.542 -200.521 37.5371 -208.028 c 0
 30.0303 -221.792 15.0146 -225.546 0 -225.546 c 0
 -16.2656 -225.546 -30.0293 -221.792 -37.5361 -208.028 c 0
 -42.542 -200.521 -43.793 -191.763 -43.793 -175.496 c 0
 -43.793 -159.23 -42.542 -150.472 -37.5361 -141.713 c 0
 -30.0293 -129.201 -16.2656 -125.447 0 -125.447 c 0
 15.0146 -125.447 30.0303 -129.201 37.5371 -141.713 c 0
 42.542 -150.472 43.793 -159.23 43.793 -175.496 c 0x5c
182.241 -249.947 m 0
 182.241 -266.213 180.99 -274.972 175.985 -282.479 c 0
 168.479 -296.242 153.463 -299.996 138.448 -299.996 c 0
 122.183 -299.996 108.419 -296.242 100.911 -282.479 c 0
 95.9062 -274.972 94.6553 -266.213 94.6553 -249.947 c 0
 94.6553 -233.681 95.9062 -224.923 100.911 -216.164 c 0
 108.419 -203.651 122.183 -199.897 138.448 -199.897 c 0x9c
 153.463 -199.897 168.479 -203.651 175.985 -216.164 c 0
 180.99 -224.923 182.241 -233.681 182.241 -249.947 c 0
-93.6553 -101.046 m 0
 -93.6553 -117.312 -94.9062 -126.07 -99.9111 -134.829 c 0
 -107.419 -147.341 -122.434 -151.095 -137.448 -151.095 c 0
 -153.714 -151.095 -167.478 -147.341 -174.984 -134.829 c 0
 -179.99 -126.07 -181.241 -117.312 -181.241 -101.046 c 0
 -181.241 -84.7803 -179.99 -76.0215 -174.984 -68.5137 c 0
 -167.478 -54.75 -153.714 -50.9961 -137.448 -50.9961 c 0x3c
 -122.434 -50.9961 -107.419 -54.75 -99.9111 -68.5137 c 0
 -94.9062 -76.0215 -93.6553 -84.7803 -93.6553 -101.046 c 0
EndSplineSet
EndChar

StartChar: afii57807
Encoding: 1468 1468 98
Width: 0
VWidth: 1000
Flags: W
HStem: 230.163 139.67<-42.6391 42.6382>
VStem: -49.1084 98.2178<246.337 352.498>
AnchorPoint: "DiaToBaseD" 0 0 mark 0
LayerCount: 2
Fore
SplineSet
-6.62891 230.163 m 2
 -22.4082 230.163 -34.5449 233.803 -43.04 245.939 c 0
 -47.8945 254.436 -49.1074 262.932 -49.1084 278.71 c 2
 -49.1094 321.285 l 2
 -49.1094 337.063 -47.8965 345.559 -43.042 352.84 c 0
 -34.5459 366.191 -22.4102 369.833 -6.62988 369.833 c 2
 5.41504 369.833 l 2
 21.1943 369.833 34.5449 366.191 43.04 352.84 c 0
 47.8945 345.559 49.1084 337.063 49.1084 321.285 c 2
 49.1094 278.71 l 2
 49.1104 262.932 47.8965 254.436 43.042 245.939 c 0
 34.5459 233.803 21.1953 230.163 5.41699 230.163 c 2
 -6.62891 230.163 l 2
EndSplineSet
EndChar

StartChar: afii57839
Encoding: 1469 1469 99
Width: 0
VWidth: 1000
Flags: HW
LayerCount: 2
Fore
SplineSet
0 -48.4961 m 4
 13.7637 -48.4961 20.0195 -50.999 25.0244 -56.0039 c 4
 30.0293 -61.0088 32.5322 -67.2646 32.5322 -81.0283 c 6
 32.5322 -214.287 l 2
 32.5322 -228.051 30.0293 -234.307 25.0244 -239.312 c 0
 20.0195 -244.316 13.7637 -246.819 0 -246.819 c 0
 -13.7637 -246.819 -20.0195 -244.316 -25.0244 -239.312 c 0
 -30.0293 -234.307 -32.5322 -228.051 -32.5322 -214.287 c 2
 -32.5322 -81.0283 l 6
 -32.5322 -67.2646 -30.0293 -61.0088 -25.0244 -56.0039 c 4
 -20.0195 -50.999 -13.7637 -48.4961 0 -48.4961 c 4
EndSplineSet
EndChar

StartChar: afii57841
Encoding: 1471 1471 100
Width: 0
VWidth: 1000
Flags: HW
LayerCount: 2
Back
SplineSet
142.015 696 m 0
 142.015 682.236 139.512 675.98 134.507 670.976 c 0
 129.502 665.971 123.246 663.468 109.482 663.468 c 2
 -109.482 663.468 l 2
 -123.246 663.468 -129.502 665.971 -134.507 670.976 c 0
 -139.512 675.98 -142.015 682.236 -142.015 696 c 0
 -142.015 709.764 -139.512 716.02 -134.507 721.024 c 0
 -129.502 726.029 -123.246 728.532 -109.482 728.532 c 2
 109.482 728.532 l 2
 123.246 728.532 129.502 726.029 134.507 721.024 c 0
 139.512 716.02 142.015 709.764 142.015 696 c 0
EndSplineSet
Fore
SplineSet
141.997 701.468 m 2
 141.997 715.231 139.494 721.487 134.489 726.492 c 0
 129.484 731.497 123.229 734 109.465 734 c 2
 -109.507 734 l 2
 -123.271 734 -129.526 731.497 -134.531 726.492 c 0
 -139.536 721.487 -142.038 715.231 -142.038 701.468 c 2
 -142.038 691.468 l 2
 -142.038 677.704 -139.536 671.448 -134.531 666.443 c 0
 -129.526 661.438 -123.271 658.936 -109.507 658.936 c 2
 109.465 658.936 l 2
 123.229 658.936 129.484 661.438 134.489 666.443 c 0
 139.494 671.448 141.997 677.704 141.997 691.468 c 2
 141.997 701.468 l 2
EndSplineSet
EndChar

StartChar: afii57842
Encoding: 1472 1472 101
Width: 180
VWidth: 1000
Flags: HW
LayerCount: 2
Fore
SplineSet
120 674 m 2
 120 -74 l 2
 120 -85 118 -90 114 -94 c 0
 110 -98 105 -100 94 -100 c 2
 86 -100 l 2
 75 -100 70 -98 66 -94 c 0
 62 -90 60 -85 60 -74 c 2
 60 674 l 2
 60 685 62 690 66 694 c 0
 70 698 75 700 86 700 c 2
 94 700 l 2
 105 700 110 698 114 694 c 0
 118 690 120 685 120 674 c 2
EndSplineSet
EndChar

StartChar: afii57804
Encoding: 1473 1473 102
Width: 0
VWidth: 1000
Flags: W
HStem: 645.951 100.098<596.751 672.248>
VStem: 590.081 88.8379<662.627 728.179>
LayerCount: 2
Fore
SplineSet
678.919 696 m 4
 678.919 679.734 677.668 670.976 672.662 662.217 c 4
 663.904 649.704 650.141 645.951 633.874 645.951 c 4
 617.608 645.951 605.096 649.704 596.338 662.217 c 4
 591.333 670.976 590.081 679.734 590.081 696 c 4
 590.081 712.266 591.333 721.024 596.338 728.532 c 4
 605.096 742.296 617.608 746.049 633.874 746.049 c 4
 650.141 746.049 663.904 742.296 672.662 728.532 c 4
 677.668 721.024 678.919 712.266 678.919 696 c 4
EndSplineSet
EndChar

StartChar: afii57803
Encoding: 1474 1474 103
Width: 0
VWidth: 1000
Flags: W
HStem: 645.951 100.098<77.7512 153.248>
VStem: 71.0811 88.8379<662.627 728.179>
LayerCount: 2
Fore
SplineSet
159.919 696 m 4
 159.919 679.734 158.667 670.976 153.662 662.217 c 4
 144.904 649.704 131.141 645.951 114.874 645.951 c 4
 98.6084 645.951 86.0957 649.704 77.3379 662.217 c 4
 72.333 670.976 71.0811 679.734 71.0811 696 c 4
 71.0811 712.266 72.333 721.024 77.3379 728.532 c 4
 86.0957 742.296 98.6084 746.049 114.874 746.049 c 4
 131.141 746.049 144.904 742.296 153.662 728.532 c 4
 158.667 721.024 159.919 712.266 159.919 696 c 4
EndSplineSet
EndChar

StartChar: uni05C4
Encoding: 1476 1476 104
Width: 0
VWidth: 1000
Flags: HW
LayerCount: 2
Fore
SplineSet
53.3018 738 m 0
 53.3018 718.48 51.8018 707.971 45.7949 697.46 c 0
 35.2852 682.445 18.7686 677.941 -0.75 677.941 c 0
 -20.2705 677.941 -35.2852 682.445 -45.7949 697.46 c 0
 -51.8018 707.971 -53.3018 718.48 -53.3018 738 c 0
 -53.3018 757.52 -51.8018 768.029 -45.7949 777.038 c 0
 -35.2852 793.555 -20.2705 798.059 -0.75 798.059 c 0
 18.7686 798.059 35.2852 793.555 45.7949 777.038 c 0
 51.8018 768.029 53.3018 757.52 53.3018 738 c 0
EndSplineSet
EndChar

StartChar: uni05C5
Encoding: 1477 1477 105
Width: 0
VWidth: 1000
Flags: HW
LayerCount: 2
Fore
SplineSet
53.3018 738 m 0
 53.3018 718.48 51.8018 707.971 45.7949 697.46 c 0
 35.2852 682.445 18.7686 677.941 -0.75 677.941 c 0
 -20.2705 677.941 -35.2852 682.445 -45.7949 697.46 c 0
 -51.8018 707.971 -53.3018 718.48 -53.3018 738 c 0
 -53.3018 757.52 -51.8018 768.029 -45.7949 777.038 c 0
 -35.2852 793.555 -20.2705 798.059 -0.75 798.059 c 0
 18.7686 798.059 35.2852 793.555 45.7949 777.038 c 0
 51.8018 768.029 53.3018 757.52 53.3018 738 c 0
EndSplineSet
EndChar

StartChar: uni05C7
Encoding: 1479 1479 106
Width: 0
VWidth: 1000
Flags: HW
AnchorPoint: "DiaToBase2" 0 0 mark 0
LayerCount: 2
Back
SplineSet
33.1572 -255.577 m 2
 33.1572 -269.98 30.0293 -276.223 25.0244 -281.228 c 0
 20.0195 -286.232 13.7637 -288.735 0 -288.735 c 0
 -13.7637 -288.735 -20.0195 -286.232 -25.0244 -281.228 c 0
 -30.0293 -276.223 -32.5322 -269.97 -32.5322 -256.203 c 2
 -32.5322 -141.09 l 2
 -32.5322 -131.081 -35.0342 -128.578 -45.0439 -128.578 c 2
 -78.2021 -128.578 l 2
 -91.9639 -128.578 -98.2217 -126.075 -103.227 -121.07 c 0
 -108.231 -116.065 -110.733 -109.81 -110.733 -96.0459 c 0
 -110.733 -82.2822 -108.231 -76.0264 -103.227 -71.0215 c 0
 -98.2217 -66.0166 -91.9658 -63.5137 -78.2021 -63.5137 c 2
 78.2021 -63.5137 l 2
 91.9658 -63.5137 98.2217 -66.0166 103.227 -71.0215 c 0
 108.231 -76.0264 110.733 -82.2822 110.733 -96.0459 c 0
 110.733 -109.81 108.231 -116.065 103.227 -121.07 c 0
 98.2217 -126.075 91.9678 -128.578 78.2021 -128.578 c 2
 45.6699 -128.578 l 2
 35.6602 -128.578 33.1572 -131.081 33.1572 -141.09 c 2
 33.1572 -255.577 l 2
EndSplineSet
Fore
SplineSet
5 -288.75 m 2
 18.7637 -288.75 25.0195 -286.247 30.0244 -281.242 c 0
 35.0293 -276.237 38.1572 -269.995 38.1572 -255.592 c 2
 38.1572 -146.177 l 2
 38.1572 -136.168 40.6592 -133.578 50.6748 -133.578 c 2
 78.2178 -133.579 l 2
 91.9814 -133.579 98.2373 -131.076 103.242 -126.071 c 0
 108.247 -121.066 110.75 -114.811 110.75 -101.047 c 2
 110.75 -91.0469 l 2
 110.75 -77.2832 108.247 -71.0273 103.242 -66.0225 c 0
 98.2373 -61.0176 91.9814 -58.5146 78.2178 -58.5146 c 2
 -78.2188 -58.5146 l 2
 -91.9834 -58.5146 -98.2383 -61.0176 -103.243 -66.0225 c 0
 -108.248 -71.0273 -110.75 -77.2832 -110.75 -91.0469 c 2
 -110.75 -101.047 l 2
 -110.75 -114.811 -108.248 -121.066 -103.243 -126.071 c 0
 -98.2383 -131.076 -91.9834 -133.579 -78.2188 -133.579 c 2
 -49.6611 -133.579 l 2
 -40.0342 -133.579 -37.5322 -136.168 -37.5322 -146.177 c 2
 -37.5322 -256.218 l 2
 -37.5322 -269.983 -35.0293 -276.237 -30.0244 -281.242 c 0
 -25.0195 -286.247 -18.7637 -288.75 -5 -288.75 c 2
 5 -288.75 l 2
EndSplineSet
EndChar

StartChar: uniFB1E
Encoding: 64286 64286 115
Width: 0
VWidth: 1000
Flags: HW
LayerCount: 2
Back
SplineSet
141.997 701.468 m 2
 141.997 715.231 139.494 721.487 134.489 726.492 c 0
 129.484 731.497 123.229 734 109.465 734 c 2
 -109.507 734 l 2
 -123.271 734 -129.526 731.497 -134.531 726.492 c 0
 -139.536 721.487 -142.038 715.231 -142.038 701.468 c 2
 -142.038 691.468 l 2
 -142.038 677.704 -139.536 671.448 -134.531 666.443 c 0
 -129.526 661.438 -123.271 658.936 -109.507 658.936 c 2
 109.465 658.936 l 2
 123.229 658.936 129.484 661.438 134.489 666.443 c 0
 139.494 671.448 141.997 677.704 141.997 691.468 c 2
 141.997 701.468 l 2
EndSplineSet
Fore
SplineSet
138.696 731.557 m 2
 133.989 744.49 129.498 749.513 123.083 752.504 c 0
 116.668 755.495 109.676 756.363 97 751 c 0
 32 723.5 -37.5 727 -96.5 751 c 0
 -109.249 756.186 -116.168 755.494 -122.583 752.503 c 0
 -128.998 749.512 -133.488 744.488 -138.195 731.556 c 2
 -141.616 722.159 l 2
 -146.323 709.225 -146.112 702.49 -143.12 696.075 c 0
 -140.129 689.66 -134.895 685.718 -122.173 680.463 c 0
 -46 649 43 645.5 122.673 680.463 c 0
 135.277 685.994 140.629 689.661 143.621 696.076 c 0
 146.612 702.491 146.824 709.226 142.117 722.16 c 2
 138.696 731.557 l 2
EndSplineSet
EndChar

StartChar: uniFB43
Encoding: 64323 64323 137
Width: 542
VWidth: 1000
Flags: HW
HStem: -140 105<494 562.718> 220 105<155.514 255.718> 296.163 139.67<275.361 360.638> 495 105<155.514 388.486>
VStem: 50 105<325.284 494.716> 268.892 98.2178<312.337 418.498> 389 105<-35 494.716>
LayerCount: 2
Fore
SplineSet
170 325 m 2xde
 209 325 l 2
 225.5 325 233 322 239 316 c 128
 245 310 248 302.5 248 286 c 2
 248 259 l 2
 248 242.5 245 235 239 229 c 128
 233 223 225.5 220 209 220 c 2
 161 220 l 2
 121.398 220 94.3994 226 75.1992 245.2 c 128
 56 264.4 50 289.6 50 331 c 2
 50 489 l 2
 50 530.4 56 555.6 75.1992 574.8 c 128
 94.3994 594 121.399 600 161 600 c 2
 383 600 l 2
 422.6 600 449.6 594 468.8 574.8 c 128
 488 555.6 494 530.4 494 489 c 2
 494 -20 l 2
 494 -32 497 -35 509 -35 c 2
 533 -35 l 2
 549.5 -35 557 -38 563 -44 c 128
 569 -50 572 -57.5 572 -74 c 2
 572 -101 l 2
 572 -117.5 569 -125 563 -131 c 128
 557 -137 549.5 -140 533 -140 c 2
 472.25 -140 l 2
 442.55 -140 422.3 -135.5 407.9 -121.1 c 128
 393.5 -106.7 389 -87.7998 389 -56.75 c 2
 389 480 l 2
 389 492 386 495 374 495 c 2
 170 495 l 2
 158 495 155 492 155 480 c 2
 155 340 l 2
 155 328 158 325 170 325 c 2xde
EndSplineSet
Refer: 98 1468 S 1 0 0 1 312 59 2
Ligature2: "Dagesh" afii57683 afii57807
LCarets2: 1 0 
EndChar

StartChar: uniFB44
Encoding: 64324 64324 138
Width: 556
VWidth: 1000
Flags: HW
HStem: 0 105<69.2824 383.183> 220 105<165.514 285.718> 274.163 139.67<293.361 378.638> 495 105<165.514 400.486>
VStem: 60 105<325.284 494.716> 286.892 98.2178<290.337 396.498> 401 105<122.815 494.716>
AnchorPoint: "DiaToBaseU" 280 0 basechar 0
AnchorPoint: "DiaToBase3" 280 0 basechar 0
AnchorPoint: "DiaToBase2" 275 0 basechar 0
AnchorPoint: "DiaToBase1" 280 0 basechar 0
LayerCount: 2
Fore
SplineSet
401 183.75 m 2
 401 480 l 2
 401 492 398 495 386 495 c 2
 180 495 l 2
 168 495 165 492 165 480 c 2
 165 340 l 2
 165 328 168.001 325 180 325 c 2
 219 325 l 2
 235.5 325 243 322 249 316 c 0
 255 310 258 302.5 258 286 c 2
 258 259 l 2
 258 242.5 255 235 249 229 c 0
 243 223 235.5 220 219 220 c 2
 171 220 l 2
 131.398 220 104.399 226 85.1992 245.2 c 0
 66 264.4 60 289.6 60 331 c 2
 60 489 l 2
 60 530.4 66 555.6 85.1992 574.8 c 0
 104.399 594 131.4 600 171 600 c 2
 395 600 l 2
 434.6 600 461.6 594 480.8 574.8 c 0
 500 555.6 506 530.4 506 489 c 2
 506 180.375 l 2
 506 113.476 496.25 72.1494 465.05 40.9492 c 0
 433.85 9.75 391.1 0 325.625 0 c 2
 99 0 l 2
 82.5 0 75 3 69 9 c 0
 63 15 60 22.5 60 39 c 2
 60 66 l 2
 60 82.5 63 90 69 96 c 0
 75 102 82.5 105 99 105 c 2
 322.25 105 l 2
 353.75 105 371.75 110.25 383.75 122.25 c 0
 395.75 134.25 401 149.25 401 183.75 c 2
EndSplineSet
Refer: 98 1468 N 1 0 0 1 329 44 2
Ligature2: "Dagesh" afii57684 afii57807
LCarets2: 1 0 
EndChar

StartChar: uniFB4F
Encoding: 64335 64335 150
Width: 599
VWidth: 1000
Flags: HW
HStem: -0.000976562 21G<463.254 535.504> 495 105<376.783 447.5>
VStem: 50 105<441.139 704.718> 447.5 105<338.391 494.998>
LayerCount: 2
Back
SplineSet
311 290.113 m 2
 316.789 283.99 320.737 279.784 330 283 c 0
 366 295.5 402 314 419.5 347 c 0
 434.796 375.844 437.5 407 437.5 448 c 2
 437.5 480 l 2
 437.5 492 434.5 495 422.5 495 c 2
 396.5 495 l 2
 381.5 495 372.5 498 366.5 504 c 0
 360.5 510 357.5 517.5 357.5 534 c 2
 357.5 561 l 2
 357.5 577.5 360.5 585 366.5 591 c 0
 372.5 597 381.5 600 396.5 600 c 2
 458.5 600 l 2
 488.5 600 508 595.5 523 580.5 c 0
 536.5 567 542.5 547.5 542.5 516 c 2
 542.5 424 l 2
 542.5 369 536.207 327.178 514.5 291 c 0
 490.5 251 454 225.5 407 207.632 c 0
 399.402 204.743 398.703 197.589 404.5 191.5 c 2
 527.965 61.8301 l 2
 539.627 49.582 549.879 29.999 549.167 20.999 c 0
 548.717 8.99902 540.504 -0.000976562 525.504 -0.000976562 c 2
 466.504 -0.000976562 l 18
 450.004 -0.000976562 441.933 5.65039 428.798 19.499 c 2
 60.333 408.006 l 2
 42.3174 431.622 40 447.004 40 475.337 c 2
 40 675 l 2
 40 691.499 43 699 49 705 c 0
 55 711 62.5 714 79 714 c 2
 106 714 l 2
 122.5 714 130 711 136 705 c 0
 142 699 145 691.496 145 675 c 2
 145 495 l 2
 145 477.67 148.253 462.231 159.5 450.337 c 2
 311 290.113 l 2
342.5 303.613 m 2
 347.675 296.962 352.449 292.729 361.5 296.5 c 0
 385.5 306.5 408.5 325.5 419.5 347 c 0
 434.371 376.066 437.5 407 437.5 448 c 2
 437.5 480 l 2
 437.5 492 434.5 495 422.5 495 c 2
 396.5 495 l 2
 381.5 495 372.5 498 366.5 504 c 0
 360.5 510 357.5 517.5 357.5 534 c 2
 357.5 561 l 2
 357.5 577.5 360.5 585 366.5 591 c 0
 372.5 597 381.5 600 396.5 600 c 2
 458.5 600 l 2
 488.5 600 508 595.5 523 580.5 c 0
 536.5 567 542.5 547.5 542.5 516 c 2
 542.5 424 l 2
 542.5 369 536.5 327 514.5 291 c 0
 495.038 258.268 461.5 229.5 424.5 215.5 c 0
 416.897 212.623 416.855 206.017 422 199.368 c 2
 537.542 50.999 l 2
 547.936 37.6523 549.879 29.999 549.167 20.999 c 0
 548.717 8.99902 540.504 -0.000976562 525.504 -0.000976562 c 2
 466.504 -0.000976562 l 18
 450.004 -0.000976562 440.466 4.39355 428.798 19.499 c 2
 60.333 496.506 l 2
 42.3174 520.122 40 535.504 40 563.837 c 2
 40 675 l 2
 40 691.499 43 699 49 705 c 0
 55 711 62.5 714 79 714 c 2
 106 714 l 2
 122.5 714 130 711 136 705 c 0
 142 699 145 691.497 145 675 c 2
 145 583.5 l 2
 145 566.17 149.449 551.756 159.5 538.837 c 2
 342.5 303.613 l 2
EndSplineSet
Fore
SplineSet
321 290.113 m 2
 326.789 283.99 330.737 279.784 340 283 c 0
 376 295.5 412 314 429.5 347 c 0
 444.796 375.845 447.5 407 447.5 448 c 2
 447.5 480 l 2
 447.5 492 444.5 495 432.5 495 c 2
 406.5 495 l 2
 391.5 495 382.5 498 376.5 504 c 0
 370.5 510 367.5 517.5 367.5 534 c 2
 367.5 561 l 2
 367.5 577.5 370.5 585 376.5 591 c 0
 382.5 597 391.5 600 406.5 600 c 2
 468.5 600 l 2
 498.5 600 518 595.5 533 580.5 c 0
 546.5 567 552.5 547.5 552.5 516 c 2
 552.5 424 l 2
 552.5 369 546.207 327.178 524.5 291 c 0
 500.5 251 464 225.5 417 207.632 c 0
 409.402 204.743 408.703 197.589 414.5 191.5 c 2
 537.965 61.8301 l 2
 549.627 49.582 559.879 29.999 559.167 20.999 c 0
 558.717 8.99902 550.504 -0.000976562 535.504 -0.000976562 c 2
 471.504 -0.000976562 l 18
 455.004 -0.000976562 446.974 5.68164 433.798 19.499 c 2
 91 379 l 2
 64.1543 407.272 50 440 50 486 c 2
 50 675 l 2
 50 691.498 53 699 59 705 c 0
 65 711 72.5 714 89 714 c 2
 116 714 l 2
 132.5 714 140 711 146 705 c 0
 152 699 155 691.496 155 675 c 2
 155 495 l 2
 155 477.67 158.253 462.231 169.5 450.337 c 2
 321 290.113 l 2
EndSplineSet
Ligature2: "AlephLamed2" afii57664 afii57676
Ligature2: "AlephLamed" afii57664 afii57676
LCarets2: 1 0 
EndChar

